<svg width="20" height="18" fill="none" xmlns="http://www.w3.org/2000/svg"><path d="M14.197 0C17.398.01 19.99 2.621 20 5.846v1.46l-.006.098a.71.71 0 01-.702.616l-.009-.018-.11-.009a.716.716 0 01-.596-.704V5.846c-.025-2.426-1.972-4.387-4.38-4.411H5.803c-2.408.024-4.355 1.985-4.379 4.41v6.31c.024 2.426 1.97 4.386 4.379 4.41h8.394c2.409-.024 4.355-1.985 4.379-4.41a.718.718 0 01.712-.642c.365 0 .671.276.712.642-.01 3.224-2.602 5.835-5.803 5.845H5.803C2.6 17.995.005 15.38 0 12.155v-6.31C0 2.618 2.598 0 5.803 0h8.394zM4.294 5.387a.695.695 0 01.518.156l4.157 3.314c.52.41 1.25.41 1.77 0l4.113-3.314h.009l.086-.06a.713.713 0 01.913.167.717.717 0 01-.115 1.006L11.632 9.98a2.84 2.84 0 01-3.582 0L3.927 6.656l-.076-.072a.726.726 0 01-.03-.934.697.697 0 01.473-.263z" fill="silver"/></svg>