<?xml version="1.0" standalone="no"?>
<!DOCTYPE svg PUBLIC "-//W3C//DTD SVG 1.1//EN" "http://www.w3.org/Graphics/SVG/1.1/DTD/svg11.dtd" >
<svg xmlns="http://www.w3.org/2000/svg" xmlns:xlink="http://www.w3.org/1999/xlink" version="1.1">
<metadata></metadata>
<defs>
<font id="gt_eesti_pro_displaythin" horiz-adv-x="563" >
<font-face units-per-em="1000" ascent="750" descent="-250" />
<missing-glyph horiz-adv-x="305" />
<glyph unicode="&#xfb01;" horiz-adv-x="495" d="M121 549q0 83 41 122t112 39h14v-49h-11q-105 0 -105 -113v-86h115v-45h-115v-417h-51v417h-93v45h93v87zM370 690h68v-120h-68v120zM379 0v462h51v-462h-51z" />
<glyph unicode="&#xfb02;" horiz-adv-x="502" d="M121 549q0 83 41 122t112 39h14v-49h-11q-105 0 -105 -113v-86h115v-45h-115v-417h-51v417h-93v45h93v87zM383 700h50v-700h-50v700z" />
<glyph horiz-adv-x="0" />
<glyph horiz-adv-x="333" />
<glyph horiz-adv-x="0" />
<glyph horiz-adv-x="0" />
<glyph unicode=" "  horiz-adv-x="305" />
<glyph unicode="&#x09;" horiz-adv-x="305" />
<glyph unicode="&#xa0;" horiz-adv-x="305" />
<glyph unicode="!" horiz-adv-x="289" d="M127 201l-12 499h59l-12 -499h-35zM189 89v-89h-89v89h89z" />
<glyph unicode="&#x22;" horiz-adv-x="246" d="M65 462l-15 253h53l-15 -253h-23zM158 462l-15 253h53l-15 -253h-23z" />
<glyph unicode="#" horiz-adv-x="632" d="M582 460h-129l-36 -198h127v-34h-134l-41 -228h-39l41 228h-156l-41 -228h-39l41 228h-126v34h132l36 198h-130v34h136l38 206h39l-37 -206h155l38 206h39l-37 -206h123v-34zM377 262l36 198h-155l-36 -198h155z" />
<glyph unicode="$" horiz-adv-x="500" d="M470 171q0 -84 -53 -132t-146 -53v-63h-28v62q-97 2 -154.5 51t-58.5 138h53q2 -69 44 -103.5t116 -36.5v302q-44 17 -68 29t-54.5 34t-44.5 53t-14 72q0 76 49 119t132 47v72h28v-72q86 -3 137.5 -45.5t52.5 -129.5h-52q-6 121 -138 126v-260q40 -15 58.5 -23.5 t51 -27.5t48 -38t28.5 -50.5t13 -70.5zM115 527q0 -51 32.5 -80.5t95.5 -54.5v248q-59 -3 -93.5 -32t-34.5 -81zM271 35q73 4 109.5 40.5t36.5 94.5q0 60 -38 94t-108 61v-290z" />
<glyph unicode="%" horiz-adv-x="746" d="M206 690q68 0 112 -44t44 -112t-44 -112t-112 -44t-112 44t-44 112t44 112t112 44zM146 0l395 675h41l-395 -675h-41zM206 651q-52 0 -83 -32t-31 -85t31 -85t83 -32t83.5 32t31.5 85t-31.5 85t-83.5 32zM540 307q68 0 112 -44t44 -112t-44 -112t-112 -44t-112 44 t-44 112t44 112t112 44zM540 268q-52 0 -83 -32t-31 -85t31 -85t83 -32t83.5 32t31.5 85t-31.5 85t-83.5 32z" />
<glyph unicode="&#x26;" horiz-adv-x="673" d="M633 0h-66l-70 86q-90 -101 -219 -101q-102 0 -167.5 58t-65.5 157q0 81 45.5 139.5t127.5 87.5q-62 80 -62 143q0 54 38.5 87t109.5 33q67 0 138 -30l-20 -48q-64 27 -118 27q-45 0 -68.5 -20t-23.5 -53q0 -45 59 -117l224 -278q40 64 72 155l50 -17q-39 -112 -87 -181z M278 36q108 0 185 92l-210 257q-153 -51 -153 -182q0 -77 49.5 -122t128.5 -45z" />
<glyph unicode="'" horiz-adv-x="155" d="M105 715l-15 -253h-25l-15 253h55z" />
<glyph unicode="(" horiz-adv-x="270" d="M211 760l41 -31q-81 -105 -118.5 -212.5t-37.5 -236.5q0 -133 37.5 -244.5t117.5 -220.5l-41 -30q-81 111 -123.5 227.5t-42.5 267.5q0 146 42.5 259.5t124.5 220.5z" />
<glyph unicode=")" horiz-adv-x="270" d="M61 -215l-41 30q80 109 117.5 220.5t37.5 244.5q0 129 -37.5 236.5t-118.5 212.5l41 31q82 -107 124.5 -220.5t42.5 -259.5q0 -151 -42.5 -267.5t-123.5 -227.5z" />
<glyph unicode="*" horiz-adv-x="399" d="M369 577l-145 -41l94 -117l-35 -26l-83 126l-83 -127l-35 27l93 116l-145 41l14 41l140 -52l-7 150h44l-7 -150l141 53z" />
<glyph unicode="+" horiz-adv-x="600" d="M317 542v-228h227v-32h-227v-228h-34v228h-227v32h227v228h34z" />
<glyph unicode="," horiz-adv-x="199" d="M144 89v-89l-57 -141h-32l48 141h-48v89h89z" />
<glyph unicode="-" horiz-adv-x="336" d="M291 298v-53h-246v53h246z" />
<glyph unicode="." horiz-adv-x="199" d="M144 89v-89h-89v89h89z" />
<glyph unicode="/" horiz-adv-x="560" d="M489 772l41 -22l-459 -837l-41 22z" />
<glyph unicode="0" horiz-adv-x="566" d="M283 690q108 0 173 -93t65 -259t-65 -259.5t-173 -93.5t-173 93.5t-65 259.5t65 259t173 93zM283 641q-83 0 -134 -82.5t-51 -220.5t51 -221t134 -83t134 83t51 221t-51 220.5t-134 82.5z" />
<glyph unicode="1" horiz-adv-x="299" d="M184 675v-675h-51v626h-62v49h113z" />
<glyph unicode="2" horiz-adv-x="502" d="M41 0v43l266 282q94 101 94 177q0 61 -40.5 100t-109.5 39q-65 0 -109.5 -37t-47.5 -108h-51q2 90 58.5 142t150.5 52q95 0 148.5 -50.5t53.5 -135.5q0 -98 -103 -206l-238 -249h344v-49h-416z" />
<glyph unicode="3" horiz-adv-x="525" d="M256 690q91 0 143 -46t52 -124q0 -60 -33.5 -102t-100.5 -54v-1q77 -5 121 -52t44 -128q0 -91 -54.5 -144.5t-162.5 -53.5q-99 0 -158 46t-66 135h53q6 -61 47.5 -96.5t122.5 -35.5q165 0 165 154q0 78 -48 113t-159 35h-41v46h41q83 0 129.5 33t46.5 100 q0 59 -37.5 92.5t-103.5 33.5q-64 0 -105.5 -31.5t-44.5 -91.5h-52q4 81 58 126.5t143 45.5z" />
<glyph unicode="4" horiz-adv-x="557" d="M524 185v-49h-91v-136h-51v136h-362v44l347 495h66v-490h91zM80 185h302v427h-2z" />
<glyph unicode="5" horiz-adv-x="521" d="M269 440q95 0 155 -58t60 -167q0 -105 -60.5 -167.5t-170.5 -62.5q-86 0 -145.5 38t-85.5 109l44 23q27 -60 70.5 -90.5t115.5 -30.5q92 0 135.5 49.5t43.5 130.5q0 88 -47 133.5t-124 45.5q-101 0 -159 -84h-47l47 366h329v-48h-288l-33 -251h2q62 64 158 64z" />
<glyph unicode="6" horiz-adv-x="520" d="M267 -15q-98 0 -165.5 61.5t-67.5 173.5q0 125 99 245l176 217h63l-243 -298l3 -2q64 59 150 59q98 0 158 -62t60 -163q0 -102 -65.5 -166.5t-167.5 -64.5zM268 34q79 0 129 49.5t50 130.5q0 80 -48.5 129.5t-126.5 49.5q-81 0 -132.5 -50.5t-51.5 -129.5t49.5 -129 t130.5 -50z" />
<glyph unicode="7" horiz-adv-x="434" d="M422 675v-46l-293 -629h-54l293 625h-353v50h407z" />
<glyph unicode="8" horiz-adv-x="542" d="M271 -15q-106 0 -165.5 54.5t-59.5 142.5q0 66 36.5 114.5t95.5 63.5v2q-48 16 -80 56t-32 100q0 78 54.5 125t150.5 47t150.5 -47t54.5 -125q0 -61 -32 -100.5t-80 -55.5v-2q59 -15 95.5 -63.5t36.5 -114.5q0 -88 -59.5 -142.5t-165.5 -54.5zM271 384q69 0 110.5 36.5 t41.5 94.5t-41.5 92.5t-110.5 34.5t-110.5 -34.5t-41.5 -92.5t41.5 -94.5t110.5 -36.5zM271 33q80 0 126 40t46 110q0 68 -45 110t-127 42t-126.5 -42t-44.5 -110q0 -70 45.5 -110t125.5 -40z" />
<glyph unicode="9" horiz-adv-x="509" d="M156 0l241 294l-2 2q-63 -60 -150 -60q-97 0 -158.5 64t-61.5 160q0 105 64.5 167.5t167.5 62.5t167.5 -61.5t64.5 -175.5q0 -122 -97 -242l-173 -211h-63zM255 285q80 0 131.5 50.5t51.5 127.5q0 79 -50.5 128.5t-131.5 49.5q-77 0 -127.5 -49.5t-50.5 -129.5 q0 -78 49.5 -127.5t127.5 -49.5z" />
<glyph unicode=":" horiz-adv-x="199" d="M144 462v-89h-89v89h89zM144 89v-89h-89v89h89z" />
<glyph unicode=";" horiz-adv-x="199" d="M144 462v-89h-89v89h89zM144 89v-89l-57 -141h-32l48 141h-48v89h89z" />
<glyph unicode="&#x3c;" horiz-adv-x="600" d="M517 508v-38l-392 -171l392 -171v-37l-434 191v34z" />
<glyph unicode="=" horiz-adv-x="600" d="M553 400v-32h-506v32h506zM553 230v-33h-506v33h506z" />
<glyph unicode="&#x3e;" horiz-adv-x="600" d="M83 508l434 -192v-34l-434 -191v37l392 171l-392 171v38z" />
<glyph unicode="?" horiz-adv-x="462" d="M230 715q91 0 141.5 -48t50.5 -127q0 -51 -21.5 -88t-60.5 -73q-3 -3 -15.5 -14.5t-16.5 -15.5l-14.5 -14.5t-14.5 -16t-12 -15.5t-11.5 -17.5t-7.5 -17.5t-5.5 -19.5t-1.5 -20.5v-27h-53v29q0 29 7.5 53t29 50.5t32.5 38t44 42.5q66 64 66 128q0 52 -34.5 87t-102.5 35 q-69 0 -107.5 -39t-38.5 -104h-54q0 92 53.5 143t146.5 51zM258 89v-89h-89v89h89z" />
<glyph unicode="@" horiz-adv-x="929" d="M476 690q177 0 290 -105t113 -282q0 -101 -40 -170.5t-113 -69.5q-86 0 -98 93h-3q-50 -104 -168 -104q-89 0 -149 59.5t-60 158.5t59.5 158.5t148.5 59.5q116 0 166 -100h2v85h45v-295q0 -73 61 -73q49 0 77 54.5t28 140.5q0 162 -103.5 254.5t-255.5 92.5 q-75 0 -142.5 -24t-121.5 -70t-85.5 -120t-31.5 -166q0 -75 22.5 -137.5t60.5 -105t88.5 -72.5t105.5 -44t112 -14q112 0 206 46l18 -42q-108 -48 -225 -48q-80 0 -155 25t-138 74t-101.5 131.5t-38.5 186.5q0 198 121 310.5t305 112.5zM461 442q-74 0 -118.5 -48 t-44.5 -123t44 -124t119 -49t120.5 48.5t45.5 123.5t-45.5 123.5t-120.5 48.5z" />
<glyph unicode="A" horiz-adv-x="643" d="M575 0l-79 197h-349l-79 -197h-59l285 700h55l285 -700h-59zM168 249h307l-154 381z" />
<glyph unicode="B" horiz-adv-x="606" d="M401 373q75 -9 118 -56t43 -122q0 -93 -64 -144t-160 -51h-260v700h232q96 0 152 -45.5t56 -127.5q0 -58 -31 -98.5t-86 -53.5v-2zM298 648h-165v-255h164q161 0 161 125q0 130 -160 130zM331 52q79 0 125.5 40t46.5 107q0 65 -47.5 104t-131.5 39h-191v-290h198z" />
<glyph unicode="C" horiz-adv-x="687" d="M412 -15q-169 0 -271 101t-102 264t102 264t271 101q134 0 242 -80l-34 -47q-98 72 -209 72q-140 0 -226.5 -86.5t-86.5 -223.5t86.5 -223.5t226.5 -86.5q111 0 209 72l34 -47q-108 -80 -242 -80z" />
<glyph unicode="D" horiz-adv-x="682" d="M291 700q156 0 254 -94.5t98 -255.5t-98 -255.5t-254 -94.5h-213v700h213zM291 648h-158v-597h158q128 0 211 79.5t83 219.5t-83 219t-211 79z" />
<glyph unicode="E" horiz-adv-x="516" d="M133 52h334v-52h-389v700h384v-52h-329v-230h303v-52h-303v-314z" />
<glyph unicode="F" horiz-adv-x="497" d="M467 648h-334v-251h307v-52h-307v-345h-55v700h389v-52z" />
<glyph unicode="G" horiz-adv-x="796" d="M441 363h322v-23q0 -65 -21.5 -126.5t-63 -113.5t-111.5 -83.5t-158 -31.5q-163 0 -266.5 101t-103.5 262t103 264t266 103q144 0 266 -92l-37 -48q-108 85 -231 85q-133 0 -220.5 -88.5t-87.5 -223.5q0 -134 86.5 -221t225.5 -87q74 0 132.5 26.5t92 68t51 86.5t19.5 89 h-264v53z" />
<glyph unicode="H" horiz-adv-x="689" d="M556 700h55v-700h-55v348h-423v-348h-55v700h55v-299h423v299z" />
<glyph unicode="I" horiz-adv-x="211" d="M133 700v-700h-55v700h55z" />
<glyph unicode="J" horiz-adv-x="267" d="M189 700v-539q0 -86 -34 -126t-108 -40h-28v54h24q46 0 68.5 25t22.5 87v539h55z" />
<glyph unicode="K" horiz-adv-x="582" d="M573 0h-84l-357 364v-364h-54v700h54v-320l318 320h80l-332 -326z" />
<glyph unicode="L" horiz-adv-x="487" d="M133 700v-647h341v-53h-396v700h55z" />
<glyph unicode="M" horiz-adv-x="831" d="M651 700l171 -700h-58l-142 592h-2l-182 -477h-45l-182 477h-2l-142 -592h-58l171 700h48l186 -499h2l187 499h48z" />
<glyph unicode="N" horiz-adv-x="689" d="M611 700v-700h-60l-416 607h-2v-607h-55v700h60l416 -607h2v607h55z" />
<glyph unicode="O" horiz-adv-x="808" d="M404 715q157 0 261 -102.5t104 -262.5t-104 -262.5t-261 -102.5t-261 102.5t-104 262.5t104 262.5t261 102.5zM404 660q-134 0 -220 -87t-86 -223t86 -223t220 -87t220 87t86 223t-86 223t-220 87z" />
<glyph unicode="P" horiz-adv-x="543" d="M311 700q94 0 149.5 -56.5t55.5 -145.5q0 -88 -55.5 -145t-149.5 -57h-178v-296h-55v700h233zM308 348q67 0 108.5 39t41.5 111t-41.5 111t-108.5 39h-175v-300h175z" />
<glyph unicode="Q" horiz-adv-x="815" d="M769 350q0 -155 -99 -257l91 -93h-72l-57 59q-98 -74 -228 -74q-157 0 -261 102.5t-104 262.5t104 262.5t261 102.5t261 -102.5t104 -262.5zM404 40q107 0 188 60l-160 165h71l127 -131q80 85 80 216q0 136 -86 223t-220 87t-220 -87t-86 -223t86 -223t220 -87z" />
<glyph unicode="R" d="M472 0l-211 309h-128v-309h-55v700h227q93 0 152.5 -51t59.5 -144q0 -88 -52.5 -138.5t-137.5 -56.5l214 -310h-69zM133 648v-287h168q73 0 115 38.5t42 105.5t-42 105t-115 38h-168z" />
<glyph unicode="S" horiz-adv-x="494" d="M253 715q82 0 171 -42l-26 -53q-77 40 -144 40q-61 0 -94 -26.5t-33 -71.5q0 -39 23 -66t69 -60l107 -76q63 -45 94 -89t31 -105q0 -88 -58 -134.5t-154 -46.5q-121 0 -216 63l28 51q92 -59 188 -59q76 0 115 35t39 88q0 40 -24 73.5t-80 73.5l-111 81q-53 38 -81 76 t-28 94q0 71 48 112.5t136 41.5z" />
<glyph unicode="T" horiz-adv-x="512" d="M502 700v-52h-219v-648h-55v648h-218v52h492z" />
<glyph unicode="U" horiz-adv-x="694" d="M619 700v-443q0 -124 -71.5 -198t-200.5 -74t-200.5 74.5t-71.5 197.5v443h59v-435q0 -105 57.5 -164t155.5 -59q99 0 156 59t57 164v435h59z" />
<glyph unicode="V" horiz-adv-x="596" d="M583 700l-258 -700h-55l-257 700h65l219 -619h2l219 619h65z" />
<glyph unicode="W" horiz-adv-x="963" d="M948 700l-214 -700h-56l-195 610h-3l-195 -610h-56l-214 700h62l178 -611h2l194 611h61l194 -611h2l177 611h63z" />
<glyph unicode="X" horiz-adv-x="591" d="M573 0h-65l-212 322l-213 -322h-65l244 369l-219 331h66l187 -283l186 283h66l-219 -331z" />
<glyph unicode="Y" horiz-adv-x="527" d="M519 700l-228 -431v-269h-55v269l-228 431h65l189 -370h3l189 370h65z" />
<glyph unicode="Z" horiz-adv-x="534" d="M83 52h431v-52h-494v52l420 596h-382v52h447v-52z" />
<glyph unicode="[" horiz-adv-x="291" d="M281 747v-47h-128v-868h128v-47h-179v962h179z" />
<glyph unicode="\" horiz-adv-x="560" d="M489 -87l-459 837l41 22l459 -837z" />
<glyph unicode="]" horiz-adv-x="291" d="M10 -215v47h128v868h-128v47h179v-962h-179z" />
<glyph unicode="^" horiz-adv-x="600" d="M329 715l148 -322h-48l-129 285l-129 -285h-48l148 322h58z" />
<glyph unicode="_" horiz-adv-x="533" d="M523 -15v-46h-513v46h513z" />
<glyph unicode="`" horiz-adv-x="269" d="M124 707l95 -154h-45l-124 154h74z" />
<glyph unicode="a" horiz-adv-x="573" d="M266 -15q-100 0 -166 67t-66 179t66 179t166 67q66 0 115 -29t75 -80h2v94h51v-462h-51v94h-2q-26 -51 -75 -80t-115 -29zM274 35q85 0 136.5 55t51.5 141t-51.5 141t-136.5 55q-84 0 -135.5 -55t-51.5 -141t51.5 -141t135.5 -55z" />
<glyph unicode="b" horiz-adv-x="578" d="M312 -15q-132 0 -191 109h-2v-94h-50v700h50v-332h2q59 109 191 109q100 0 166 -67t66 -179t-66 -179t-166 -67zM303 35q85 0 136 55t51 141t-51 141t-136 55q-84 0 -135.5 -55t-51.5 -141t51.5 -141t135.5 -55z" />
<glyph unicode="c" horiz-adv-x="467" d="M282 -15q-110 0 -179 68.5t-69 177.5t69 177.5t179 68.5q83 0 158 -45l-26 -45q-68 40 -134 40q-86 0 -139.5 -56.5t-53.5 -139.5t53.5 -139.5t139.5 -56.5q66 0 134 40l26 -45q-75 -45 -158 -45z" />
<glyph unicode="d" horiz-adv-x="578" d="M266 -15q-100 0 -166 67t-66 179t66 179t166 67q66 0 115 -29t75 -80h2v332h51v-700h-51v94h-2q-26 -51 -75 -80t-115 -29zM274 35q85 0 136.5 55t51.5 141t-51.5 141t-136.5 55q-84 0 -135.5 -55t-51.5 -141t51.5 -141t135.5 -55z" />
<glyph unicode="e" horiz-adv-x="524" d="M268 477q112 0 167 -68t55 -172v-11h-405q1 -88 52.5 -139.5t135.5 -51.5q63 0 101 25.5t70 68.5l38 -32q-79 -112 -209 -112q-109 0 -174 67t-65 178q0 114 65 180.5t169 66.5zM265 428q-71 0 -120.5 -41.5t-57.5 -118.5h348q-6 76 -49.5 118t-120.5 42z" />
<glyph unicode="f" horiz-adv-x="314" d="M277 661q-105 0 -105 -113v-86h115v-45h-115v-417h-51v417h-93v45h93v87q0 83 41 122t112 39h14v-49h-11z" />
<glyph unicode="g" horiz-adv-x="573" d="M298 -215q-86 0 -178 20l11 51q95 -21 167 -21q82 0 121 39.5t39 123.5v96h-2q-26 -51 -75 -80t-115 -29q-100 0 -166 67t-66 179t66 179t166 67q66 0 115 -29t75 -80h2v94h51v-462q-1 -123 -57 -169t-154 -46zM274 35q85 0 136.5 55t51.5 141t-51.5 141t-136.5 55 q-84 0 -135.5 -55t-51.5 -141t51.5 -141t135.5 -55z" />
<glyph unicode="h" horiz-adv-x="540" d="M119 700v-343h2q22 59 68.5 89.5t108.5 30.5q82 0 130.5 -49.5t48.5 -148.5v-279h-51v275q0 76 -36.5 113.5t-99.5 37.5q-74 0 -122.5 -52t-48.5 -168v-206h-50v700h50z" />
<glyph unicode="i" horiz-adv-x="181" d="M124 690v-120h-68v120h68zM65 0v462h51v-462h-51z" />
<glyph unicode="j" horiz-adv-x="181" d="M124 690v-120h-68v120h68zM-40 -157h27q40 0 59 24.5t19 77.5v517h51v-519q0 -147 -126 -147h-30v47z" />
<glyph unicode="k" horiz-adv-x="439" d="M430 0h-75l-236 240v-240h-50v700h50v-444l214 206h74l-228 -212z" />
<glyph unicode="l" horiz-adv-x="188" d="M119 700v-700h-50v700h50z" />
<glyph unicode="m" horiz-adv-x="805" d="M68 0v462h50v-91h1q37 106 152 106q113 0 151 -110h2q37 110 160 110q71 0 114.5 -44t43.5 -141v-292h-50v292q0 134 -119 134q-66 0 -104.5 -44.5t-38.5 -139.5v-242h-50v267q0 159 -121 159q-66 0 -103.5 -50t-37.5 -152v-224h-50z" />
<glyph unicode="n" horiz-adv-x="538" d="M296 477q83 0 131.5 -49t48.5 -149v-279h-51v275q0 76 -37.5 113.5t-100.5 37.5q-73 0 -121 -51.5t-48 -168.5v-206h-50v462h49v-105h2q47 120 177 120z" />
<glyph unicode="o" d="M281 477q109 0 178.5 -69t69.5 -177t-69.5 -177t-178.5 -69q-108 0 -177.5 69t-69.5 177t69.5 177t177.5 69zM281 427q-83 0 -138.5 -54.5t-55.5 -141.5t55.5 -141.5t138.5 -54.5q84 0 139.5 54.5t55.5 141.5t-55.5 141.5t-139.5 54.5z" />
<glyph unicode="p" horiz-adv-x="576" d="M68 -200v662h50v-94h2q59 109 191 109q100 0 166 -67t66 -179t-66 -179t-166 -67q-132 0 -191 109h-2v-294h-50zM302 35q84 0 135.5 55t51.5 141t-51.5 141t-135.5 55q-85 0 -136 -55t-51 -141t51 -141t136 -55z" />
<glyph unicode="q" horiz-adv-x="573" d="M458 -200v294h-2q-26 -51 -75 -80t-115 -29q-100 0 -166 67t-66 179t66 179t166 67q66 0 115 -29t75 -80h2v94h51v-662h-51zM274 35q85 0 136.5 55t51.5 141t-51.5 141t-136.5 55q-84 0 -135.5 -55t-51.5 -141t51.5 -141t135.5 -55z" />
<glyph unicode="r" horiz-adv-x="307" d="M289 476v-58h-14q-73 0 -115 -51.5t-42 -139.5v-227h-50v462h50v-106h2q12 53 53.5 86.5t99.5 33.5h16z" />
<glyph unicode="s" horiz-adv-x="409" d="M216 -15q-111 0 -193 59l26 44q79 -54 169 -54q55 0 82.5 21t27.5 54q0 48 -75 83l-87 40q-103 47 -103 127q0 57 41.5 87.5t112.5 30.5q79 0 153 -37l-23 -46q-66 34 -130 34q-46 0 -73 -17t-27 -50q0 -28 19 -46.5t58 -36.5l83 -38q50 -23 77 -52.5t27 -77.5 q0 -61 -44 -93t-121 -32z" />
<glyph unicode="t" horiz-adv-x="304" d="M277 417h-109v-298q0 -72 66 -72h25v-49h-32q-50 0 -79.5 28.5t-29.5 82.5v308h-95v45h95v185h50v-185h109v-45z" />
<glyph unicode="u" horiz-adv-x="526" d="M236 -15q-78 0 -125.5 49t-47.5 150v278h51v-279q0 -76 36 -112t96 -36q72 0 117 53.5t45 174.5v199h50v-462h-49v99h-2q-45 -114 -171 -114z" />
<glyph unicode="v" horiz-adv-x="448" d="M381 462h58l-190 -462h-51l-189 462h58l157 -400z" />
<glyph unicode="w" horiz-adv-x="717" d="M652 462h56l-157 -462h-50l-142 398l-143 -398h-50l-157 462h56l126 -399l140 399h56l139 -399z" />
<glyph unicode="x" horiz-adv-x="457" d="M384 0l-155 202l-156 -202h-64l189 242l-170 220h65l136 -181l136 181h64l-170 -220l189 -242h-64z" />
<glyph unicode="y" horiz-adv-x="453" d="M387 462h57l-313 -662h-55l123 253l-190 409h59l157 -354z" />
<glyph unicode="z" horiz-adv-x="444" d="M92 49h324v-49h-387v46l302 368h-282v48h346v-45z" />
<glyph unicode="{" horiz-adv-x="357" d="M347 745v-48h-24q-112 0 -112 -127v-155q0 -62 -22 -95t-73 -44v-2q51 -11 73 -44t22 -95v-175q0 -68 28.5 -97.5t83.5 -29.5h24v-48h-25q-163 0 -163 175v177q0 53 -29.5 80.5t-94.5 30.5v54q65 3 94.5 30.5t29.5 80.5v157q0 175 163 175h25z" />
<glyph unicode="|" horiz-adv-x="264" d="M154 727v-942h-44v942h44z" />
<glyph unicode="}" horiz-adv-x="357" d="M10 -215v48h24q55 0 83 29.5t28 97.5v175q0 62 22 95t74 44v2q-52 11 -74 44t-22 95v155q0 68 -28.5 97.5t-82.5 29.5h-24v48h24q163 0 163 -175v-157q0 -53 30 -80.5t95 -30.5v-54q-65 -3 -95 -30.5t-30 -80.5v-177q0 -175 -163 -175h-24z" />
<glyph unicode="~" horiz-adv-x="600" d="M185 365q50 0 121.5 -36t111.5 -36q58 0 121 56l28 -41q-79 -64 -152 -64q-49 0 -120.5 36t-112.5 36q-55 0 -122 -56l-27 41q79 64 152 64z" />
<glyph unicode="&#xa1;" horiz-adv-x="289" d="M100 411v89h89v-89h-89zM115 -200l12 499h35l12 -499h-59z" />
<glyph unicode="&#xa2;" horiz-adv-x="460" d="M430 72v-53q-66 -34 -138 -34v-49h-28v50q-98 10 -158.5 77t-60.5 168t61 168.5t158 76.5v55h28v-54q75 0 137 -33v-52q-75 36 -137 36v-394q62 0 138 38zM98 231q0 -82 47 -134t119 -61v390q-73 -9 -119.5 -61t-46.5 -134z" />
<glyph unicode="&#xa3;" horiz-adv-x="514" d="M132 51v-2h347v-49h-411v48q57 34 91 71t34 87q0 8 -1 15.5t-3 16t-3.5 15t-5.5 16t-6 14.5t-8 15.5t-8 14.5t-8.5 16.5t-8.5 15.5h-101v30h86q-32 70 -32 125q0 85 53 137.5t145 52.5q85 0 138.5 -44.5t53.5 -132.5h-53q-5 128 -138 128q-67 0 -106.5 -37.5 t-39.5 -104.5q0 -54 37 -124h212v-30h-196q46 -88 46 -137q0 -92 -114 -157z" />
<glyph unicode="&#xa5;" horiz-adv-x="506" d="M481 675l-156 -323h139v-30h-153l-27 -56h180v-30h-186v-236h-51v236h-185v30h180l-27 56h-153v30h138l-155 323h60l168 -369l168 369h60z" />
<glyph unicode="&#xa7;" horiz-adv-x="527" d="M373 114q77 -43 77 -125q0 -65 -49 -106.5t-137 -41.5q-99 0 -185 55l28 44q84 -49 159 -49q63 0 97.5 27.5t34.5 70.5q0 37 -26 63t-64.5 38.5t-83.5 28.5t-83.5 33t-64.5 53t-26 87q0 94 104 150q-77 46 -77 125q0 65 49.5 106.5t136.5 41.5q103 0 186 -55l-29 -44 q-80 49 -159 49q-62 0 -97 -27.5t-35 -69.5q0 -32 19 -55.5t50 -37.5t68 -25.5t74 -25.5t68 -32.5t50 -51t19 -76.5q0 -51 -30 -89t-74 -61zM102 294q0 -29 12 -51t38.5 -37.5t48.5 -25t62.5 -22.5t59.5 -21q102 51 102 123q0 29 -12 51.5t-38.5 38t-48.5 25t-62 23 t-60 21.5q-102 -51 -102 -125z" />
<glyph unicode="&#xa8;" horiz-adv-x="348" d="M113 690v-112h-63v112h63zM298 690v-112h-63v112h63z" />
<glyph unicode="&#xa9;" horiz-adv-x="828" d="M414 -15q-155 0 -259.5 103t-104.5 262t104.5 262t259.5 103t259.5 -103t104.5 -262t-104.5 -262t-259.5 -103zM414 22q138 0 231.5 92t93.5 236t-93.5 236t-231.5 92t-231.5 -92t-93.5 -236t93.5 -236t231.5 -92zM416 126q-102 0 -165.5 63.5t-63.5 163.5 q0 101 63.5 164t165.5 63q83 0 152 -48l-24 -39q-58 41 -130 41q-80 0 -129 -49.5t-49 -131.5t49 -131t129 -49q72 0 130 41l24 -39q-68 -49 -152 -49z" />
<glyph unicode="&#xaa;" horiz-adv-x="424" d="M204 338q-67 0 -110.5 44.5t-43.5 118.5t43.5 118.5t110.5 44.5q88 0 122 -69h2v59h46v-306h-46v59h-2q-34 -69 -122 -69zM211 382q51 0 85 33t34 86t-34 86t-85 33q-50 0 -81 -33t-31 -86t31 -86t81 -33z" />
<glyph unicode="&#xab;" horiz-adv-x="368" d="M222 385l-143 -151l143 -151h-63l-139 151l139 151h63zM358 385l-142 -151l142 -151h-62l-139 151l139 151h62z" />
<glyph unicode="&#xac;" horiz-adv-x="600" d="M71 432h458v-33v-232h-35v232h-423v33z" />
<glyph unicode="&#xae;" horiz-adv-x="560" d="M280 715q102 0 166 -64.5t64 -167.5t-64 -167.5t-166 -64.5t-166 64.5t-64 167.5t64 167.5t166 64.5zM280 278q88 0 144.5 56t56.5 149t-56.5 149t-144.5 56t-144.5 -56t-56.5 -149t56.5 -149t144.5 -56zM376 543q0 -31 -18 -51t-47 -25l73 -109h-36l-71 108h-43v-108 h-29v260h93q34 0 56 -20t22 -55zM234 591v-98h56q55 0 55 49t-55 49h-56z" />
<glyph unicode="&#xaf;" horiz-adv-x="375" d="M325 653v-43h-275v43h275z" />
<glyph unicode="&#xb0;" horiz-adv-x="352" d="M176 690q59 0 97.5 -38t38.5 -98t-38.5 -98t-97.5 -38t-97.5 38t-38.5 98t38.5 98t97.5 38zM176 658q-44 0 -73.5 -29t-29.5 -75t29.5 -75t73.5 -29t73 29t29 75t-29 75t-73 29z" />
<glyph unicode="&#xb1;" horiz-adv-x="600" d="M317 522v-145h222v-32h-222v-145h-34v145h-222v32h222v145h34zM539 154v-33h-478v33h478z" />
<glyph unicode="&#xb4;" horiz-adv-x="269" d="M219 707l-123 -154h-46l95 154h74z" />
<glyph unicode="&#xb6;" horiz-adv-x="579" d="M529 700v-43h-56v-763h-46v763h-137v-763h-46v416q-88 0 -141 54.5t-53 144.5q0 86 55.5 138.5t148.5 52.5h275z" />
<glyph unicode="&#xb7;" horiz-adv-x="199" d="M144 462v-89h-89v89h89z" />
<glyph unicode="&#xb8;" horiz-adv-x="229" d="M130 12l-22 -57q16 -4 25.5 -8t21.5 -11.5t18 -20t6 -29.5t-8.5 -30.5t-28.5 -26t-35 -20t-47 -21.5l-10 21q46 22 66 37t20 32q0 18 -14.5 26.5t-53.5 17.5l34 90h28z" />
<glyph unicode="&#xba;" horiz-adv-x="436" d="M218 664q73 0 120.5 -45t47.5 -118t-47.5 -118t-120.5 -45t-120.5 45t-47.5 118t47.5 118t120.5 45zM218 620q-52 0 -86 -32t-34 -87t34 -87t86 -32t86 32t34 87t-34 87t-86 32z" />
<glyph unicode="&#xbb;" horiz-adv-x="368" d="M10 385h63l139 -151l-139 -151h-63l142 151zM147 385h62l139 -151l-139 -151h-62l142 151z" />
<glyph unicode="&#xbf;" horiz-adv-x="402" d="M185 411v89h89v-89h-89zM212 -215q-90 0 -141 48t-51 127q0 51 21.5 88t60.5 73q3 3 15.5 14.5t16.5 15.5l14.5 14.5t14.5 16t12 15.5t11.5 17.5t7.5 17.5t5.5 19.5t1.5 20.5v27h53v-29q0 -29 -7.5 -53t-29 -50.5t-32.5 -38t-44 -42.5q-65 -63 -65 -128q0 -53 34.5 -87.5 t101.5 -34.5q69 0 108 39t39 104h53q0 -92 -53 -143t-147 -51z" />
<glyph unicode="&#xc0;" horiz-adv-x="643" d="M345 743h-45l-124 120h74zM575 0l-79 197h-349l-79 -197h-59l285 700h55l285 -700h-59zM168 249h307l-154 381z" />
<glyph unicode="&#xc1;" horiz-adv-x="643" d="M468 863l-124 -120h-45l95 120h74zM575 0l-79 197h-349l-79 -197h-59l285 700h55l285 -700h-59zM168 249h307l-154 381z" />
<glyph unicode="&#xc2;" horiz-adv-x="643" d="M321 829l-90 -86h-63l124 120h59l124 -120h-63zM575 0l-79 197h-349l-79 -197h-59l285 700h55l285 -700h-59zM168 249h307l-154 381z" />
<glyph unicode="&#xc3;" horiz-adv-x="643" d="M245 808q-33 0 -54 -47l-29 10q30 84 90 84q29 0 85.5 -29t74.5 -29q33 0 54 47l29 -10q-29 -83 -90 -83q-29 0 -85 28.5t-75 28.5zM575 0l-79 197h-349l-79 -197h-59l285 700h55l285 -700h-59zM168 249h307l-154 381z" />
<glyph unicode="&#xc4;" horiz-adv-x="643" d="M259 840v-97h-65v97h65zM449 840v-97h-65v97h65zM575 0l-79 197h-349l-79 -197h-59l285 700h55l285 -700h-59zM168 249h307l-154 381z" />
<glyph unicode="&#xc5;" horiz-adv-x="643" d="M575 0l-79 197h-349l-79 -197h-59l274 674q-35 11 -55.5 39t-20.5 67q0 50 32.5 82t82.5 32t82 -32t32 -82q0 -38 -21 -66.5t-55 -39.5l274 -674h-59zM241 780q0 -35 22.5 -57.5t57.5 -22.5q36 0 58.5 22.5t22.5 57.5q0 36 -22.5 58.5t-58.5 22.5q-35 0 -57.5 -22.5 t-22.5 -58.5zM168 249h307l-154 381z" />
<glyph unicode="&#xc6;" horiz-adv-x="922" d="M572 52h301v-52h-335h-20v197h-305l-134 -197h-70l482 700h81h296v-52h-296v-230h270v-52h-270v-314zM248 249h270v395z" />
<glyph unicode="&#xc7;" horiz-adv-x="687" d="M654 65q-109 -80 -239 -80l-12 -30q16 -4 25.5 -8t21.5 -11.5t18 -20t6 -29.5t-8.5 -30.5t-28.5 -26t-35 -20t-47 -21.5l-10 21q46 22 66 37t20 32q0 18 -14.5 26.5t-53.5 17.5l24 64q-158 7 -253 107t-95 257q0 163 102 264t271 101q134 0 242 -80l-34 -47 q-98 72 -209 72q-140 0 -226.5 -86.5t-86.5 -223.5t86.5 -223.5t226.5 -86.5q111 0 209 72z" />
<glyph unicode="&#xc8;" horiz-adv-x="516" d="M311 743h-45l-124 120h74zM133 52h334v-52h-389v700h384v-52h-329v-230h303v-52h-303v-314z" />
<glyph unicode="&#xc9;" horiz-adv-x="516" d="M434 863l-124 -120h-45l95 120h74zM133 52h334v-52h-389v700h384v-52h-329v-230h303v-52h-303v-314z" />
<glyph unicode="&#xca;" horiz-adv-x="516" d="M287 829l-90 -86h-63l124 120h59l124 -120h-63zM133 52h334v-52h-389v700h384v-52h-329v-230h303v-52h-303v-314z" />
<glyph unicode="&#xcb;" horiz-adv-x="516" d="M225 840v-97h-65v97h65zM415 840v-97h-65v97h65zM133 52h334v-52h-389v700h384v-52h-329v-230h303v-52h-303v-314z" />
<glyph unicode="&#xcc;" horiz-adv-x="211" d="M34 863l95 -120h-45l-124 120h74zM133 700v-700h-55v700h55z" />
<glyph unicode="&#xcd;" horiz-adv-x="211" d="M252 863l-124 -120h-45l95 120h74zM133 700v-700h-55v700h55z" />
<glyph unicode="&#xce;" horiz-adv-x="211" d="M135 863l124 -120h-63l-91 86l-90 -86h-63l124 120h59zM133 700v-700h-55v700h55z" />
<glyph unicode="&#xcf;" horiz-adv-x="211" d="M43 840v-97h-65v97h65zM233 840v-97h-65v97h65zM133 700v-700h-55v700h55z" />
<glyph unicode="&#xd0;" horiz-adv-x="692" d="M301 700q156 0 254 -94.5t98 -255.5t-98 -255.5t-254 -94.5h-213v338h-80v47h80v315h213zM301 51q128 0 211 79.5t83 219.5t-83 219t-211 79h-158v-263h205v-47h-205v-287h158z" />
<glyph unicode="&#xd1;" horiz-adv-x="689" d="M435 751q-29 0 -85 28.5t-75 28.5q-33 0 -54 -47l-29 10q30 84 90 84q29 0 85.5 -29t74.5 -29q33 0 54 47l29 -10q-29 -83 -90 -83zM611 700v-700h-60l-416 607h-2v-607h-55v700h60l416 -607h2v607h55z" />
<glyph unicode="&#xd2;" horiz-adv-x="808" d="M333 863l95 -120h-45l-124 120h74zM404 715q157 0 261 -102.5t104 -262.5t-104 -262.5t-261 -102.5t-261 102.5t-104 262.5t104 262.5t261 102.5zM404 660q-134 0 -220 -87t-86 -223t86 -223t220 -87t220 87t86 223t-86 223t-220 87z" />
<glyph unicode="&#xd3;" horiz-adv-x="808" d="M550 863l-124 -120h-45l95 120h74zM404 715q157 0 261 -102.5t104 -262.5t-104 -262.5t-261 -102.5t-261 102.5t-104 262.5t104 262.5t261 102.5zM404 660q-134 0 -220 -87t-86 -223t86 -223t220 -87t220 87t86 223t-86 223t-220 87z" />
<glyph unicode="&#xd4;" horiz-adv-x="808" d="M434 863l124 -120h-63l-91 86l-90 -86h-63l124 120h59zM404 715q157 0 261 -102.5t104 -262.5t-104 -262.5t-261 -102.5t-261 102.5t-104 262.5t104 262.5t261 102.5zM404 660q-134 0 -220 -87t-86 -223t86 -223t220 -87t220 87t86 223t-86 223t-220 87z" />
<glyph unicode="&#xd5;" horiz-adv-x="808" d="M488 751q-29 0 -85 28.5t-75 28.5q-33 0 -54 -47l-29 10q30 84 90 84q29 0 85.5 -29t74.5 -29q33 0 54 47l29 -10q-29 -83 -90 -83zM404 715q157 0 261 -102.5t104 -262.5t-104 -262.5t-261 -102.5t-261 102.5t-104 262.5t104 262.5t261 102.5zM404 660q-134 0 -220 -87 t-86 -223t86 -223t220 -87t220 87t86 223t-86 223t-220 87z" />
<glyph unicode="&#xd6;" horiz-adv-x="808" d="M342 840v-97h-65v97h65zM532 840v-97h-65v97h65zM404 715q157 0 261 -102.5t104 -262.5t-104 -262.5t-261 -102.5t-261 102.5t-104 262.5t104 262.5t261 102.5zM404 660q-134 0 -220 -87t-86 -223t86 -223t220 -87t220 87t86 223t-86 223t-220 87z" />
<glyph unicode="&#xd8;" horiz-adv-x="808" d="M631 642q138 -106 138 -292q0 -160 -104 -262.5t-261 -102.5q-113 0 -202 56l-39 -55l-26 16l40 56q-138 106 -138 292q0 160 104 262.5t261 102.5q113 0 202 -56l39 55l26 -16zM98 350q0 -158 112 -246l363 509q-74 47 -169 47q-134 0 -220 -87t-86 -223zM404 40 q134 0 220 87t86 223q0 77 -29.5 140.5t-82.5 104.5l-363 -508q74 -47 169 -47z" />
<glyph unicode="&#xd9;" horiz-adv-x="694" d="M276 863l95 -120h-45l-124 120h74zM619 700v-443q0 -124 -71.5 -198t-200.5 -74t-200.5 74.5t-71.5 197.5v443h59v-435q0 -105 57.5 -164t155.5 -59q99 0 156 59t57 164v435h59z" />
<glyph unicode="&#xda;" horiz-adv-x="694" d="M494 863l-124 -120h-45l95 120h74zM619 700v-443q0 -124 -71.5 -198t-200.5 -74t-200.5 74.5t-71.5 197.5v443h59v-435q0 -105 57.5 -164t155.5 -59q99 0 156 59t57 164v435h59z" />
<glyph unicode="&#xdb;" horiz-adv-x="694" d="M377 863l124 -120h-63l-91 86l-90 -86h-63l124 120h59zM619 700v-443q0 -124 -71.5 -198t-200.5 -74t-200.5 74.5t-71.5 197.5v443h59v-435q0 -105 57.5 -164t155.5 -59q99 0 156 59t57 164v435h59z" />
<glyph unicode="&#xdc;" horiz-adv-x="694" d="M285 840v-97h-65v97h65zM475 840v-97h-65v97h65zM619 700v-443q0 -124 -71.5 -198t-200.5 -74t-200.5 74.5t-71.5 197.5v443h59v-435q0 -105 57.5 -164t155.5 -59q99 0 156 59t57 164v435h59z" />
<glyph unicode="&#xdd;" horiz-adv-x="527" d="M410 863l-124 -120h-45l95 120h74zM519 700l-228 -431v-269h-55v269l-228 431h65l189 -370h3l189 370h65z" />
<glyph unicode="&#xde;" horiz-adv-x="546" d="M131 700v-142h170q95 0 150.5 -56t55.5 -143q0 -90 -56.5 -147.5t-152.5 -57.5h-167v-154h-53v700h53zM301 506h-170v-300h168q69 0 111 39.5t42 113.5q0 69 -41.5 108t-109.5 39z" />
<glyph unicode="&#xdf;" horiz-adv-x="530" d="M291 400q205 -13 205 -195q0 -102 -65.5 -156t-191.5 -54h-65v48h60q209 0 209 163q0 90 -61.5 128.5t-191.5 38.5v45q92 0 140 33.5t48 97.5q0 55 -33 85.5t-90 30.5q-58 0 -97 -33.5t-39 -104.5v-657h-50v657q0 86 50 137t137 51q86 0 130 -46t44 -115 q0 -60 -35.5 -100t-103.5 -52v-2z" />
<glyph unicode="&#xe0;" horiz-adv-x="573" d="M203 707l95 -154h-45l-124 154h74zM266 -15q-100 0 -166 67t-66 179t66 179t166 67q66 0 115 -29t75 -80h2v94h51v-462h-51v94h-2q-26 -51 -75 -80t-115 -29zM274 35q85 0 136.5 55t51.5 141t-51.5 141t-136.5 55q-84 0 -135.5 -55t-51.5 -141t51.5 -141t135.5 -55z" />
<glyph unicode="&#xe1;" horiz-adv-x="573" d="M422 707l-123 -154h-46l95 154h74zM266 -15q-100 0 -166 67t-66 179t66 179t166 67q66 0 115 -29t75 -80h2v94h51v-462h-51v94h-2q-26 -51 -75 -80t-115 -29zM274 35q85 0 136.5 55t51.5 141t-51.5 141t-136.5 55q-84 0 -135.5 -55t-51.5 -141t51.5 -141t135.5 -55z" />
<glyph unicode="&#xe2;" horiz-adv-x="573" d="M306 707l123 -154h-60l-93 118l-93 -118h-60l123 154h60zM266 -15q-100 0 -166 67t-66 179t66 179t166 67q66 0 115 -29t75 -80h2v94h51v-462h-51v94h-2q-26 -51 -75 -80t-115 -29zM274 35q85 0 136.5 55t51.5 141t-51.5 141t-136.5 55q-84 0 -135.5 -55t-51.5 -141 t51.5 -141t135.5 -55z" />
<glyph unicode="&#xe3;" horiz-adv-x="573" d="M203 693q29 0 84 -29.5t73 -29.5q34 0 53 47l30 -10q-26 -84 -89 -84q-29 0 -84 29t-74 29q-32 0 -53 -47l-30 10q28 85 90 85zM266 -15q-100 0 -166 67t-66 179t66 179t166 67q66 0 115 -29t75 -80h2v94h51v-462h-51v94h-2q-26 -51 -75 -80t-115 -29zM274 35 q85 0 136.5 55t51.5 141t-51.5 141t-136.5 55q-84 0 -135.5 -55t-51.5 -141t51.5 -141t135.5 -55z" />
<glyph unicode="&#xe4;" horiz-adv-x="573" d="M215 690v-112h-63v112h63zM400 690v-112h-63v112h63zM266 -15q-100 0 -166 67t-66 179t66 179t166 67q66 0 115 -29t75 -80h2v94h51v-462h-51v94h-2q-26 -51 -75 -80t-115 -29zM274 35q85 0 136.5 55t51.5 141t-51.5 141t-136.5 55q-84 0 -135.5 -55t-51.5 -141 t51.5 -141t135.5 -55z" />
<glyph unicode="&#xe5;" horiz-adv-x="573" d="M276 747q52 0 85.5 -33t33.5 -84t-33.5 -84t-85.5 -33t-85.5 33t-33.5 84t33.5 84t85.5 33zM276 715q-39 0 -62 -23.5t-23 -61.5t23 -61.5t62 -23.5t62 23.5t23 61.5t-23 61.5t-62 23.5zM266 -15q-100 0 -166 67t-66 179t66 179t166 67q66 0 115 -29t75 -80h2v94h51v-462 h-51v94h-2q-26 -51 -75 -80t-115 -29zM274 35q85 0 136.5 55t51.5 141t-51.5 141t-136.5 55q-84 0 -135.5 -55t-51.5 -141t51.5 -141t135.5 -55z" />
<glyph unicode="&#xe6;" horiz-adv-x="884" d="M213 -15q-85 0 -138.5 45.5t-53.5 122.5q0 74 52 120.5t138 46.5q127 0 175 -94h2v63q0 140 -150 140q-64 0 -153 -23l-12 50q86 21 166 21q156 0 185 -122h2q26 57 79.5 89.5t123.5 32.5q107 0 164.5 -70t57.5 -170v-11h-404q1 -85 52 -138t135 -53q42 0 77.5 16 t54 33.5t39.5 44.5l37 -32q-78 -112 -207 -112q-78 0 -135.5 38t-81.5 103h-2q-20 -67 -74 -104t-129 -37zM449 268h346q-6 74 -50.5 117t-118.5 43q-71 0 -120 -42t-57 -118zM220 32q70 0 112.5 35t42.5 86q0 54 -45.5 87t-110.5 33q-66 0 -105 -34t-39 -88t39 -86.5 t106 -32.5z" />
<glyph unicode="&#xe7;" horiz-adv-x="467" d="M440 30q-71 -42 -148 -45l-12 -30q16 -4 25.5 -8t21.5 -11.5t18 -20t6 -29.5t-8.5 -30.5t-28.5 -26t-35 -20t-47 -21.5l-10 21q46 22 66 37t20 32q0 18 -14.5 26.5t-53.5 17.5l24 64q-103 6 -166.5 73t-63.5 172q0 109 69 177.5t179 68.5q83 0 158 -45l-26 -45 q-68 40 -134 40q-86 0 -139.5 -56.5t-53.5 -139.5t53.5 -139.5t139.5 -56.5q66 0 134 40z" />
<glyph unicode="&#xe8;" horiz-adv-x="524" d="M196 707l95 -154h-45l-124 154h74zM268 477q112 0 167 -68t55 -172v-11h-405q1 -88 52.5 -139.5t135.5 -51.5q63 0 101 25.5t70 68.5l38 -32q-79 -112 -209 -112q-109 0 -174 67t-65 178q0 114 65 180.5t169 66.5zM265 428q-71 0 -120.5 -41.5t-57.5 -118.5h348 q-6 76 -49.5 118t-120.5 42z" />
<glyph unicode="&#xe9;" horiz-adv-x="524" d="M415 707l-123 -154h-46l95 154h74zM268 477q112 0 167 -68t55 -172v-11h-405q1 -88 52.5 -139.5t135.5 -51.5q63 0 101 25.5t70 68.5l38 -32q-79 -112 -209 -112q-109 0 -174 67t-65 178q0 114 65 180.5t169 66.5zM265 428q-71 0 -120.5 -41.5t-57.5 -118.5h348 q-6 76 -49.5 118t-120.5 42z" />
<glyph unicode="&#xea;" horiz-adv-x="524" d="M298 707l123 -154h-60l-93 118l-93 -118h-60l123 154h60zM268 477q112 0 167 -68t55 -172v-11h-405q1 -88 52.5 -139.5t135.5 -51.5q63 0 101 25.5t70 68.5l38 -32q-79 -112 -209 -112q-109 0 -174 67t-65 178q0 114 65 180.5t169 66.5zM265 428q-71 0 -120.5 -41.5 t-57.5 -118.5h348q-6 76 -49.5 118t-120.5 42z" />
<glyph unicode="&#xeb;" horiz-adv-x="524" d="M207 690v-112h-63v112h63zM392 690v-112h-63v112h63zM268 477q112 0 167 -68t55 -172v-11h-405q1 -88 52.5 -139.5t135.5 -51.5q63 0 101 25.5t70 68.5l38 -32q-79 -112 -209 -112q-109 0 -174 67t-65 178q0 114 65 180.5t169 66.5zM265 428q-71 0 -120.5 -41.5 t-57.5 -118.5h348q-6 76 -49.5 118t-120.5 42z" />
<glyph unicode="&#xec;" horiz-adv-x="181" d="M59 707l54 -154h-45l-70 154h61zM65 0v462h51v-462h-51z" />
<glyph unicode="&#xed;" horiz-adv-x="181" d="M68 553l55 154h60l-70 -154h-45zM65 0v462h51v-462h-51z" />
<glyph unicode="&#xee;" horiz-adv-x="181" d="M120 707l75 -154h-53l-51 121l-52 -121h-53l75 154h59zM65 0v462h51v-462h-51z" />
<glyph unicode="&#xef;" horiz-adv-x="181" d="M66 690v-112h-62v112h62zM177 690v-112h-62v112h62zM65 0v462h51v-462h-51z" />
<glyph unicode="&#xf0;" horiz-adv-x="582" d="M383 671q155 -116 155 -366q0 -87 -22 -151.5t-59.5 -100t-81 -52t-93.5 -16.5q-114 0 -181 69.5t-67 177.5q0 112 69.5 178.5t175.5 66.5q81 0 134.5 -40.5t74.5 -118.5h4q-4 216 -147 320l-104 -92l-25 26l99 87q-73 43 -174 60l11 45q121 -22 201 -72l78 69l23 -27z M283 35q85 0 137.5 51.5t52.5 137.5q0 94 -53 148.5t-139 54.5q-87 0 -140.5 -53.5t-53.5 -141.5q0 -89 55 -143t141 -54z" />
<glyph unicode="&#xf1;" horiz-adv-x="538" d="M207 693q29 0 84 -29.5t73 -29.5q34 0 53 47l30 -10q-26 -84 -89 -84q-29 0 -84 29t-74 29q-32 0 -53 -47l-30 10q28 85 90 85zM296 477q83 0 131.5 -49t48.5 -149v-279h-51v275q0 76 -37.5 113.5t-100.5 37.5q-73 0 -121 -51.5t-48 -168.5v-206h-50v462h49v-105h2 q47 120 177 120z" />
<glyph unicode="&#xf2;" d="M209 707l95 -154h-45l-124 154h74zM281 477q109 0 178.5 -69t69.5 -177t-69.5 -177t-178.5 -69q-108 0 -177.5 69t-69.5 177t69.5 177t177.5 69zM281 427q-83 0 -138.5 -54.5t-55.5 -141.5t55.5 -141.5t138.5 -54.5q84 0 139.5 54.5t55.5 141.5t-55.5 141.5t-139.5 54.5z " />
<glyph unicode="&#xf3;" d="M428 707l-123 -154h-46l95 154h74zM281 477q109 0 178.5 -69t69.5 -177t-69.5 -177t-178.5 -69q-108 0 -177.5 69t-69.5 177t69.5 177t177.5 69zM281 427q-83 0 -138.5 -54.5t-55.5 -141.5t55.5 -141.5t138.5 -54.5q84 0 139.5 54.5t55.5 141.5t-55.5 141.5t-139.5 54.5z " />
<glyph unicode="&#xf4;" d="M311 707l123 -154h-60l-93 118l-93 -118h-60l123 154h60zM281 477q109 0 178.5 -69t69.5 -177t-69.5 -177t-178.5 -69q-108 0 -177.5 69t-69.5 177t69.5 177t177.5 69zM281 427q-83 0 -138.5 -54.5t-55.5 -141.5t55.5 -141.5t138.5 -54.5q84 0 139.5 54.5t55.5 141.5 t-55.5 141.5t-139.5 54.5z" />
<glyph unicode="&#xf5;" d="M209 693q29 0 84 -29.5t73 -29.5q34 0 53 47l30 -10q-26 -84 -89 -84q-29 0 -84 29t-74 29q-32 0 -53 -47l-30 10q28 85 90 85zM281 477q109 0 178.5 -69t69.5 -177t-69.5 -177t-178.5 -69q-108 0 -177.5 69t-69.5 177t69.5 177t177.5 69zM281 427q-83 0 -138.5 -54.5 t-55.5 -141.5t55.5 -141.5t138.5 -54.5q84 0 139.5 54.5t55.5 141.5t-55.5 141.5t-139.5 54.5z" />
<glyph unicode="&#xf6;" d="M220 690v-112h-63v112h63zM405 690v-112h-63v112h63zM281 477q109 0 178.5 -69t69.5 -177t-69.5 -177t-178.5 -69q-108 0 -177.5 69t-69.5 177t69.5 177t177.5 69zM281 427q-83 0 -138.5 -54.5t-55.5 -141.5t55.5 -141.5t138.5 -54.5q84 0 139.5 54.5t55.5 141.5 t-55.5 141.5t-139.5 54.5z" />
<glyph unicode="&#xf7;" horiz-adv-x="600" d="M332 484v-73h-64v73h64zM559 315v-33h-518v33h518zM332 186v-75h-64v75h64z" />
<glyph unicode="&#xf8;" d="M458 409q71 -68 71 -178q0 -108 -69.5 -177t-178.5 -69q-86 0 -151 46l-39 -45l-23 19l39 45q-73 70 -73 181q0 108 69.5 177t177.5 69q89 0 154 -48l41 48l23 -20zM87 231q0 -86 55 -141l258 300q-49 37 -119 37q-83 0 -138.5 -54.5t-55.5 -141.5zM281 35 q84 0 139.5 54.5t55.5 141.5q0 83 -53 138l-258 -298q50 -36 116 -36z" />
<glyph unicode="&#xf9;" horiz-adv-x="526" d="M189 707l95 -154h-45l-124 154h74zM236 -15q-78 0 -125.5 49t-47.5 150v278h51v-279q0 -76 36 -112t96 -36q72 0 117 53.5t45 174.5v199h50v-462h-49v99h-2q-45 -114 -171 -114z" />
<glyph unicode="&#xfa;" horiz-adv-x="526" d="M408 707l-123 -154h-46l95 154h74zM236 -15q-78 0 -125.5 49t-47.5 150v278h51v-279q0 -76 36 -112t96 -36q72 0 117 53.5t45 174.5v199h50v-462h-49v99h-2q-45 -114 -171 -114z" />
<glyph unicode="&#xfb;" horiz-adv-x="526" d="M291 707l123 -154h-60l-93 118l-93 -118h-60l123 154h60zM236 -15q-78 0 -125.5 49t-47.5 150v278h51v-279q0 -76 36 -112t96 -36q72 0 117 53.5t45 174.5v199h50v-462h-49v99h-2q-45 -114 -171 -114z" />
<glyph unicode="&#xfc;" horiz-adv-x="526" d="M200 690v-112h-63v112h63zM385 690v-112h-63v112h63zM236 -15q-78 0 -125.5 49t-47.5 150v278h51v-279q0 -76 36 -112t96 -36q72 0 117 53.5t45 174.5v199h50v-462h-49v99h-2q-45 -114 -171 -114z" />
<glyph unicode="&#xfd;" horiz-adv-x="453" d="M374 707l-123 -154h-46l95 154h74zM387 462h57l-313 -662h-55l123 253l-190 409h59l157 -354z" />
<glyph unicode="&#xfe;" horiz-adv-x="577" d="M69 -200v900h50v-332h2q59 109 191 109q100 0 165.5 -67t65.5 -179t-65.5 -179t-165.5 -67q-132 0 -191 109h-2v-294h-50zM303 35q85 0 136 55t51 141t-51 141t-136 55q-84 0 -135.5 -55t-51.5 -141t51.5 -141t135.5 -55z" />
<glyph unicode="&#xff;" horiz-adv-x="453" d="M167 690v-112h-63v112h63zM352 690v-112h-63v112h63zM387 462h57l-313 -662h-55l123 253l-190 409h59l157 -354z" />
<glyph unicode="&#x131;" horiz-adv-x="181" d="M65 0v462h51v-462h-51z" />
<glyph unicode="&#x152;" horiz-adv-x="1143" d="M759 52h335v-52h-390v139q-48 -73 -127 -113.5t-174 -40.5q-157 0 -260.5 102.5t-103.5 262.5t103.5 262.5t260.5 102.5q95 0 173.5 -41t127.5 -113v139h383v-52h-328v-230h304v-52h-304v-314zM403 40q134 0 220 87.5t86 222.5t-86 222.5t-220 87.5q-133 0 -219.5 -87 t-86.5 -223t86.5 -223t219.5 -87z" />
<glyph unicode="&#x153;" horiz-adv-x="959" d="M704 477q111 0 166.5 -68t55.5 -170v-12h-405q1 -89 52 -140.5t135 -51.5q44 0 80 16.5t52.5 33t38.5 44.5l38 -32q-78 -112 -209 -112q-75 0 -130.5 34t-81.5 96h-2q-26 -61 -82 -95.5t-131 -34.5q-112 0 -179.5 68t-67.5 178t67.5 178t179.5 68q75 0 130.5 -34.5 t82.5 -96.5h2q25 63 80 97t128 34zM702 428q-72 0 -122 -41.5t-57 -118.5h347q-6 76 -49 118t-119 42zM280 427q-85 0 -139 -54t-54 -142t54 -142t139 -54t139 54t54 142t-54 142t-139 54z" />
<glyph unicode="&#x178;" horiz-adv-x="527" d="M201 840v-97h-65v97h65zM391 840v-97h-65v97h65zM519 700l-228 -431v-269h-55v269l-228 431h65l189 -370h3l189 370h65z" />
<glyph unicode="&#x192;" horiz-adv-x="385" d="M320 628q-106 0 -106 -125v-41h149v-30h-149v-467q0 -165 -152 -165h-42v49h43q101 0 101 111v472h-125v30h125v38q0 175 154 175h45v-47h-43z" />
<glyph unicode="&#x2c6;" horiz-adv-x="406" d="M233 707l123 -154h-60l-93 118l-93 -118h-60l123 154h60z" />
<glyph unicode="&#x2c7;" horiz-adv-x="422" d="M372 700l-131 -154h-60l-131 154h60l101 -118l100 118h61z" />
<glyph unicode="&#x2d8;" horiz-adv-x="372" d="M322 700q0 -65 -37.5 -102.5t-98.5 -37.5t-98.5 37.5t-37.5 102.5h42q2 -47 26.5 -73t67.5 -26t67.5 26t26.5 73h42z" />
<glyph unicode="&#x2d9;" horiz-adv-x="168" d="M118 690v-120h-68v120h68z" />
<glyph unicode="&#x2da;" horiz-adv-x="338" d="M169 747q52 0 85.5 -33t33.5 -84t-33.5 -84t-85.5 -33t-85.5 33t-33.5 84t33.5 84t85.5 33zM169 715q-39 0 -62 -23.5t-23 -61.5t23 -61.5t62 -23.5t62 23.5t23 61.5t-23 61.5t-62 23.5z" />
<glyph unicode="&#x2db;" horiz-adv-x="252" d="M169 26l31 -14q-104 -76 -104 -124q0 -34 48 -34q23 0 49 7l4 -39q-32 -9 -60 -9q-37 0 -62 17t-25 50q0 69 119 146z" />
<glyph unicode="&#x2dc;" horiz-adv-x="430" d="M140 693q29 0 84 -29.5t73 -29.5q34 0 53 47l30 -10q-26 -84 -89 -84q-29 0 -84 29t-74 29q-32 0 -53 -47l-30 10q28 85 90 85z" />
<glyph unicode="&#x2dd;" horiz-adv-x="356" d="M209 707l-116 -154h-43l104 154h55zM306 707l-115 -154h-44l104 154h55z" />
<glyph unicode="&#x3a9;" horiz-adv-x="789" d="M394 715q162 0 259 -95t97 -246q0 -126 -73.5 -211t-194.5 -111v-3h246v-49h-294v79q122 20 193 99.5t71 192.5q0 130 -82 212.5t-222 82.5q-139 0 -221 -83t-82 -212q0 -113 71 -192.5t192 -99.5v-79h-294v49h247v3q-121 26 -194.5 110.5t-73.5 211.5q0 151 97 246 t258 95z" />
<glyph unicode="&#x3c0;" horiz-adv-x="603" d="M573 477v-49h-113v-428h-49v428h-182l-98 -428h-50l98 428h-5q-83 0 -144 -20v49q58 20 138 20h405z" />
<glyph unicode="&#x401;" horiz-adv-x="516" d="M225 840v-97h-65v97h65zM415 840v-97h-65v97h65zM133 52h334v-52h-389v700h384v-52h-329v-230h303v-52h-303v-314z" />
<glyph unicode="&#x402;" horiz-adv-x="683" d="M463 403q98 0 147 -34.5t49 -123.5v-66q0 -90 -41 -134.5t-137 -44.5h-79v52h75q71 0 99 29.5t28 98.5v64q0 63 -35.5 85t-109.5 22q-76 0 -204 -11v-340h-55v648h-190v52h526v-52h-281v-256q143 11 208 11z" />
<glyph unicode="&#x403;" horiz-adv-x="479" d="M422 863l-124 -120h-45l95 120h74zM469 700v-52h-336v-648h-55v700h391z" />
<glyph unicode="&#x404;" horiz-adv-x="686" d="M389 40q125 0 234 74l30 -48q-118 -81 -264 -81q-159 0 -254.5 98t-95.5 267t95.5 267t254.5 98q146 0 264 -81l-30 -48q-109 74 -234 74q-123 0 -201.5 -73t-88.5 -201h361v-52h-362q5 -136 84 -215t207 -79z" />
<glyph unicode="&#x405;" horiz-adv-x="494" d="M253 715q82 0 171 -42l-26 -53q-77 40 -144 40q-61 0 -94 -26.5t-33 -71.5q0 -39 23 -66t69 -60l107 -76q63 -45 94 -89t31 -105q0 -88 -58 -134.5t-154 -46.5q-121 0 -216 63l28 51q92 -59 188 -59q76 0 115 35t39 88q0 40 -24 73.5t-80 73.5l-111 81q-53 38 -81 76 t-28 94q0 71 48 112.5t136 41.5z" />
<glyph unicode="&#x406;" horiz-adv-x="211" d="M133 700v-700h-55v700h55z" />
<glyph unicode="&#x407;" horiz-adv-x="211" d="M43 840v-97h-65v97h65zM233 840v-97h-65v97h65zM133 700v-700h-55v700h55z" />
<glyph unicode="&#x408;" horiz-adv-x="267" d="M189 700v-539q0 -86 -34 -126t-108 -40h-28v54h24q46 0 68.5 25t22.5 87v539h55z" />
<glyph unicode="&#x409;" horiz-adv-x="1047" d="M813 396q98 0 156 -53.5t58 -144.5t-58 -144.5t-156 -53.5h-232v648h-375v-487q0 -86 -34.5 -126t-108.5 -40h-44v54h40q47 0 69.5 25t22.5 87v539h485v-304h177zM803 52q81 0 123 39.5t42 106.5t-42 106.5t-123 39.5h-167v-292h167z" />
<glyph unicode="&#x40a;" horiz-adv-x="1012" d="M778 396q97 0 155.5 -53.5t58.5 -144.5t-58.5 -144.5t-155.5 -53.5h-233v344h-412v-344h-55v700h55v-304h412v304h55v-304h178zM768 52q80 0 122.5 39.5t42.5 106.5t-42.5 106.5t-122.5 39.5h-168v-292h168z" />
<glyph unicode="&#x40b;" horiz-adv-x="683" d="M492 393q86 0 126.5 -37.5t40.5 -115.5v-240h-55v240q0 54 -28.5 77.5t-89.5 23.5h-231v-341h-55v648h-190v52h245h281v-52h-281v-255h237z" />
<glyph unicode="&#x40c;" horiz-adv-x="582" d="M430 863l-124 -120h-45l95 120h74zM573 0h-84l-357 364v-364h-54v700h54v-320l318 320h80l-332 -326z" />
<glyph unicode="&#x40e;" horiz-adv-x="596" d="M301 731q-61 0 -98.5 35t-37.5 97h42q1 -44 25.5 -68.5t68.5 -24.5t68.5 24.5t25.5 68.5h42q0 -62 -37.5 -97t-98.5 -35zM528 700h61l-336 -700h-60l85 179l-270 521h65l235 -460z" />
<glyph unicode="&#x40f;" horiz-adv-x="686" d="M608 700v-700h-238v-140h-54v140h-238v700h55v-648h420v648h55z" />
<glyph unicode="&#x410;" horiz-adv-x="643" d="M575 0l-79 197h-349l-79 -197h-59l285 700h55l285 -700h-59zM168 249h307l-154 381z" />
<glyph unicode="&#x411;" horiz-adv-x="568" d="M320 396q98 0 156 -53.5t58 -144.5t-58 -144.5t-156 -53.5h-242v700h55h372v-52h-372v-252h187zM310 52q82 0 124 39.5t42 106.5t-42 106.5t-124 39.5h-177v-292h177z" />
<glyph unicode="&#x412;" horiz-adv-x="606" d="M401 373q75 -9 118 -56t43 -122q0 -93 -64 -144t-160 -51h-260v700h232q96 0 152 -45.5t56 -127.5q0 -58 -31 -98.5t-86 -53.5v-2zM298 648h-165v-255h164q161 0 161 125q0 130 -160 130zM331 52q79 0 125.5 40t46.5 107q0 65 -47.5 104t-131.5 39h-191v-290h198z" />
<glyph unicode="&#x413;" horiz-adv-x="479" d="M469 700v-52h-336v-648h-55v700h391z" />
<glyph unicode="&#x414;" horiz-adv-x="661" d="M562 49h62v-189h-53v136h-501v-136h-54v189h66q39 90 52.5 173t13.5 200v278h414v-651zM203 423q0 -118 -12.5 -201.5t-49.5 -172.5h366v599h-304v-225z" />
<glyph unicode="&#x415;" horiz-adv-x="516" d="M133 52h334v-52h-389v700h384v-52h-329v-230h303v-52h-303v-314z" />
<glyph unicode="&#x416;" horiz-adv-x="863" d="M854 0h-77l-319 361v-361h-53v361l-319 -361h-77l335 370l-291 330h76l276 -323v323h53v-323l277 323h75l-291 -330z" />
<glyph unicode="&#x417;" horiz-adv-x="587" d="M290 715q112 0 168.5 -45.5t56.5 -126.5q0 -132 -158 -167v-1q82 -7 134 -51.5t52 -137.5q0 -94 -64.5 -147.5t-194.5 -53.5q-139 0 -251 67l27 50q107 -63 225 -63q201 0 201 148q0 85 -61.5 121.5t-186.5 36.5h-84v53h83q103 0 161.5 36t58.5 105q0 57 -43.5 89.5 t-125.5 32.5q-115 0 -222 -60l-25 51q113 63 249 63z" />
<glyph unicode="&#x418;" horiz-adv-x="689" d="M78 700h55v-610h2l416 610h60v-700h-55v610h-2l-416 -610h-60v700z" />
<glyph unicode="&#x419;" horiz-adv-x="689" d="M480 863q0 -62 -37.5 -97t-98.5 -35t-98.5 35t-37.5 97h42q1 -44 25.5 -68.5t68.5 -24.5t68.5 24.5t25.5 68.5h42zM78 700h55v-610h2l416 610h60v-700h-55v610h-2l-416 -610h-60v700z" />
<glyph unicode="&#x41a;" horiz-adv-x="582" d="M573 0h-84l-357 364v-364h-54v700h54v-320l318 320h80l-332 -326z" />
<glyph unicode="&#x41b;" horiz-adv-x="707" d="M630 700v-700h-55v648h-376v-487q0 -86 -34 -126t-108 -40h-38v54h34q46 0 68.5 25t22.5 87v539h486z" />
<glyph unicode="&#x41c;" horiz-adv-x="831" d="M651 700l171 -700h-58l-142 592h-2l-182 -477h-45l-182 477h-2l-142 -592h-58l171 700h48l186 -499h2l187 499h48z" />
<glyph unicode="&#x41d;" horiz-adv-x="689" d="M556 700h55v-700h-55v348h-423v-348h-55v700h55v-299h423v299z" />
<glyph unicode="&#x41e;" horiz-adv-x="808" d="M404 715q157 0 261 -102.5t104 -262.5t-104 -262.5t-261 -102.5t-261 102.5t-104 262.5t104 262.5t261 102.5zM404 660q-134 0 -220 -87t-86 -223t86 -223t220 -87t220 87t86 223t-86 223t-220 87z" />
<glyph unicode="&#x41f;" horiz-adv-x="687" d="M609 700v-700h-55v648h-421v-648h-55v700h531z" />
<glyph unicode="&#x420;" horiz-adv-x="543" d="M311 700q94 0 149.5 -56.5t55.5 -145.5q0 -88 -55.5 -145t-149.5 -57h-178v-296h-55v700h233zM308 348q67 0 108.5 39t41.5 111t-41.5 111t-108.5 39h-175v-300h175z" />
<glyph unicode="&#x421;" horiz-adv-x="687" d="M412 -15q-169 0 -271 101t-102 264t102 264t271 101q134 0 242 -80l-34 -47q-98 72 -209 72q-140 0 -226.5 -86.5t-86.5 -223.5t86.5 -223.5t226.5 -86.5q111 0 209 72l34 -47q-108 -80 -242 -80z" />
<glyph unicode="&#x422;" horiz-adv-x="512" d="M502 700v-52h-219v-648h-55v648h-218v52h492z" />
<glyph unicode="&#x423;" horiz-adv-x="596" d="M528 700h61l-336 -700h-60l85 179l-270 521h65l235 -460z" />
<glyph unicode="&#x424;" horiz-adv-x="817" d="M436 663q161 0 251.5 -82.5t90.5 -231.5t-90 -231.5t-252 -82.5v-61h-55v61q-162 0 -252 82.5t-90 231.5t90.5 231.5t251.5 82.5v63h55v-63zM97 350q0 -124 75 -193t209 -69h2v522h-2q-134 0 -209 -67.5t-75 -192.5zM436 88q134 0 208.5 69t74.5 193q0 125 -75 192.5 t-208 67.5h-3v-522h3z" />
<glyph unicode="&#x425;" horiz-adv-x="591" d="M573 0h-65l-212 322l-213 -322h-65l244 369l-219 331h66l187 -283l186 283h66l-219 -331z" />
<glyph unicode="&#x426;" horiz-adv-x="670" d="M575 52h57v-192h-53v140h-501v700h55v-648h387v648h55v-648z" />
<glyph unicode="&#x427;" horiz-adv-x="560" d="M427 700h55v-700h-55v307h-236q-86 0 -126.5 37.5t-40.5 115.5v240h55v-240q0 -54 28.5 -77.5t89.5 -23.5h230v341z" />
<glyph unicode="&#x428;" horiz-adv-x="1019" d="M78 0v700h55v-648h349v648h55v-648h350v648h55v-700h-864z" />
<glyph unicode="&#x429;" horiz-adv-x="1036" d="M942 52h57v-192h-53v140h-868v700h55v-648h349v648h55v-648h350v648h55v-648z" />
<glyph unicode="&#x42a;" horiz-adv-x="684" d="M450 396q97 0 155.5 -53.5t58.5 -144.5t-58.5 -144.5t-155.5 -53.5h-243v648h-197v52h252v-52v-252h188zM440 52q81 0 123 39.5t42 106.5t-42 106.5t-123 39.5h-178v-292h178z" />
<glyph unicode="&#x42b;" horiz-adv-x="764" d="M320 396q98 0 156 -53.5t58 -144.5t-58 -144.5t-156 -53.5h-242v700h55v-304h187zM631 700h56v-700h-56v700zM310 52q82 0 124 39.5t42 106.5t-42 106.5t-124 39.5h-177v-292h177z" />
<glyph unicode="&#x42c;" horiz-adv-x="554" d="M320 396q98 0 156 -53.5t58 -144.5t-58 -144.5t-156 -53.5h-242v700h55v-304h187zM310 52q82 0 124 39.5t42 106.5t-42 106.5t-124 39.5h-177v-292h177z" />
<glyph unicode="&#x42d;" horiz-adv-x="686" d="M297 715q159 0 254.5 -98t95.5 -267t-95.5 -267t-254.5 -98q-146 0 -264 81l30 48q109 -74 234 -74q128 0 207.5 79t83.5 215h-362v52h361q-10 128 -88.5 201t-201.5 73q-125 0 -234 -74l-30 48q118 81 264 81z" />
<glyph unicode="&#x42e;" horiz-adv-x="1018" d="M614 715q157 0 261 -102.5t104 -262.5t-104 -262.5t-261 -102.5q-150 0 -252.5 94.5t-111.5 244.5h-117v-324h-55v700h55v-324h117q9 150 111.5 244.5t252.5 94.5zM614 40q134 0 220 87t86 223t-86 223t-220 87t-220 -87t-86 -223t86 -223t220 -87z" />
<glyph unicode="&#x42f;" horiz-adv-x="583" d="M268 700h237v-700h-55v309h-138l-211 -309h-70l215 310q-85 6 -137.5 56.5t-52.5 138.5q0 93 59.5 144t152.5 51zM272 361h178v287h-178q-74 0 -116 -38t-42 -105t42.5 -105.5t115.5 -38.5z" />
<glyph unicode="&#x430;" horiz-adv-x="573" d="M266 -15q-100 0 -166 67t-66 179t66 179t166 67q66 0 115 -29t75 -80h2v94h51v-462h-51v94h-2q-26 -51 -75 -80t-115 -29zM274 35q85 0 136.5 55t51.5 141t-51.5 141t-136.5 55q-84 0 -135.5 -55t-51.5 -141t51.5 -141t135.5 -55z" />
<glyph unicode="&#x431;" horiz-adv-x="571" d="M286 -15q-114 0 -183 74t-69 231q0 97 31.5 177t101.5 117q24 12 57 23.5t58 17.5t56 13t38 9q55 16 60 58h50q0 -78 -90 -101q-5 -1 -34.5 -7.5t-55.5 -13t-59.5 -17t-54.5 -21.5q-99 -50 -112 -215h3q25 66 84 102.5t134 36.5q104 0 170 -66.5t66 -172.5 q0 -109 -68.5 -177t-182.5 -68zM290 35q84 0 139 53t55 140q0 88 -56 140.5t-139 52.5t-139.5 -52.5t-56.5 -139.5q0 -88 56.5 -141t140.5 -53z" />
<glyph unicode="&#x432;" horiz-adv-x="494" d="M358 243q47 -6 72 -35.5t25 -75.5q0 -64 -42 -98t-108 -34h-237v462h238q65 0 101.5 -28.5t36.5 -85.5q0 -40 -23 -68.5t-63 -35.5v-1zM296 417h-178v-153h171q101 0 101 78q0 75 -94 75zM298 45q52 0 78 23.5t26 65.5q0 86 -104 86h-180v-175h180z" />
<glyph unicode="&#x433;" horiz-adv-x="365" d="M360 462v-48h-242v-414h-50v462h292z" />
<glyph unicode="&#x434;" horiz-adv-x="517" d="M447 44h51v-174h-47v126h-396v-126h-47v174h57q43 71 43 183v235h50h268h21v-418zM158 226q0 -110 -37 -182h276v371h-239v-189z" />
<glyph unicode="&#x435;" horiz-adv-x="524" d="M268 477q112 0 167 -68t55 -172v-11h-405q1 -88 52.5 -139.5t135.5 -51.5q63 0 101 25.5t70 68.5l38 -32q-79 -112 -209 -112q-109 0 -174 67t-65 178q0 114 65 180.5t169 66.5zM265 428q-71 0 -120.5 -41.5t-57.5 -118.5h348q-6 76 -49.5 118t-120.5 42z" />
<glyph unicode="&#x436;" horiz-adv-x="652" d="M643 0h-72l-220 240v-240h-50v240l-221 -240h-71l234 249l-212 213h72l198 -206v206h50v-206l198 206h72l-212 -213z" />
<glyph unicode="&#x437;" horiz-adv-x="453" d="M221 -15q-110 0 -193 44l22 46q84 -41 174 -41q143 0 143 93q0 51 -36 72.5t-113 21.5h-80v46h79q67 0 102 17.5t35 62.5q0 81 -132 81q-81 0 -160 -32l-18 46q88 35 180 35q86 0 135 -31t49 -90q0 -45 -28.5 -73.5t-82.5 -35.5v-2q122 -11 122 -122q0 -138 -198 -138z " />
<glyph unicode="&#x438;" horiz-adv-x="540" d="M68 0v462h52v-389h2l292 389h58v-462h-52v389h-2l-291 -389h-59z" />
<glyph unicode="&#x439;" horiz-adv-x="540" d="M406 640q0 -65 -37.5 -102.5t-98.5 -37.5t-98.5 37.5t-37.5 102.5h42q2 -47 26.5 -73t67.5 -26t67.5 26t26.5 73h42zM68 0v462h52v-389h2l292 389h58v-462h-52v389h-2l-291 -389h-59z" />
<glyph unicode="&#x43a;" horiz-adv-x="435" d="M426 0h-74l-234 237v-237h-50v462h50v-203l211 203h75l-229 -212z" />
<glyph unicode="&#x43b;" horiz-adv-x="535" d="M467 462v-462h-50v414h-267v-301q0 -115 -99 -115h-41v47h37q53 0 53 68v349h367z" />
<glyph unicode="&#x43c;" horiz-adv-x="647" d="M19 0l129 462h49l126 -307h2l126 307h48l130 -462h-53l-104 377h-2l-125 -296h-42l-125 296h-2l-105 -377h-52z" />
<glyph unicode="&#x43d;" horiz-adv-x="533" d="M414 462h51v-462h-51v225h-296v-225h-50v462h50v-190h296v190z" />
<glyph unicode="&#x43e;" d="M281 477q109 0 178.5 -69t69.5 -177t-69.5 -177t-178.5 -69q-108 0 -177.5 69t-69.5 177t69.5 177t177.5 69zM281 427q-83 0 -138.5 -54.5t-55.5 -141.5t55.5 -141.5t138.5 -54.5q84 0 139.5 54.5t55.5 141.5t-55.5 141.5t-139.5 54.5z" />
<glyph unicode="&#x43f;" horiz-adv-x="520" d="M453 462v-462h-51v414h-284v-414h-50v462h50h335z" />
<glyph unicode="&#x440;" horiz-adv-x="576" d="M68 -200v662h50v-94h2q59 109 191 109q100 0 166 -67t66 -179t-66 -179t-166 -67q-132 0 -191 109h-2v-294h-50zM302 35q84 0 135.5 55t51.5 141t-51.5 141t-135.5 55q-85 0 -136 -55t-51 -141t51 -141t136 -55z" />
<glyph unicode="&#x441;" horiz-adv-x="467" d="M282 -15q-110 0 -179 68.5t-69 177.5t69 177.5t179 68.5q83 0 158 -45l-26 -45q-68 40 -134 40q-86 0 -139.5 -56.5t-53.5 -139.5t53.5 -139.5t139.5 -56.5q66 0 134 40l26 -45q-75 -45 -158 -45z" />
<glyph unicode="&#x442;" horiz-adv-x="444" d="M439 462v-47h-192v-415h-51v415h-191v47h434z" />
<glyph unicode="&#x443;" horiz-adv-x="453" d="M387 462h57l-313 -662h-55l123 253l-190 409h59l157 -354z" />
<glyph unicode="&#x444;" horiz-adv-x="850" d="M400 -200v294h-2q-49 -109 -165 -109q-89 0 -141.5 66t-52.5 180t52.5 180t141.5 66q116 0 165 -109h2v307h50v-307h2q49 109 164 109q90 0 142.5 -66t52.5 -180t-52.5 -180t-142.5 -66q-115 0 -164 109h-2v-294h-50zM243 33q77 0 118 54.5t41 143.5t-41 143.5t-118 54.5 q-74 0 -112.5 -54t-38.5 -144t38.5 -144t112.5 -54zM607 33q73 0 111.5 54t38.5 144t-38.5 144t-111.5 54q-77 0 -118 -54.5t-41 -143.5t41 -143.5t118 -54.5z" />
<glyph unicode="&#x445;" horiz-adv-x="457" d="M384 0l-155 202l-156 -202h-64l189 242l-170 220h65l136 -181l136 181h64l-170 -220l189 -242h-64z" />
<glyph unicode="&#x446;" horiz-adv-x="504" d="M438 48h47v-178h-48v130h-319h-50v462h50v-414h269v414h51v-414z" />
<glyph unicode="&#x447;" horiz-adv-x="434" d="M316 462h51v-462h-51v195h-177q-120 0 -120 112v155h50v-153q0 -67 72 -67h175v220z" />
<glyph unicode="&#x448;" horiz-adv-x="795" d="M677 462h50v-462h-50h-305h-283h-21v462h50v-414h254v414h51v-414h254v414z" />
<glyph unicode="&#x449;" horiz-adv-x="793" d="M727 48h47v-178h-47v130h-304h-305h-50v462h50v-414h254v414h51v-414h254v414h50v-414z" />
<glyph unicode="&#x44a;" horiz-adv-x="579" d="M409 287q68 0 109.5 -38.5t41.5 -104.5t-41.5 -105t-109.5 -39h-221v414h-183v48h234v-175h170zM402 46q103 0 103 97t-103 97h-163v-194h163z" />
<glyph unicode="&#x44b;" horiz-adv-x="605" d="M289 287q67 0 108.5 -38.5t41.5 -104.5t-41.5 -105t-109.5 -39h-220v462h50v-175h171zM487 462h50v-462h-50v462zM282 46q103 0 103 97t-103 97h-164v-194h164z" />
<glyph unicode="&#x44c;" horiz-adv-x="459" d="M289 287q67 0 108.5 -38.5t41.5 -104.5t-41.5 -105t-109.5 -39h-220v462h50v-175h171zM282 46q103 0 103 97t-103 97h-164v-194h164z" />
<glyph unicode="&#x44d;" horiz-adv-x="470" d="M195 477q111 0 173.5 -66.5t62.5 -179.5t-62.5 -179.5t-173.5 -66.5q-93 0 -167 50l26 43q71 -43 142 -43q80 0 128 48t54 125h-221v46h221q-6 77 -54 125t-128 48q-71 0 -142 -43l-26 43q74 50 167 50z" />
<glyph unicode="&#x44e;" horiz-adv-x="725" d="M444 477q108 0 177.5 -69t69.5 -177t-69.5 -177t-177.5 -69q-103 0 -171 62t-76 161h-79v-208h-50v462h50v-208h79q8 99 76 161t171 62zM444 35q83 0 138.5 54.5t55.5 141.5t-55.5 141.5t-138.5 54.5q-84 0 -139.5 -54.5t-55.5 -141.5t55.5 -141.5t139.5 -54.5z" />
<glyph unicode="&#x44f;" horiz-adv-x="462" d="M177 462h218v-462h-51v192h-118l-144 -192h-63l147 193q-63 2 -102 37t-39 97q0 65 42 100t110 35zM183 239h161v176h-161q-51 0 -77.5 -23t-26.5 -65t26.5 -65t77.5 -23z" />
<glyph unicode="&#x451;" horiz-adv-x="524" d="M225 632v-112h-62v112h62zM374 632v-112h-63v112h63zM268 477q112 0 167 -68t55 -172v-11h-405q1 -88 52.5 -139.5t135.5 -51.5q63 0 101 25.5t70 68.5l38 -32q-79 -112 -209 -112q-109 0 -174 67t-65 178q0 114 65 180.5t169 66.5zM265 428q-71 0 -120.5 -41.5 t-57.5 -118.5h348q-6 76 -49.5 118t-120.5 42z" />
<glyph unicode="&#x452;" horiz-adv-x="540" d="M477 -80q0 -120 -110 -120h-49v48h46q63 0 63 72v80h-1v275q0 76 -36.5 113.5t-99.5 37.5q-74 0 -122.5 -52t-48.5 -168v-206h-50v576h-69v37h69v87h50v-87h160v-37h-160v-219h2q22 59 68.5 89.5t108.5 30.5q82 0 130.5 -49.5t48.5 -148.5v-359z" />
<glyph unicode="&#x453;" horiz-adv-x="365" d="M369 657l-123 -154h-46l95 154h74zM360 462v-48h-242v-414h-50v462h292z" />
<glyph unicode="&#x454;" horiz-adv-x="471" d="M274 35q71 0 142 43l27 -43q-76 -50 -168 -50q-111 0 -173.5 66.5t-62.5 179.5t62.5 179.5t173.5 66.5q92 0 168 -50l-27 -43q-71 43 -142 43q-80 0 -128 -48t-54 -125h222v-46h-222q6 -77 54 -125t128 -48z" />
<glyph unicode="&#x455;" horiz-adv-x="409" d="M216 -15q-111 0 -193 59l26 44q79 -54 169 -54q55 0 82.5 21t27.5 54q0 48 -75 83l-87 40q-103 47 -103 127q0 57 41.5 87.5t112.5 30.5q79 0 153 -37l-23 -46q-66 34 -130 34q-46 0 -73 -17t-27 -50q0 -28 19 -46.5t58 -36.5l83 -38q50 -23 77 -52.5t27 -77.5 q0 -61 -44 -93t-121 -32z" />
<glyph unicode="&#x456;" horiz-adv-x="181" d="M124 690v-120h-68v120h68zM65 0v462h51v-462h-51z" />
<glyph unicode="&#x457;" horiz-adv-x="181" d="M66 632v-112h-62v112h62zM177 632v-112h-62v112h62zM65 0v462h51v-462h-51z" />
<glyph unicode="&#x458;" horiz-adv-x="181" d="M124 690v-120h-68v120h68zM-40 -157h27q40 0 59 24.5t19 77.5v517h51v-519q0 -147 -126 -147h-30v47z" />
<glyph unicode="&#x459;" horiz-adv-x="777" d="M607 287q68 0 109.5 -38.5t41.5 -104.5t-41.5 -105t-109.5 -39h-211v414h-257v-301q0 -115 -99 -115h-30v47h26q53 0 53 68v349h357v-175h161zM600 46q103 0 103 97t-103 97h-154v-194h154z" />
<glyph unicode="&#x45a;" horiz-adv-x="785" d="M615 287q67 0 108.5 -38.5t41.5 -104.5t-41.5 -105t-108.5 -39h-211v240h-286v-240h-50v462h50v-175h286v175h50v-175h161zM608 46q104 0 104 97t-104 97h-154v-194h154z" />
<glyph unicode="&#x45b;" horiz-adv-x="540" d="M298 477q82 0 130.5 -49.5t48.5 -148.5v-279h-51v275q0 76 -36.5 113.5t-99.5 37.5q-74 0 -122.5 -52t-48.5 -168v-206h-50v576h-69v37h69v87h50v-87h160v-37h-160v-219h2q22 59 68.5 89.5t108.5 30.5z" />
<glyph unicode="&#x45c;" horiz-adv-x="435" d="M365 657l-123 -154h-46l95 154h74zM426 0h-74l-234 237v-237h-50v462h50v-203l211 203h75l-229 -212z" />
<glyph unicode="&#x45e;" horiz-adv-x="453" d="M228 500q-61 0 -98.5 37.5t-37.5 102.5h42q2 -47 26.5 -73t67.5 -26t67.5 26t26.5 73h42q0 -65 -37.5 -102.5t-98.5 -37.5zM387 462h57l-313 -662h-55l123 253l-190 409h59l157 -354z" />
<glyph unicode="&#x45f;" horiz-adv-x="521" d="M403 462h50v-462h-168v-130h-48v130h-169v462h50v-414h285v414z" />
<glyph unicode="&#x462;" horiz-adv-x="627" d="M394 396q97 0 155 -53.5t58 -144.5t-58 -144.5t-155 -53.5h-243v529h-141v49h141v122h55v-122h222v-49h-222v-133h188zM384 52q81 0 123 39.5t42 106.5t-42 106.5t-123 39.5h-178v-292h178z" />
<glyph unicode="&#x463;" horiz-adv-x="487" d="M316 287q68 0 109.5 -38.5t41.5 -104.5t-41.5 -105t-109.5 -39h-221v420h-95v42h95v238h51v-238h178v-42h-178v-133h170zM309 47q52 0 78 25.5t26 70.5q0 97 -104 97h-163v-193h163z" />
<glyph unicode="&#x472;" horiz-adv-x="808" d="M404 715q157 0 261 -102.5t104 -262.5t-104 -262.5t-261 -102.5t-261 102.5t-104 262.5t104 262.5t261 102.5zM404 660q-129 0 -214 -80.5t-93 -208.5h614q-8 128 -93.5 208.5t-213.5 80.5zM404 40q129 0 214 80.5t93 208.5h-614q7 -128 92.5 -208.5t214.5 -80.5z" />
<glyph unicode="&#x473;" d="M281 477q109 0 178.5 -69t69.5 -177t-69.5 -177t-178.5 -69q-108 0 -177.5 69t-69.5 177t69.5 177t177.5 69zM281 428q-79 0 -133.5 -49t-60.5 -129h389q-6 80 -60.5 129t-134.5 49zM281 34q80 0 134.5 49t60.5 129h-389q6 -80 60.5 -129t133.5 -49z" />
<glyph unicode="&#x474;" horiz-adv-x="653" d="M516 561l-195 -561h-54l-254 700h65l215 -618h2l171 513q21 63 51 89t85 26q14 0 38 -2v-54q-20 2 -33 2q-35 0 -53.5 -20.5t-37.5 -74.5z" />
<glyph unicode="&#x475;" horiz-adv-x="489" d="M472 471h8v-51h-10q-26 0 -42 -11t-28 -42l-151 -367h-51l-189 462h59l156 -400l129 330q18 45 44 62t75 17z" />
<glyph unicode="&#x48e;" horiz-adv-x="543" d="M516 498q0 -60 -27 -107t-76 -72l64 -87l-25 -19l-69 93q-37 -10 -72 -10h-178v-296h-55v700h233q94 0 149.5 -56.5t55.5 -145.5zM308 348q24 0 41 4l-78 105l26 19l84 -113q77 36 77 135q0 72 -41.5 111t-108.5 39h-175v-300h175z" />
<glyph unicode="&#x48f;" horiz-adv-x="576" d="M543 231q0 -132 -91 -201l67 -82l-23 -19l-70 84q-51 -28 -115 -28q-132 0 -191 109h-2v-294h-50v662h50v-94h2q59 109 191 109q100 0 166 -67t66 -179zM302 35q51 0 90 21l-68 83l22 19l71 -86q72 53 72 159q0 86 -51.5 141t-135.5 55q-85 0 -136 -55t-51 -141t51 -141 t136 -55z" />
<glyph unicode="&#x490;" horiz-adv-x="491" d="M426 840h55v-193h-348v-647h-55v700h348v140z" />
<glyph unicode="&#x491;" horiz-adv-x="377" d="M324 573h48v-159h-254v-414h-50v462h256v111z" />
<glyph unicode="&#x492;" horiz-adv-x="514" d="M504 648h-336v-264h225v-48h-225v-336h-55v336h-103v48h103v316h391v-52z" />
<glyph unicode="&#x493;" horiz-adv-x="403" d="M398 414h-242v-153h157v-48h-157v-213h-51v213h-82v48h82v201h293v-48z" />
<glyph unicode="&#x494;" horiz-adv-x="577" d="M357 398q98 0 147 -34t49 -124v-246q0 -194 -183 -194h-54v52h53q69 0 99 35.5t30 107.5v245q0 62 -35.5 84t-109.5 22q-95 0 -220 -12v-334h-55v700h391v-52h-336v-262q132 12 224 12z" />
<glyph unicode="&#x495;" horiz-adv-x="470" d="M286 255q76 0 113 -34.5t37 -109.5v-152q0 -159 -153 -159h-52v49h47q52 0 80 25.5t28 86.5v147q0 100 -103 100q-74 0 -165 -15v-193h-50v462h317v-48h-267v-173q96 14 168 14z" />
<glyph unicode="&#x496;" horiz-adv-x="884" d="M822 36h39v-176h-53v140h-31l-319 361v-361h-53v361l-319 -361h-77l335 370l-291 330h76l276 -323v323h53v-323l277 323h75l-291 -330z" />
<glyph unicode="&#x497;" horiz-adv-x="675" d="M616 29h40v-159h-47v130h-38l-220 240v-240h-50v240l-221 -240h-71l234 249l-212 213h72l198 -206v206h50v-206l198 206h72l-212 -213z" />
<glyph unicode="&#x498;" horiz-adv-x="587" d="M543 186q0 -89 -58 -142t-175 -58l-12 -31q16 -4 25.5 -8t21.5 -11.5t18 -20t6 -29.5t-8.5 -30.5t-28.5 -26t-35 -20t-47 -21.5l-10 21q46 22 66 37t20 32q0 18 -14.5 26.5t-53.5 17.5l24 63q-136 1 -249 67l27 50q107 -63 225 -63q201 0 201 148q0 85 -61.5 121.5 t-186.5 36.5h-84v53h83q103 0 161.5 36t58.5 105q0 57 -43.5 89.5t-125.5 32.5q-115 0 -222 -60l-25 51q113 63 249 63q112 0 168.5 -45.5t56.5 -126.5q0 -132 -158 -167v-1q82 -7 134 -51.5t52 -137.5z" />
<glyph unicode="&#x499;" horiz-adv-x="453" d="M419 123q0 -132 -184 -138l-12 -30q16 -4 25.5 -8t21.5 -11.5t18 -20t6 -29.5t-8.5 -30.5t-28.5 -26t-35 -20t-47 -21.5l-10 21q46 22 66 37t20 32q0 18 -14.5 26.5t-53.5 17.5l24 63q-98 2 -179 44l22 46q84 -41 174 -41q143 0 143 93q0 51 -36 72.5t-113 21.5h-80v46 h79q67 0 102 17.5t35 62.5q0 81 -132 81q-81 0 -160 -32l-18 46q88 35 180 35q86 0 135 -31t49 -90q0 -45 -28.5 -73.5t-82.5 -35.5v-2q122 -11 122 -122z" />
<glyph unicode="&#x49a;" horiz-adv-x="596" d="M537 36h36v-176h-53v140h-31l-357 364v-364h-54v700h54v-320l318 320h80l-332 -326z" />
<glyph unicode="&#x49b;" horiz-adv-x="452" d="M397 29h36v-159h-47v130h-34l-234 237v-237h-50v462h50v-203l211 203h75l-229 -212z" />
<glyph unicode="&#x49c;" horiz-adv-x="662" d="M570 0l-309 350h-38v-146h-33v146h-58v-350h-54v700h54v-299h58v163h33v-163h44l261 299h77l-291 -326l339 -374h-83z" />
<glyph unicode="&#x49d;" horiz-adv-x="472" d="M392 0l-185 230h-23v-132h-28v132h-38v-230h-50v462h50v-194h38v129h28v-129h24l173 194h69l-195 -212l208 -250h-71z" />
<glyph unicode="&#x49e;" horiz-adv-x="635" d="M626 0h-83l-357 364v-364h-55v564h-121v41h121v95h55v-95h132v-41h-132v-184l318 320h80l-333 -326z" />
<glyph unicode="&#x49f;" horiz-adv-x="439" d="M430 0h-75l-236 240v-240h-50v576h-69v37h69v87h50v-87h160v-37h-160v-320l214 206h74l-228 -212z" />
<glyph unicode="&#x4a0;" horiz-adv-x="710" d="M701 0h-84l-357 364v-364h-54v648h-196v52h232h18v-320l319 320h79l-332 -326z" />
<glyph unicode="&#x4a1;" horiz-adv-x="555" d="M547 0h-75l-233 237v-237h-51v414h-183v48h218h16v-203l210 203h75l-228 -212z" />
<glyph unicode="&#x4a2;" horiz-adv-x="664" d="M611 36h30v-176h-53v140h-32v348h-423v-348h-55v700h55v-299h423v299h55v-664z" />
<glyph unicode="&#x4a3;" horiz-adv-x="518" d="M465 29h34v-159h-47v130h-38v225h-296v-225h-50v462h50v-190h296v190h51v-433z" />
<glyph unicode="&#x4a4;" horiz-adv-x="903" d="M893 700v-52h-302v-648h-55v348h-403v-348h-55v700h55v-299h403v299h357z" />
<glyph unicode="&#x4a5;" horiz-adv-x="674" d="M669 462v-48h-224v-414h-51v225h-276v-225h-50v462h50v-190h276v190h275z" />
<glyph unicode="&#x4a6;" horiz-adv-x="1036" d="M816 403q98 0 147 -34.5t49 -123.5v-66q0 -91 -41 -135t-137 -44h-61v52h59q70 0 97.5 29.5t27.5 98.5v64q0 62 -35.5 84.5t-108.5 22.5q-77 0 -204 -11v-340h-55v648h-421v-648h-55v700h531v-308q141 11 207 11z" />
<glyph unicode="&#x4a7;" horiz-adv-x="804" d="M627 273q143 0 143 -144v-169q0 -160 -148 -160h-53v49h47q104 0 104 113v164q0 100 -103 100q-74 0 -164 -15v-211h-51v414h-284v-414h-50v462h50h322h13v-203q110 14 174 14z" />
<glyph unicode="&#x4a8;" horiz-adv-x="763" d="M749 18q-59 -33 -124 -33q-64 0 -115 27q-51 -27 -131 -27q-147 0 -238.5 103t-91.5 267q0 162 92 261t244 99q62 0 119 -21l-20 -51q-57 17 -101 17q-123 0 -199 -86t-76 -223q0 -138 76.5 -226.5t199.5 -88.5q40 0 74 9q-58 42 -90 113t-32 157q0 108 48.5 172 t135.5 64q85 0 132 -61.5t47 -165.5q0 -91 -34.5 -164t-100.5 -117q28 -9 60 -9q53 0 102 30zM393 312q0 -82 32 -146.5t87 -99.5q63 34 97.5 99.5t34.5 152.5q0 83 -33 130.5t-91 47.5q-60 0 -93.5 -50t-33.5 -134z" />
<glyph unicode="&#x4a9;" horiz-adv-x="547" d="M520 50l18 -41q-52 -24 -102 -24q-49 0 -83 18q-29 -18 -85 -18q-104 0 -169 63t-65 179t67 183t181 67q52 0 99 -15l-17 -46q-36 12 -80 12q-89 0 -143 -53t-54 -147q0 -91 49.5 -143.5t133.5 -52.5q15 0 22 1q-69 51 -69 152q0 73 37 113t100 40q65 0 99.5 -39.5 t34.5 -106.5q0 -107 -85 -163q8 -1 25 -1q44 0 86 22zM274 183q0 -99 75 -136q45 18 70.5 55.5t25.5 87.5q0 44 -21 72.5t-63 28.5q-39 0 -63 -26.5t-24 -81.5z" />
<glyph unicode="&#x4aa;" horiz-adv-x="687" d="M654 65q-109 -80 -239 -80l-12 -30q16 -4 25.5 -8t21.5 -11.5t18 -20t6 -29.5t-8.5 -30.5t-28.5 -26t-35 -20t-47 -21.5l-10 21q46 22 66 37t20 32q0 18 -14.5 26.5t-53.5 17.5l24 64q-158 7 -253 107t-95 257q0 163 102 264t271 101q134 0 242 -80l-34 -47 q-98 72 -209 72q-140 0 -226.5 -86.5t-86.5 -223.5t86.5 -223.5t226.5 -86.5q111 0 209 72z" />
<glyph unicode="&#x4ab;" horiz-adv-x="467" d="M440 30q-71 -42 -148 -45l-12 -30q16 -4 25.5 -8t21.5 -11.5t18 -20t6 -29.5t-8.5 -30.5t-28.5 -26t-35 -20t-47 -21.5l-10 21q46 22 66 37t20 32q0 18 -14.5 26.5t-53.5 17.5l24 64q-103 6 -166.5 73t-63.5 172q0 109 69 177.5t179 68.5q83 0 158 -45l-26 -45 q-68 40 -134 40q-86 0 -139.5 -56.5t-53.5 -139.5t53.5 -139.5t139.5 -56.5q66 0 134 40z" />
<glyph unicode="&#x4ac;" horiz-adv-x="512" d="M502 648h-219v-612h35v-176h-53v140h-37v648h-218v52h492v-52z" />
<glyph unicode="&#x4ad;" horiz-adv-x="444" d="M439 415h-192v-386h35v-159h-48v130h-38v415h-191v47h434v-47z" />
<glyph unicode="&#x4ae;" horiz-adv-x="527" d="M519 700l-228 -431v-269h-55v269l-228 431h65l189 -370h3l189 370h65z" />
<glyph unicode="&#x4af;" horiz-adv-x="448" d="M439 462l-190 -459v-203h-51v203l-189 459h59l156 -400l156 400h59z" />
<glyph unicode="&#x4b0;" horiz-adv-x="527" d="M519 700l-221 -419l130 1v-47l-137 -1v-234h-55v234h-137v47h130l-221 419h65l189 -370h3l189 370h65z" />
<glyph unicode="&#x4b1;" horiz-adv-x="448" d="M439 462l-189 -457h137v-44h-138v-161h-51v161h-130v44h130l-189 457h59l156 -400l156 400h59z" />
<glyph unicode="&#x4b2;" horiz-adv-x="615" d="M549 36h44v-176h-54v140h-31l-212 322l-213 -322h-65l244 369l-219 331h66l187 -283l186 283h66l-219 -331z" />
<glyph unicode="&#x4b3;" horiz-adv-x="479" d="M426 29h40v-159h-47v130h-35l-155 202l-156 -202h-64l189 242l-170 220h65l136 -181l136 181h64l-170 -220z" />
<glyph unicode="&#x4b4;" horiz-adv-x="843" d="M748 52h57v-192h-53v140h-501v648h-241v52h296h196v-52h-196v-596h387v648h55v-648z" />
<glyph unicode="&#x4b5;" horiz-adv-x="630" d="M564 48h47v-178h-47v130h-319h-51v414h-189v48h240h145v-48h-145v-366h268v414h51v-414z" />
<glyph unicode="&#x4b6;" horiz-adv-x="548" d="M482 36h43v-176h-53v140h-45v307h-236q-86 0 -126.5 37.5t-40.5 115.5v240h55v-240q0 -54 28.5 -77.5t89.5 -23.5h230v341h55v-664z" />
<glyph unicode="&#x4b7;" horiz-adv-x="419" d="M367 27h33v-159h-48v132h-36v195h-177q-120 0 -120 112v155h50v-153q0 -67 72 -67h175v220h51v-435z" />
<glyph unicode="&#x4b8;" horiz-adv-x="560" d="M427 700h55v-700h-55v307h-142v-160h-34v160h-60q-86 0 -126.5 37.5t-40.5 115.5v240h55v-240q0 -54 28.5 -77.5t89.5 -23.5h54v148h34v-148h142v341z" />
<glyph unicode="&#x4b9;" horiz-adv-x="434" d="M316 462h51v-462h-51v195h-85v-99h-29v99h-63q-120 0 -120 112v155h50v-153q0 -67 72 -67h61v108h29v-108h85v220z" />
<glyph unicode="&#x4ba;" horiz-adv-x="560" d="M369 393q87 0 127 -37.5t40 -115.5v-240h-55v240q0 54 -28.5 77.5t-89.5 23.5h-230v-341h-55v700h55v-307h236z" />
<glyph unicode="&#x4bb;" horiz-adv-x="540" d="M119 700v-343h2q22 59 68.5 89.5t108.5 30.5q82 0 130.5 -49.5t48.5 -148.5v-279h-51v275q0 76 -36.5 113.5t-99.5 37.5q-74 0 -122.5 -52t-48.5 -168v-206h-50v700h50z" />
<glyph unicode="&#x4bc;" horiz-adv-x="931" d="M536 715q161 0 258.5 -98t97.5 -262v-29h-59h-606q8 -131 95 -208.5t221 -77.5q169 0 268 119l37 -41q-115 -133 -305 -133q-157 0 -261.5 93t-113.5 248h-27q-59 0 -92.5 29.5t-33.5 86.5q0 34 9 65h54q-10 -31 -10 -58q0 -70 78 -70h22q9 150 109.5 243t258.5 93z M536 660q-135 0 -218 -77.5t-91 -203.5h606q-7 131 -86.5 206t-210.5 75z" />
<glyph unicode="&#x4bd;" horiz-adv-x="609" d="M576 237v-11h-405q1 -88 52 -139.5t135 -51.5q44 0 80 16.5t53 33.5t38 44l38 -32q-77 -112 -208 -112q-108 0 -173 66t-67 175h-8q-91 0 -91 83q0 22 9 51h43q-8 -26 -8 -47q0 -45 48 -45h9q11 98 74.5 153.5t157.5 55.5q112 0 167.5 -68t55.5 -172zM173 268h347 q-6 76 -49 118t-120 42q-71 0 -121 -41.5t-57 -118.5z" />
<glyph unicode="&#x4be;" horiz-adv-x="931" d="M536 715q161 0 258.5 -98t97.5 -262v-29h-59h-606q8 -131 95 -208.5t221 -77.5q169 0 268 119l37 -41q-64 -75 -160 -109q-100 -75 -100 -121q0 -34 48 -34q23 0 49 7l4 -39q-32 -9 -60 -9q-37 0 -62 17t-25 50q0 52 70 110q-37 -5 -69 -5q-157 0 -261.5 93t-113.5 248 h-27q-59 0 -92.5 29.5t-33.5 86.5q0 34 9 65h54q-10 -31 -10 -58q0 -70 78 -70h22q9 150 109.5 243t258.5 93zM536 660q-135 0 -218 -77.5t-91 -203.5h606q-7 131 -86.5 206t-210.5 75z" />
<glyph unicode="&#x4bf;" horiz-adv-x="609" d="M576 237v-11h-405q1 -88 52 -139.5t135 -51.5q44 0 80 16.5t53 33.5t38 44l38 -32q-41 -59 -96 -88q-101 -73 -101 -121q0 -34 48 -34q23 0 49 7l4 -39q-32 -9 -60 -9q-37 0 -62 17t-25 50q0 50 65 107q-18 -2 -30 -2q-108 0 -173 66t-67 175h-8q-91 0 -91 83q0 22 9 51 h43q-8 -26 -8 -47q0 -45 48 -45h9q11 98 74.5 153.5t157.5 55.5q112 0 167.5 -68t55.5 -172zM173 268h347q-6 76 -49 118t-120 42q-71 0 -121 -41.5t-57 -118.5z" />
<glyph unicode="&#x4c0;" horiz-adv-x="211" d="M133 700v-700h-55v700h55z" />
<glyph unicode="&#x4c1;" horiz-adv-x="863" d="M432 731q-61 0 -98.5 35t-37.5 97h42q1 -44 25.5 -68.5t68.5 -24.5t68.5 24.5t25.5 68.5h42q0 -62 -37.5 -97t-98.5 -35zM854 0h-77l-319 361v-361h-53v361l-319 -361h-77l335 370l-291 330h76l276 -323v323h53v-323l277 323h75l-291 -330z" />
<glyph unicode="&#x4c2;" horiz-adv-x="652" d="M326 500q-61 0 -98.5 37.5t-37.5 102.5h42q2 -47 26.5 -73t67.5 -26t67.5 26t26.5 73h42q0 -65 -37.5 -102.5t-98.5 -37.5zM643 0h-72l-220 240v-240h-50v240l-221 -240h-71l234 249l-212 213h72l198 -206v206h50v-206l198 206h72l-212 -213z" />
<glyph unicode="&#x4c3;" horiz-adv-x="569" d="M351 378q98 0 146 -34t48 -124v-226q0 -194 -183 -194h-54v52h54q69 0 98.5 35.5t29.5 107.5v222q0 64 -35.5 86.5t-108.5 22.5q-81 0 -213 -13v-313h-55v700h55v-337h2l315 337h80l-322 -330q100 8 143 8z" />
<glyph unicode="&#x4c4;" horiz-adv-x="448" d="M270 248q159 0 159 -139v-150q0 -159 -153 -159h-52v49h47q52 0 80 25.5t28 86.5v145q0 95 -118 95q-67 0 -143 -10v-191h-50v462h50v-220l213 220h75l-228 -221q46 7 92 7z" />
<glyph unicode="&#x4c5;" horiz-adv-x="712" d="M630 51h46l-77 -181h-52l52 130h-24v648h-376v-487q0 -86 -34 -126t-108 -40h-38v54h34q46 0 68.5 25t22.5 87v539h486v-649z" />
<glyph unicode="&#x4c6;" horiz-adv-x="536" d="M467 51h45l-78 -181h-52l52 130h-17v414h-267v-301q0 -115 -99 -115h-41v47h37q53 0 53 68v349h50h317v-411z" />
<glyph unicode="&#x4c7;" horiz-adv-x="689" d="M611 0h1v-72q0 -60 -29.5 -94t-86.5 -34h-61v52h58q64 0 64 77v71h-1v348h-423v-348h-55v700h55v-299h423v299h55v-700z" />
<glyph unicode="&#x4c8;" horiz-adv-x="533" d="M465 -80q0 -120 -110 -120h-49v48h46q63 0 63 72v80h-1v225h-296v-225h-50v462h50v-190h296v190h51v-542z" />
<glyph unicode="&#x4c9;" horiz-adv-x="696" d="M611 51h50l-78 -181h-52l52 130h-27v348h-423v-348h-55v700h55v-299h423v299h55v-649z" />
<glyph unicode="&#x4ca;" horiz-adv-x="539" d="M465 51h50l-78 -181h-51l52 130h-24v225h-296v-225h-50v462h50v-190h296v190h51v-411z" />
<glyph unicode="&#x4cb;" horiz-adv-x="560" d="M482 700v-700h-44v-140h-53v176h42v271h-236q-86 0 -126.5 37.5t-40.5 115.5v240h55v-240q0 -54 28.5 -77.5t89.5 -23.5h230v341h55z" />
<glyph unicode="&#x4cc;" horiz-adv-x="434" d="M367 462v-462h-38v-130h-47v159h34v166h-177q-120 0 -120 112v155h50v-153q0 -67 72 -67h175v220h51z" />
<glyph unicode="&#x4cd;" horiz-adv-x="867" d="M810 51h48l-78 -181h-52l52 130h-16l-142 592h-2l-182 -477h-45l-182 477h-2l-142 -592h-58l171 700h48l186 -499h2l187 499h48z" />
<glyph unicode="&#x4ce;" horiz-adv-x="669" d="M614 51h53l-77 -181h-52l52 130h-14l-104 377h-2l-125 -296h-42l-125 296h-2l-105 -377h-52l129 462h49l126 -307h2l126 307h48z" />
<glyph unicode="&#x4cf;" horiz-adv-x="181" d="M65 0v462h51v-462h-51z" />
<glyph unicode="&#x4d0;" horiz-adv-x="643" d="M321 731q-61 0 -98.5 35t-37.5 97h42q1 -44 25.5 -68.5t68.5 -24.5t68.5 24.5t25.5 68.5h42q0 -62 -37.5 -97t-98.5 -35zM575 0l-79 197h-349l-79 -197h-59l285 700h55l285 -700h-59zM168 249h307l-154 381z" />
<glyph unicode="&#x4d1;" horiz-adv-x="573" d="M412 640q0 -65 -37.5 -102.5t-98.5 -37.5t-98.5 37.5t-37.5 102.5h42q2 -47 26.5 -73t67.5 -26t67.5 26t26.5 73h42zM266 -15q-100 0 -166 67t-66 179t66 179t166 67q66 0 115 -29t75 -80h2v94h51v-462h-51v94h-2q-26 -51 -75 -80t-115 -29zM274 35q85 0 136.5 55 t51.5 141t-51.5 141t-136.5 55q-84 0 -135.5 -55t-51.5 -141t51.5 -141t135.5 -55z" />
<glyph unicode="&#x4d2;" horiz-adv-x="643" d="M259 840v-97h-65v97h65zM449 840v-97h-65v97h65zM575 0l-79 197h-349l-79 -197h-59l285 700h55l285 -700h-59zM168 249h307l-154 381z" />
<glyph unicode="&#x4d3;" horiz-adv-x="573" d="M232 632v-112h-62v112h62zM381 632v-112h-63v112h63zM266 -15q-100 0 -166 67t-66 179t66 179t166 67q66 0 115 -29t75 -80h2v94h51v-462h-51v94h-2q-26 -51 -75 -80t-115 -29zM274 35q85 0 136.5 55t51.5 141t-51.5 141t-136.5 55q-84 0 -135.5 -55t-51.5 -141 t51.5 -141t135.5 -55z" />
<glyph unicode="&#x4d4;" horiz-adv-x="922" d="M572 52h301v-52h-335h-20v197h-305l-134 -197h-70l482 700h81h296v-52h-296v-230h270v-52h-270v-314zM248 249h270v395z" />
<glyph unicode="&#x4d5;" horiz-adv-x="884" d="M213 -15q-85 0 -138.5 45.5t-53.5 122.5q0 74 52 120.5t138 46.5q127 0 175 -94h2v63q0 140 -150 140q-64 0 -153 -23l-12 50q86 21 166 21q156 0 185 -122h2q26 57 79.5 89.5t123.5 32.5q107 0 164.5 -70t57.5 -170v-11h-404q1 -85 52 -138t135 -53q42 0 77.5 16 t54 33.5t39.5 44.5l37 -32q-78 -112 -207 -112q-78 0 -135.5 38t-81.5 103h-2q-20 -67 -74 -104t-129 -37zM449 268h346q-6 74 -50.5 117t-118.5 43q-71 0 -120 -42t-57 -118zM220 32q70 0 112.5 35t42.5 86q0 54 -45.5 87t-110.5 33q-66 0 -105 -34t-39 -88t39 -86.5 t106 -32.5z" />
<glyph unicode="&#x4d6;" horiz-adv-x="516" d="M288 731q-61 0 -98.5 35t-37.5 97h42q1 -44 25.5 -68.5t68.5 -24.5t68.5 24.5t25.5 68.5h42q0 -62 -37.5 -97t-98.5 -35zM133 52h334v-52h-389v700h384v-52h-329v-230h303v-52h-303v-314z" />
<glyph unicode="&#x4d7;" horiz-adv-x="524" d="M404 640q0 -65 -37.5 -102.5t-98.5 -37.5t-98.5 37.5t-37.5 102.5h42q2 -47 26.5 -73t67.5 -26t67.5 26t26.5 73h42zM268 477q112 0 167 -68t55 -172v-11h-405q1 -88 52.5 -139.5t135.5 -51.5q63 0 101 25.5t70 68.5l38 -32q-79 -112 -209 -112q-109 0 -174 67t-65 178 q0 114 65 180.5t169 66.5zM265 428q-71 0 -120.5 -41.5t-57.5 -118.5h348q-6 76 -49.5 118t-120.5 42z" />
<glyph unicode="&#x4d8;" horiz-adv-x="802" d="M388 715q169 0 272 -99t103 -267q0 -164 -99 -264t-263 -100q-165 0 -263.5 98.5t-98.5 261.5v29h58h607q-8 131 -92.5 208.5t-223.5 77.5q-84 0 -154 -31t-115 -85l-36 43q115 128 305 128zM401 40q134 0 214.5 76t88.5 205h-606q7 -130 87.5 -205.5t215.5 -75.5z" />
<glyph unicode="&#x4d9;" horiz-adv-x="524" d="M256 -15q-112 0 -167 68t-55 172v11h405q-1 88 -52.5 139.5t-135.5 51.5q-63 0 -101 -25.5t-70 -68.5l-38 32q79 112 209 112q109 0 174 -67t65 -178q0 -114 -65 -180.5t-169 -66.5zM259 34q71 0 120.5 41.5t57.5 118.5h-348q6 -76 49.5 -118t120.5 -42z" />
<glyph unicode="&#x4da;" horiz-adv-x="802" d="M339 840v-97h-65v97h65zM529 840v-97h-65v97h65zM388 715q169 0 272 -99t103 -267q0 -164 -99 -264t-263 -100q-165 0 -263.5 98.5t-98.5 261.5v29h58h607q-8 131 -92.5 208.5t-223.5 77.5q-84 0 -154 -31t-115 -85l-36 43q115 128 305 128zM401 40q134 0 214.5 76 t88.5 205h-606q7 -130 87.5 -205.5t215.5 -75.5z" />
<glyph unicode="&#x4db;" horiz-adv-x="524" d="M225 632v-112h-62v112h62zM374 632v-112h-63v112h63zM256 -15q-112 0 -167 68t-55 172v11h405q-1 88 -52.5 139.5t-135.5 51.5q-63 0 -101 -25.5t-70 -68.5l-38 32q79 112 209 112q109 0 174 -67t65 -178q0 -114 -65 -180.5t-169 -66.5zM259 34q71 0 120.5 41.5 t57.5 118.5h-348q6 -76 49.5 -118t120.5 -42z" />
<glyph unicode="&#x4dc;" horiz-adv-x="863" d="M369 840v-97h-65v97h65zM559 840v-97h-65v97h65zM854 0h-77l-319 361v-361h-53v361l-319 -361h-77l335 370l-291 330h76l276 -323v323h53v-323l277 323h75l-291 -330z" />
<glyph unicode="&#x4dd;" horiz-adv-x="652" d="M283 632v-112h-62v112h62zM432 632v-112h-63v112h63zM643 0h-72l-220 240v-240h-50v240l-221 -240h-71l234 249l-212 213h72l198 -206v206h50v-206l198 206h72l-212 -213z" />
<glyph unicode="&#x4de;" horiz-adv-x="587" d="M231 840v-97h-65v97h65zM421 840v-97h-65v97h65zM290 715q112 0 168.5 -45.5t56.5 -126.5q0 -132 -158 -167v-1q82 -7 134 -51.5t52 -137.5q0 -94 -64.5 -147.5t-194.5 -53.5q-139 0 -251 67l27 50q107 -63 225 -63q201 0 201 148q0 85 -61.5 121.5t-186.5 36.5h-84v53 h83q103 0 161.5 36t58.5 105q0 57 -43.5 89.5t-125.5 32.5q-115 0 -222 -60l-25 51q113 63 249 63z" />
<glyph unicode="&#x4df;" horiz-adv-x="453" d="M178 632v-112h-62v112h62zM327 632v-112h-63v112h63zM221 -15q-110 0 -193 44l22 46q84 -41 174 -41q143 0 143 93q0 51 -36 72.5t-113 21.5h-80v46h79q67 0 102 17.5t35 62.5q0 81 -132 81q-81 0 -160 -32l-18 46q88 35 180 35q86 0 135 -31t49 -90q0 -45 -28.5 -73.5 t-82.5 -35.5v-2q122 -11 122 -122q0 -138 -198 -138z" />
<glyph unicode="&#x4e0;" horiz-adv-x="555" d="M262 -15q-134 0 -244 64l28 51q96 -60 213 -60q190 0 190 159q0 87 -58 124t-176 37h-63v50l257 238h-343v52h420v-51l-268 -245q25 5 46 5q45 0 85 -9.5t77 -31.5t59 -65t22 -103q0 -99 -60.5 -157t-184.5 -58z" />
<glyph unicode="&#x4e1;" horiz-adv-x="467" d="M207 -215q-117 0 -218 54l24 47q96 -51 197 -51q83 0 129 39.5t46 118.5q0 81 -50.5 116.5t-147.5 35.5h-97v47l250 222h-310v48h375v-51l-253 -223q54 3 56 3q108 0 169.5 -49t61.5 -148q0 -96 -58 -152.5t-174 -56.5z" />
<glyph unicode="&#x4e2;" horiz-adv-x="689" d="M480 825v-43h-275v43h275zM78 700h55v-610h2l416 610h60v-700h-55v610h-2l-416 -610h-60v700z" />
<glyph unicode="&#x4e3;" horiz-adv-x="540" d="M407 580v-43h-275v43h275zM68 0v462h52v-389h2l292 389h58v-462h-52v389h-2l-291 -389h-59z" />
<glyph unicode="&#x4e4;" horiz-adv-x="689" d="M281 840v-97h-65v97h65zM471 840v-97h-65v97h65zM78 700h55v-610h2l416 610h60v-700h-55v610h-2l-416 -610h-60v700z" />
<glyph unicode="&#x4e5;" horiz-adv-x="540" d="M227 632v-112h-62v112h62zM376 632v-112h-63v112h63zM68 0v462h52v-389h2l292 389h58v-462h-52v389h-2l-291 -389h-59z" />
<glyph unicode="&#x4e6;" horiz-adv-x="808" d="M342 840v-97h-65v97h65zM532 840v-97h-65v97h65zM404 715q157 0 261 -102.5t104 -262.5t-104 -262.5t-261 -102.5t-261 102.5t-104 262.5t104 262.5t261 102.5zM404 660q-134 0 -220 -87t-86 -223t86 -223t220 -87t220 87t86 223t-86 223t-220 87z" />
<glyph unicode="&#x4e7;" d="M238 632v-112h-62v112h62zM387 632v-112h-63v112h63zM281 477q109 0 178.5 -69t69.5 -177t-69.5 -177t-178.5 -69q-108 0 -177.5 69t-69.5 177t69.5 177t177.5 69zM281 427q-83 0 -138.5 -54.5t-55.5 -141.5t55.5 -141.5t138.5 -54.5q84 0 139.5 54.5t55.5 141.5 t-55.5 141.5t-139.5 54.5z" />
<glyph unicode="&#x4e8;" horiz-adv-x="808" d="M404 715q157 0 261 -102.5t104 -262.5t-104 -262.5t-261 -102.5t-261 102.5t-104 262.5t104 262.5t261 102.5zM404 660q-129 0 -214 -80.5t-93 -208.5h614q-8 128 -93.5 208.5t-213.5 80.5zM404 40q129 0 214 80.5t93 208.5h-614q7 -128 92.5 -208.5t214.5 -80.5z" />
<glyph unicode="&#x4e9;" d="M281 477q109 0 178.5 -69t69.5 -177t-69.5 -177t-178.5 -69q-108 0 -177.5 69t-69.5 177t69.5 177t177.5 69zM281 428q-79 0 -133.5 -49t-60.5 -129h389q-6 80 -60.5 129t-134.5 49zM281 34q80 0 134.5 49t60.5 129h-389q6 -80 60.5 -129t133.5 -49z" />
<glyph unicode="&#x4ea;" horiz-adv-x="808" d="M342 840v-97h-65v97h65zM532 840v-97h-65v97h65zM404 715q157 0 261 -102.5t104 -262.5t-104 -262.5t-261 -102.5t-261 102.5t-104 262.5t104 262.5t261 102.5zM404 660q-129 0 -214 -80.5t-93 -208.5h614q-8 128 -93.5 208.5t-213.5 80.5zM404 40q129 0 214 80.5 t93 208.5h-614q7 -128 92.5 -208.5t214.5 -80.5z" />
<glyph unicode="&#x4eb;" d="M240 632v-112h-62v112h62zM389 632v-112h-63v112h63zM281 477q109 0 178.5 -69t69.5 -177t-69.5 -177t-178.5 -69q-108 0 -177.5 69t-69.5 177t69.5 177t177.5 69zM281 428q-79 0 -133.5 -49t-60.5 -129h389q-6 80 -60.5 129t-134.5 49zM281 34q80 0 134.5 49t60.5 129 h-389q6 -80 60.5 -129t133.5 -49z" />
<glyph unicode="&#x4ec;" horiz-adv-x="686" d="M243 840v-97h-65v97h65zM433 840v-97h-65v97h65zM297 715q159 0 254.5 -98t95.5 -267t-95.5 -267t-254.5 -98q-146 0 -264 81l30 48q109 -74 234 -74q128 0 207.5 79t83.5 215h-362v52h361q-10 128 -88.5 201t-201.5 73q-125 0 -234 -74l-30 48q118 81 264 81z" />
<glyph unicode="&#x4ed;" horiz-adv-x="470" d="M166 632v-112h-62v112h62zM315 632v-112h-63v112h63zM195 477q111 0 173.5 -66.5t62.5 -179.5t-62.5 -179.5t-173.5 -66.5q-93 0 -167 50l26 43q71 -43 142 -43q80 0 128 48t54 125h-221v46h221q-6 77 -54 125t-128 48q-71 0 -142 -43l-26 43q74 50 167 50z" />
<glyph unicode="&#x4ee;" horiz-adv-x="596" d="M438 825v-43h-275v43h275zM528 700h61l-336 -700h-60l85 179l-270 521h65l235 -460z" />
<glyph unicode="&#x4ef;" horiz-adv-x="453" d="M365 580v-43h-275v43h275zM387 462h57l-313 -662h-55l123 253l-190 409h59l157 -354z" />
<glyph unicode="&#x4f0;" horiz-adv-x="596" d="M239 840v-97h-65v97h65zM429 840v-97h-65v97h65zM528 700h61l-336 -700h-60l85 179l-270 521h65l235 -460z" />
<glyph unicode="&#x4f1;" horiz-adv-x="453" d="M185 632v-112h-62v112h62zM334 632v-112h-63v112h63zM387 462h57l-313 -662h-55l123 253l-190 409h59l157 -354z" />
<glyph unicode="&#x4f2;" horiz-adv-x="596" d="M380 863l-104 -120h-43l92 120h55zM372 743h-43l91 120h55zM528 700h61l-336 -700h-60l85 179l-270 521h65l235 -460z" />
<glyph unicode="&#x4f3;" horiz-adv-x="453" d="M322 657l-116 -154h-43l104 154h55zM304 503h-44l104 154h55zM387 462h57l-313 -662h-55l123 253l-190 409h59l157 -354z" />
<glyph unicode="&#x4f4;" horiz-adv-x="560" d="M191 840v-97h-65v97h65zM381 840v-97h-65v97h65zM427 700h55v-700h-55v307h-236q-86 0 -126.5 37.5t-40.5 115.5v240h55v-240q0 -54 28.5 -77.5t89.5 -23.5h230v341z" />
<glyph unicode="&#x4f5;" horiz-adv-x="434" d="M149 632v-112h-62v112h62zM298 632v-112h-63v112h63zM316 462h51v-462h-51v195h-177q-120 0 -120 112v155h50v-153q0 -67 72 -67h175v220z" />
<glyph unicode="&#x4f8;" horiz-adv-x="764" d="M329 840v-97h-65v97h65zM519 840v-97h-65v97h65zM320 396q98 0 156 -53.5t58 -144.5t-58 -144.5t-156 -53.5h-242v700h55v-304h187zM631 700h56v-700h-56v700zM310 52q82 0 124 39.5t42 106.5t-42 106.5t-124 39.5h-177v-292h177z" />
<glyph unicode="&#x4f9;" horiz-adv-x="605" d="M265 632v-112h-62v112h62zM414 632v-112h-63v112h63zM289 287q67 0 108.5 -38.5t41.5 -104.5t-41.5 -105t-109.5 -39h-220v462h50v-175h171zM487 462h50v-462h-50v462zM282 46q103 0 103 97t-103 97h-164v-194h164z" />
<glyph unicode="&#x4fc;" horiz-adv-x="605" d="M511 99q24 -35 37.5 -58t26 -58t12.5 -65q0 -58 -37 -88t-103 -30h-46v52h47q83 0 83 69q0 24 -13.5 55.5t-25.5 50t-43 65.5l-153 230l-213 -322h-65l244 369l-219 331h66l187 -283l186 283h66l-219 -330z" />
<glyph unicode="&#x4fd;" horiz-adv-x="452" d="M294 -200v48h46q62 0 62 72q0 30 -15.5 61.5t-56.5 85.5l-103 135l-156 -202h-62l188 242l-169 220h63l136 -181l137 181h63l-170 -220l125 -159q38 -49 54.5 -86t16.5 -80q0 -56 -28 -86.5t-83 -30.5h-48z" />
<glyph unicode="&#x2013;" horiz-adv-x="752" d="M702 298v-49h-652v49h652z" />
<glyph unicode="&#x2014;" horiz-adv-x="1154" d="M1104 298v-48h-1054v48h1054z" />
<glyph unicode="&#x2018;" horiz-adv-x="159" d="M124 739l-54 -143h41v-81h-81v81l66 143h28z" />
<glyph unicode="&#x2019;" horiz-adv-x="159" d="M48 715h81v-80l-66 -144h-28l54 144h-41v80z" />
<glyph unicode="&#x201a;" horiz-adv-x="159" d="M48 81h81v-81l-66 -143h-28l54 143h-41v81z" />
<glyph unicode="&#x201c;" horiz-adv-x="274" d="M96 739h28l-54 -143h41v-81h-81v81zM239 739l-54 -143h41v-81h-81v81l66 143h28z" />
<glyph unicode="&#x201d;" horiz-adv-x="274" d="M48 635v80h81v-80l-66 -144h-28l54 144h-41zM164 715h80v-80l-66 -144h-28l54 144h-40v80z" />
<glyph unicode="&#x201e;" horiz-adv-x="274" d="M48 0v81h81v-81l-66 -143h-28l54 143h-41zM164 81h80v-81l-66 -143h-28l54 143h-40v81z" />
<glyph unicode="&#x2020;" horiz-adv-x="491" d="M441 473v-46h-171v-520h-49v520h-171v46h171v227h49v-227h171z" />
<glyph unicode="&#x2021;" horiz-adv-x="490" d="M440 429h-170v-247h170v-46h-170v-229h-50v229h-170v46h170v247h-170v46h170v225h50v-225h170v-46z" />
<glyph unicode="&#x2022;" horiz-adv-x="305" d="M152 469q37 0 62.5 -25t25.5 -62t-25.5 -62t-62.5 -25t-62 25t-25 62t25 62t62 25z" />
<glyph unicode="&#x2026;" horiz-adv-x="671" d="M144 89v-89h-89v89h89zM380 89v-89h-89v89h89zM616 89v-89h-89v89h89z" />
<glyph unicode="&#x2030;" horiz-adv-x="1104" d="M206 690q68 0 112 -44t44 -112t-44 -112t-112 -44t-112 44t-44 112t44 112t112 44zM146 0l395 675h41l-395 -675h-41zM206 651q-52 0 -83 -32t-31 -85t31 -85t83 -32t83.5 32t31.5 85t-31.5 85t-83.5 32zM540 307q68 0 112 -44t44 -112t-44 -112t-112 -44t-112 44 t-44 112t44 112t112 44zM898 307q68 0 112 -44t44 -112t-44 -112t-112 -44t-112 44t-44 112t44 112t112 44zM540 268q-52 0 -83 -32t-31 -85t31 -85t83 -32t83.5 32t31.5 85t-31.5 85t-83.5 32zM898 268q-52 0 -83.5 -32t-31.5 -85t31.5 -85t83.5 -32t83 32t31 85t-31 85 t-83 32z" />
<glyph unicode="&#x2039;" horiz-adv-x="232" d="M222 385l-143 -151l143 -151h-63l-139 151l139 151h63z" />
<glyph unicode="&#x203a;" horiz-adv-x="232" d="M10 385h63l139 -151l-139 -151h-63l142 151z" />
<glyph unicode="&#x2044;" horiz-adv-x="96" d="M-170 0l395 675h41l-395 -675h-41z" />
<glyph unicode="&#x20ac;" horiz-adv-x="657" d="M433 641q-99 0 -165 -63.5t-82 -175.5h338l-15 -30h-326q-2 -24 -2 -36q0 -16 1 -23h301l-15 -30h-284q11 -119 73 -183.5t172 -64.5q83 0 161 40v-55q-71 -34 -163 -34q-138 0 -211 81t-85 216h-126l15 30h109q-1 8 -1 25q0 6 0.5 17t0.5 17h-119l15 30h107 q16 129 94 208.5t207 79.5q104 0 196 -55l-25 -45q-81 51 -171 51z" />
<glyph unicode="&#x2122;" horiz-adv-x="832" d="M328 662h-129v-383h-40v383h-129v38h298v-38zM704 700l98 -421h-42l-81 345l-107 -281h-35l-108 281l-81 -345h-42l98 421h40l110 -294l111 294h39z" />
<glyph unicode="&#x2202;" horiz-adv-x="562" d="M229 715q135 0 214 -96.5t79 -279.5q0 -73 -14 -134.5t-42.5 -112t-78.5 -79t-117 -28.5q-108 0 -169 64t-61 165q0 110 65 173.5t167 63.5q125 0 201 -98q-3 144 -66.5 228t-177.5 84q-82 0 -146 -41l-23 47q84 44 169 44zM271 34q39 0 71 14t54 37.5t38 56t24.5 67.5 t11.5 75q-26 47 -77 82.5t-119 35.5q-81 0 -131.5 -52.5t-50.5 -136.5q0 -79 49.5 -129t129.5 -50z" />
<glyph unicode="&#x220f;" horiz-adv-x="710" d="M690 700v-49h-142v-729h-49v729h-287v-729h-49v729h-143v49h670z" />
<glyph unicode="&#x2211;" horiz-adv-x="551" d="M511 700v-49h-408l298 -356l-298 -356h408v-49h-471v51l295 354l-295 354v51h471z" />
<glyph unicode="&#x221a;" horiz-adv-x="576" d="M506 715h50l-241 -715h-48l-165 414h-82v48h116l153 -395z" />
<glyph unicode="&#x221e;" horiz-adv-x="760" d="M581 450q71 0 115 -41.5t44 -111.5t-44 -111.5t-115 -41.5q-41 0 -80 20.5t-63 43.5t-58 64q-35 -41 -58 -64t-62 -43.5t-81 -20.5q-71 0 -115 41.5t-44 111.5t44 111.5t115 41.5q42 0 81 -20.5t62 -43.5t58 -64q34 41 58 64t63 43.5t80 20.5zM179 418q-55 0 -90 -33.5 t-35 -87.5t35 -87.5t90 -33.5q36 0 70 19t56 41t54 61q-32 39 -54 61t-56 41t-70 19zM581 418q-35 0 -69.5 -19t-56 -41t-54.5 -61q33 -39 54.5 -61t56 -41t69.5 -19q55 0 90 33.5t35 87.5t-35 87.5t-90 33.5z" />
<glyph unicode="&#x222b;" horiz-adv-x="380" d="M340 715v-47q-126 0 -126 -142v-556q0 -90 -45 -137.5t-129 -47.5v47q61 1 92.5 34.5t31.5 107.5v556q0 90 45 137.5t131 47.5z" />
<glyph unicode="&#x2248;" horiz-adv-x="600" d="M172 445q36 0 131 -35t124 -35q52 0 74 64h34q-26 -99 -107 -99q-38 0 -132.5 35t-122.5 35q-52 0 -74 -64h-34q13 50 41.5 74.5t65.5 24.5zM172 288q36 0 131 -35t124 -35q52 0 74 64h34q-26 -99 -107 -99q-38 0 -132 34.5t-123 34.5q-52 0 -74 -63h-34q13 50 41.5 74.5 t65.5 24.5z" />
<glyph unicode="&#x2260;" horiz-adv-x="600" d="M553 368h-196l-81 -138h277v-33h-296l-62 -106h-32l62 106h-178v33h197l80 138h-277v32h296l62 106h33l-62 -106h177v-32z" />
<glyph unicode="&#x2264;" horiz-adv-x="600" d="M514 489v-35l-383 -109l383 -109v-35l-435 127v34zM521 158v-33h-442v33h442z" />
<glyph unicode="&#x2265;" horiz-adv-x="600" d="M86 489l435 -127v-34l-435 -127v35l383 109l-383 109v35zM79 158h442v-33h-442v33z" />
<glyph unicode="&#x25ca;" horiz-adv-x="584" d="M316 715l248 -365l-248 -365h-48l-248 365l248 365h48zM292 662l-213 -312l213 -312l213 312z" />
<glyph unicode="&#x25fc;" horiz-adv-x="460" d="M0 460h460v-460h-460v460z" />
<glyph unicode="&#xf8ff;" horiz-adv-x="865" d="M50 676q0 16 10.5 26t26.5 10q15 0 26 -10.5t11 -25.5q0 -24 -18 -34v-24q103 42 173 42q45 0 76 -21.5t31 -61.5v-25q55 12 104 12q57 0 96.5 -19t39.5 -64v-48q48 12 81 12q55 0 81.5 -21.5t26.5 -57.5v-240q-52 32 -107 32q-25 0 -63.5 -10t-56.5 -10q-51 0 -51 46v86 q-23 5 -47 5t-73 -9t-67 -9q-54 0 -54 46v68h-14q-62 0 -176 -44v-327h-39v643q-17 11 -17 33zM357 577q0 28 -22.5 41.5t-54.5 13.5q-63 0 -174 -45v-230q110 42 175 42q45 0 76 -14v192zM312 580l-65 -95v-68h-30v68l-65 95h38l42 -64l42 64h38zM598 474q0 11 -2.5 18.5 t-11 19t-32.5 18t-60 6.5q-45 0 -106 -12v-171q0 -18 -32 -29t-32 -25t27 -14q17 0 65 8.5t76 8.5q63 0 108 -25v197zM400 414q0 35 22.5 58t57.5 23t57.5 -23t22.5 -58t-22.5 -58t-57.5 -23t-57.5 23t-22.5 58zM530 414q0 23 -14 37.5t-36 14.5t-36 -14.5t-14 -37.5 t14 -37.5t36 -14.5t36 14.5t14 37.5zM788 365q0 51 -80 51q-34 0 -82 -12v-167q0 -12 -9.5 -20t-21.5 -11.5t-21.5 -9.5t-9.5 -15q0 -16 25 -16q14 0 53.5 10.5t64.5 10.5q39 0 81 -15v194zM709 373l-10 -100h-16l-10 100h36zM356 352q0 11 -32 16v-32q5 3 13.5 5.5 t13.5 4.5t5 6zM598 240q0 13 -34 24v-47q5 3 12 6.5t11.5 5t7.5 4.5t3 7zM671 231q0 19 20 19t20 -19q0 -20 -20 -20t-20 20z" />
</font>
</defs>
</svg>
