<?xml version="1.0" standalone="no"?>
<!DOCTYPE svg PUBLIC "-//W3C//DTD SVG 1.1//EN" "http://www.w3.org/Graphics/SVG/1.1/DTD/svg11.dtd" >
<svg xmlns="http://www.w3.org/2000/svg" xmlns:xlink="http://www.w3.org/1999/xlink" version="1.1">
<metadata></metadata>
<defs>
<font id="gt_eesti_pro_displayultrabold" horiz-adv-x="604" >
<font-face units-per-em="1000" ascent="750" descent="-250" />
<missing-glyph horiz-adv-x="250" />
<glyph unicode="&#xfb01;" horiz-adv-x="663" d="M97 465q0 132 60 188.5t189 56.5h42v-171h-19q-49 0 -68 -15.5t-19 -59.5v-2h103v-152h-103v-310h-185v310h-87v152h87v3zM436 700h189v-173h-189v173zM438 0v462h185v-462h-185z" />
<glyph unicode="&#xfb02;" horiz-adv-x="663" d="M97 465q0 132 60 188.5t189 56.5h42v-171h-19q-49 0 -68 -15.5t-19 -59.5v-2h103v-152h-103v-310h-185v310h-87v152h87v3zM438 700h185v-700h-185v700z" />
<glyph horiz-adv-x="0" />
<glyph horiz-adv-x="333" />
<glyph horiz-adv-x="0" />
<glyph horiz-adv-x="0" />
<glyph unicode=" "  horiz-adv-x="250" />
<glyph unicode="&#x09;" horiz-adv-x="250" />
<glyph unicode="&#xa0;" horiz-adv-x="250" />
<glyph unicode="!" horiz-adv-x="350" d="M108 241l-38 459h210l-38 -459h-134zM268 188v-188h-186v188h186z" />
<glyph unicode="&#x22;" horiz-adv-x="400" d="M73 462l-23 253h129l-23 -253h-83zM244 462l-23 253h129l-23 -253h-83z" />
<glyph unicode="#" horiz-adv-x="633" d="M593 429h-111l-26 -142h93v-90h-109l-36 -197h-95l36 197h-115l-36 -197h-95l36 197h-95v90h111l26 142h-93v90h109l33 181h95l-33 -181h115l33 181h95l-33 -181h95v-90zM361 287l26 142h-115l-26 -142h115z" />
<glyph unicode="$" horiz-adv-x="583" d="M548 204q0 -98 -64 -156.5t-171 -62.5v-62h-28v62q-120 4 -185 70.5t-65 173.5h170q8 -75 80 -81v121q-94 34 -123 51q-98 57 -98 170q0 96 62 147t159 53v72h28v-72q100 -5 157.5 -61.5t57.5 -165.5h-170q-3 59 -45 66v-101q8 -3 32 -10.5t35 -11.5t34 -13t35.5 -17.5 t30.5 -21t28 -27t20.5 -32.5t15 -41t4.5 -50zM236 487q0 -29 49 -49v91q-49 -3 -49 -42zM313 148q63 4 63 47q0 37 -63 63v-110z" />
<glyph unicode="%" horiz-adv-x="814" d="M219 690q75 0 122 -45.5t47 -119.5t-47 -119.5t-122 -45.5t-122 45.5t-47 119.5t47 119.5t122 45.5zM158 0l398 675h90l-398 -675h-90zM219 603q-34 0 -56 -21.5t-22 -56.5t22 -56.5t56 -21.5t56 21.5t22 56.5t-22 56.5t-56 21.5zM595 325q75 0 122 -45.5t47 -119.5 t-47 -119.5t-122 -45.5t-122 45.5t-47 119.5t47 119.5t122 45.5zM595 238q-34 0 -56 -21.5t-22 -56.5t22 -56.5t56 -21.5t56 21.5t22 56.5t-22 56.5t-56 21.5z" />
<glyph unicode="&#x26;" horiz-adv-x="748" d="M733 309q-82 -115 -120 -161l113 -148h-217l-24 31q-79 -46 -177 -46q-126 0 -207 66.5t-81 181.5q0 78 40.5 136t112.5 81q-15 40 -15 82q0 79 50.5 118.5t141.5 39.5q78 0 194 -31l-45 -157q-80 25 -111 25q-30 0 -30 -28q0 -18 15 -37l127 -166q16 19 87 115zM297 165 q39 0 72 16l-104 133q-32 -5 -49.5 -25t-17.5 -47q0 -34 26 -55.5t73 -21.5z" />
<glyph unicode="'" horiz-adv-x="239" d="M189 715l-23 -253h-93l-23 253h139z" />
<glyph unicode="(" horiz-adv-x="348" d="M199 800l127 -70q-34 -57 -55.5 -99t-45.5 -130.5t-24 -181.5q0 -228 127 -465l-128 -69q-32 59 -52.5 104.5t-44.5 114t-36 147.5t-12 168q0 81 11.5 152t35.5 132.5t44 100.5t53 96z" />
<glyph unicode=")" horiz-adv-x="348" d="M148 -215l-128 69q127 237 127 465q0 93 -24 181.5t-45.5 130.5t-55.5 99l127 70q33 -57 53 -96t44 -100.5t35.5 -132.5t11.5 -152q0 -89 -12 -168t-36 -147.5t-44.5 -114t-52.5 -104.5z" />
<glyph unicode="*" horiz-adv-x="453" d="M423 529l-123 -23l85 -91l-98 -73l-61 110l-60 -109l-98 72l85 91l-123 24l38 114l113 -52l-15 123h122l-15 -124l112 53z" />
<glyph unicode="+" horiz-adv-x="600" d="M339 541v-206h206v-75h-206v-206h-78v206h-206v75h206v206h78z" />
<glyph unicode="," horiz-adv-x="256" d="M221 188v-188l-113 -177h-73l63 177h-63v188h186z" />
<glyph unicode="-" horiz-adv-x="431" d="M396 346v-160h-361v160h361z" />
<glyph unicode="." horiz-adv-x="256" d="M221 188v-188h-186v188h186z" />
<glyph unicode="/" horiz-adv-x="637" d="M493 797l124 -67l-473 -870l-124 67z" />
<glyph unicode="0" horiz-adv-x="632" d="M316 690q136 0 213.5 -92.5t77.5 -259.5t-77.5 -260t-213.5 -93t-213.5 93t-77.5 260t77.5 259.5t213.5 92.5zM316 513q-51 0 -77 -41t-26 -134t26 -134.5t77 -41.5t77 41.5t26 134.5t-26 134t-77 41z" />
<glyph unicode="1" horiz-adv-x="326" d="M246 675v-675h-180v500h-21v175h201z" />
<glyph unicode="2" horiz-adv-x="566" d="M39 0v154l217 196q28 26 40.5 38t26.5 35.5t14 45.5q0 55 -59 55q-34 0 -51.5 -20t-16.5 -51h-185q0 103 63 170t196 67q117 0 183.5 -54.5t66.5 -150.5q0 -64 -31 -115.5t-95 -104.5l-115 -95h248v-170h-502z" />
<glyph unicode="3" horiz-adv-x="565" d="M276 690q120 0 188 -47.5t68 -131.5q0 -119 -135 -156v-2q71 -7 109.5 -50.5t38.5 -114.5q0 -96 -68.5 -149.5t-190.5 -53.5q-281 0 -281 236h186q2 -73 84 -73q36 0 56 16.5t20 46.5q0 34 -25.5 47.5t-89.5 13.5h-26v143h26q55 0 79 14.5t24 48.5q0 26 -18 40.5 t-50 14.5q-71 0 -76 -61h-176q0 105 66.5 161.5t190.5 56.5z" />
<glyph unicode="4" horiz-adv-x="593" d="M573 258v-152h-64v-106h-172v106h-327v135l321 434h178v-417h64zM191 258h146v198h-4z" />
<glyph unicode="5" horiz-adv-x="562" d="M471 675v-170h-243l-9 -88h3q46 31 108 31q89 0 150.5 -55t61.5 -161q0 -112 -72.5 -179.5t-206.5 -67.5q-144 0 -248 73l86 154q77 -56 157 -56q47 0 71.5 21.5t24.5 57.5q0 35 -23 57t-61 22q-59 0 -85 -43h-133l36 404h383z" />
<glyph unicode="6" horiz-adv-x="564" d="M290 -15q-125 0 -200 68.5t-75 195.5q0 81 28 146t92 143l113 137h227l-236 -253l3 -2q38 33 105 33q84 0 145.5 -59t61.5 -162t-66 -175t-198 -72zM285 144q40 0 63.5 22.5t23.5 59.5t-23.5 59.5t-63.5 22.5t-63.5 -22.5t-23.5 -59.5t23.5 -59.5t63.5 -22.5z" />
<glyph unicode="7" horiz-adv-x="483" d="M473 675v-166l-258 -509h-200l261 498h-271v177h468z" />
<glyph unicode="8" horiz-adv-x="590" d="M295 -15q-132 0 -201 51.5t-69 145.5q0 67 33.5 109t92.5 53v2q-50 14 -77.5 53.5t-27.5 97.5q0 91 65.5 142t183.5 51t183.5 -51t65.5 -142q0 -58 -27.5 -97.5t-77.5 -53.5v-2q59 -11 92.5 -53t33.5 -109q0 -94 -69 -145.5t-201 -51.5zM295 424q29 0 47.5 17t18.5 46 t-18.5 46t-47.5 17t-47.5 -17t-18.5 -46t18.5 -46t47.5 -17zM295 131q39 0 61 21t22 53t-22 54t-61 22t-61 -22t-22 -54t22 -53t61 -21z" />
<glyph unicode="9" horiz-adv-x="566" d="M281 690q121 0 195.5 -68.5t74.5 -197.5q0 -80 -33 -152t-108 -152l-112 -120h-226l233 229l-2 2q-40 -29 -84 -29q-86 0 -147.5 69t-61.5 170q0 107 72 178t199 71zM280 521q-40 0 -63.5 -22.5t-23.5 -59.5t23.5 -59.5t63.5 -22.5t63.5 22.5t23.5 59.5t-23.5 59.5 t-63.5 22.5z" />
<glyph unicode=":" horiz-adv-x="256" d="M221 462v-188h-186v188h186zM221 188v-188h-186v188h186z" />
<glyph unicode=";" horiz-adv-x="256" d="M221 462v-188h-186v188h186zM221 188v-188l-113 -177h-73l63 177h-63v188h186z" />
<glyph unicode="&#x3c;" horiz-adv-x="600" d="M540 556v-89l-391 -167l391 -167v-89l-480 214v84z" />
<glyph unicode="=" horiz-adv-x="600" d="M553 451v-76h-506v76h506zM553 224v-76h-506v76h506z" />
<glyph unicode="&#x3e;" horiz-adv-x="600" d="M60 556l480 -214v-84l-480 -214v89l391 167l-391 167v89z" />
<glyph unicode="?" horiz-adv-x="507" d="M266 715q112 0 164 -52t52 -128q0 -83 -72 -154q-5 -5 -18 -17.5t-18.5 -18t-14.5 -17.5t-13 -21.5t-7.5 -24.5t-3.5 -31v-10h-183v29q0 101 78 162q2 1 10 7.5t10 8t9 7t9.5 8.5t7.5 8t7 9t4.5 9.5t3.5 10.5t1 11q0 37 -39 37q-48 0 -48 -60h-175q0 103 59 165t177 62z M336 188v-188h-186v188h186z" />
<glyph unicode="@" horiz-adv-x="948" d="M485 690q195 0 311.5 -102t116.5 -280q0 -65 -20 -121.5t-68 -97t-117 -40.5q-103 0 -134 87h-2q-25 -43 -56 -64t-77 -21q-82 0 -135.5 55.5t-53.5 161.5q0 107 54 163t134 56t124 -65h3v50h132v-277q0 -41 35 -41q24 0 46 44t22 108q0 136 -87.5 206.5t-226.5 70.5 q-149 0 -243.5 -81t-94.5 -234q0 -152 97 -234t239 -82q70 0 152 22l31 -103q-93 -26 -184 -26q-88 0 -166.5 25.5t-142.5 75t-101.5 132t-37.5 187.5q0 198 123 311.5t327 113.5zM481 344q-30 0 -51.5 -19.5t-21.5 -55.5t21.5 -55.5t51.5 -19.5q31 0 52 19.5t21 55.5 t-21 55.5t-52 19.5z" />
<glyph unicode="A" horiz-adv-x="745" d="M535 0l-43 131h-239l-43 -131h-210l271 700h203l271 -700h-210zM301 281h143l-71 219z" />
<glyph unicode="B" horiz-adv-x="641" d="M471 368q145 -25 145 -169q0 -104 -69 -151.5t-183 -47.5h-309v700h308q225 0 225 -175q0 -115 -117 -155v-2zM331 543h-86v-120h86q75 0 75 62q0 58 -75 58zM333 157q90 0 90 68q0 66 -90 66h-88v-134h88z" />
<glyph unicode="C" horiz-adv-x="664" d="M400 -15q-168 0 -276.5 98t-108.5 267t108.5 267t276.5 98q148 0 259 -77l-100 -163q-77 53 -153 53q-81 0 -136 -47t-55 -131t55 -131t136 -47q76 0 153 53l100 -163q-111 -77 -259 -77z" />
<glyph unicode="D" horiz-adv-x="690" d="M294 700q178 0 279.5 -93.5t101.5 -256.5t-102 -256.5t-279 -93.5h-239v700h239zM295 530h-50v-360h50q83 0 131.5 46t48.5 134t-48.5 134t-131.5 46z" />
<glyph unicode="E" horiz-adv-x="546" d="M245 174h271v-174h-461v700h446v-174h-256v-83h225v-165h-225v-104z" />
<glyph unicode="F" horiz-adv-x="532" d="M527 526h-282v-108h231v-170h-231v-248h-190v700h472v-174z" />
<glyph unicode="G" horiz-adv-x="751" d="M733 415q3 -40 3 -76q0 -159 -89 -256.5t-252 -97.5q-171 0 -275.5 101.5t-104.5 264.5q0 161 103.5 262.5t286.5 101.5q156 0 280 -90l-116 -156q-76 64 -170 64q-85 0 -134.5 -50.5t-49.5 -132.5q0 -80 49 -131.5t140 -51.5q64 0 99.5 24.5t41.5 63.5h-173v160h361z " />
<glyph unicode="H" horiz-adv-x="729" d="M484 700h190v-700h-190v272h-239v-272h-190v700h190v-254h239v254z" />
<glyph unicode="I" horiz-adv-x="300" d="M245 700v-700h-190v700h190z" />
<glyph unicode="J" horiz-adv-x="324" d="M269 700v-520q0 -95 -49 -139t-151 -44h-59v174h38q12 0 21.5 10t9.5 22v497h190z" />
<glyph unicode="K" horiz-adv-x="774" d="M774 0h-264l-265 324v-324h-190v700h190v-308l236 308h246l-275 -333z" />
<glyph unicode="L" horiz-adv-x="514" d="M245 700v-526h264v-174h-454v700h190z" />
<glyph unicode="M" horiz-adv-x="939" d="M742 700l197 -700h-193l-98 349h-2l-114 -254h-125l-114 254h-2l-98 -349h-193l197 700h141l131 -305h1l131 305h141z" />
<glyph unicode="N" horiz-adv-x="780" d="M725 700v-700h-148l-330 376h-2v-376h-190v700h148l330 -376h2v376h190z" />
<glyph unicode="O" horiz-adv-x="776" d="M388 715q159 0 266 -101.5t107 -263.5t-107 -263.5t-266 -101.5t-266 101.5t-107 263.5t107 263.5t266 101.5zM388 525q-76 0 -124.5 -47.5t-48.5 -127.5t48.5 -127.5t124.5 -47.5t124.5 47.5t48.5 127.5t-48.5 127.5t-124.5 47.5z" />
<glyph unicode="P" horiz-adv-x="617" d="M328 700q143 0 213.5 -67.5t70.5 -179.5t-70.5 -179.5t-213.5 -67.5h-83v-206h-190v700h273zM323 374q43 0 68 20t25 59t-25 59t-68 20h-78v-158h78z" />
<glyph unicode="Q" horiz-adv-x="802" d="M822 0h-186l-41 41q-92 -56 -207 -56q-159 0 -266 101.5t-107 263.5t107 263.5t266 101.5t266 -101.5t107 -263.5q0 -127 -69 -220zM388 175q34 0 63 10l-120 119h186l30 -30q14 34 14 76q0 80 -48.5 127.5t-124.5 47.5t-124.5 -47.5t-48.5 -127.5t48.5 -127.5 t124.5 -47.5z" />
<glyph unicode="R" horiz-adv-x="667" d="M662 0h-237l-180 260v-260h-190v700h299q131 0 197.5 -66t66.5 -164q0 -73 -38 -129t-112 -81zM328 532h-83v-150h83q93 0 93 76q0 74 -93 74z" />
<glyph unicode="S" horiz-adv-x="596" d="M322 715q118 0 239 -59l-82 -169q-85 56 -171 56q-43 0 -43 -26q0 -19 37 -38l144 -74q63 -32 96.5 -77t33.5 -121q0 -108 -70.5 -165t-204.5 -57q-154 0 -296 79l87 182q121 -86 219 -86q59 0 59 31q0 20 -34 37l-153 77q-124 63 -124 198q0 97 67.5 154.5t195.5 57.5z " />
<glyph unicode="T" horiz-adv-x="550" d="M545 700v-174h-175v-526h-190v526h-175v174h540z" />
<glyph unicode="U" horiz-adv-x="716" d="M666 291q0 -143 -76 -223t-232 -80t-232 80t-76 223v409h203v-404q0 -118 105 -118t105 118v404h203v-409z" />
<glyph unicode="V" horiz-adv-x="753" d="M753 700l-272 -700h-209l-272 700h225l150 -472h3l150 472h225z" />
<glyph unicode="W" horiz-adv-x="1128" d="M1123 700l-252 -700h-158l-148 403h-2l-148 -403h-158l-252 700h223l112 -383h2l142 383h160l142 -383h2l112 383h223z" />
<glyph unicode="X" horiz-adv-x="800" d="M800 0h-240l-160 222l-160 -222h-240l275 372l-249 328h240l134 -180l134 180h240l-249 -328z" />
<glyph unicode="Y" horiz-adv-x="733" d="M733 700l-271 -464v-236h-191v234l-271 466h227l138 -281h3l138 281h227z" />
<glyph unicode="Z" horiz-adv-x="596" d="M255 174h321v-174h-556v174l303 352h-275v174h505v-174z" />
<glyph unicode="[" horiz-adv-x="360" d="M350 770v-120h-135v-745h135v-120h-280v985h280z" />
<glyph unicode="\" horiz-adv-x="637" d="M493 -140l-473 870l124 67l473 -870z" />
<glyph unicode="]" horiz-adv-x="360" d="M10 -215v120h135v745h-135v120h280v-985h-280z" />
<glyph unicode="^" horiz-adv-x="600" d="M405 715l144 -322h-138l-111 253l-111 -253h-138l144 322h210z" />
<glyph unicode="_" horiz-adv-x="533" d="M523 -15v-130h-513v130h513z" />
<glyph unicode="`" horiz-adv-x="433" d="M254 707l129 -154h-145l-188 154h204z" />
<glyph unicode="a" d="M234 -15q-94 0 -156.5 63t-62.5 183t62.5 183t156.5 63q101 0 148 -74h2v59h185v-462h-185v59h-2q-47 -74 -148 -74zM290 146q37 0 61 23t24 62t-24 62t-61 23t-61 -23t-24 -62t24 -62t61 -23z" />
<glyph unicode="b" horiz-adv-x="609" d="M375 477q94 0 156.5 -63t62.5 -183t-62.5 -183t-156.5 -63q-101 0 -148 74h-2v-59h-185v700h185v-297h2q47 74 148 74zM315 146q40 0 65 22.5t25 62.5t-25 62.5t-65 22.5t-65 -22.5t-25 -62.5t25 -62.5t65 -22.5z" />
<glyph unicode="c" horiz-adv-x="455" d="M279 -15q-117 0 -190.5 66.5t-73.5 179.5t73.5 179.5t190.5 66.5q94 0 171 -44l-71 -145q-38 24 -83 24q-40 0 -65.5 -22.5t-25.5 -58.5t25.5 -58.5t65.5 -22.5q45 0 83 24l71 -145q-77 -44 -171 -44z" />
<glyph unicode="d" horiz-adv-x="609" d="M234 477q101 0 148 -74h2v297h185v-700h-185v59h-2q-47 -74 -148 -74q-94 0 -156.5 63t-62.5 183t62.5 183t156.5 63zM294 146q40 0 65 22.5t25 62.5t-25 62.5t-65 22.5t-65 -22.5t-25 -62.5t25 -62.5t65 -22.5z" />
<glyph unicode="e" horiz-adv-x="514" d="M266 476q111 0 174.5 -64.5t63.5 -191.5v-32h-318q20 -61 115 -61q53 0 117 26l49 -135q-82 -33 -172 -33q-133 0 -206.5 63.5t-73.5 181.5q0 119 69 182.5t182 63.5zM257 357q-30 0 -51.5 -19t-23.5 -55h147q0 36 -20.5 55t-51.5 19z" />
<glyph unicode="f" horiz-adv-x="398" d="M369 539q-49 0 -68 -15.5t-19 -59.5v-2h103v-152h-103v-310h-185v310h-87v152h87v3q0 132 60 188.5t189 56.5h42v-171h-19z" />
<glyph unicode="g" d="M297 -215q-92 0 -209 24l31 162q89 -23 151 -23q56 0 85 21t29 75v18h-2q-54 -62 -145 -62q-97 0 -159.5 59t-62.5 175q0 117 62.5 180t156.5 63q101 0 148 -74h2v59h185v-447q0 -106 -67 -168t-205 -62zM290 146q37 0 61 23t24 62t-24 62t-61 23t-61 -23t-24 -62t24 -62 t61 -23z" />
<glyph unicode="h" horiz-adv-x="584" d="M225 700v-300h2q57 77 152 77q78 0 124 -47.5t46 -139.5v-290h-185v239q0 81 -65 81q-34 0 -54 -23.5t-20 -72.5v-224h-185v700h185z" />
<glyph unicode="i" horiz-adv-x="265" d="M227 700v-173h-189v173h189zM225 462v-462h-185v462h185z" />
<glyph unicode="j" horiz-adv-x="265" d="M227 700v-173h-189v173h189zM-40 -31h21q59 0 59 73v420h185v-411q0 -130 -52.5 -192t-162.5 -62h-50v172z" />
<glyph unicode="k" horiz-adv-x="603" d="M603 0h-237l-141 202v-202h-185v700h185v-409l118 171h223l-172 -210z" />
<glyph unicode="l" horiz-adv-x="265" d="M225 700v-700h-185v700h185z" />
<glyph unicode="m" horiz-adv-x="886" d="M35 0v462h179v-73h2q45 88 151 88q115 0 153 -99h2q51 99 162 99q81 0 124 -46.5t43 -133.5v-297h-185v235q0 85 -61 85q-74 0 -74 -92v-228h-176v235q0 85 -61 85q-74 0 -74 -92v-228h-185z" />
<glyph unicode="n" horiz-adv-x="579" d="M375 477q78 0 123.5 -47.5t45.5 -139.5v-290h-185v239q0 81 -65 81q-74 0 -74 -96v-224h-185v462h179v-69h2q61 84 159 84z" />
<glyph unicode="o" horiz-adv-x="560" d="M280 -15q-118 0 -191.5 67t-73.5 179t73.5 179t191.5 67t191.5 -67t73.5 -179t-73.5 -179t-191.5 -67zM280 146q39 0 64.5 23t25.5 62t-25.5 62t-64.5 23t-64.5 -23t-25.5 -62t25.5 -62t64.5 -23z" />
<glyph unicode="p" d="M35 -200v662h185v-59h2q47 74 148 74q94 0 156.5 -63t62.5 -183t-62.5 -183t-156.5 -63q-101 0 -148 74h-2v-259h-185zM310 146q40 0 65 22.5t25 62.5t-25 62.5t-65 22.5t-65 -22.5t-25 -62.5t25 -62.5t65 -22.5z" />
<glyph unicode="q" d="M384 -200v259h-2q-47 -74 -148 -74q-94 0 -156.5 63t-62.5 183t62.5 183t156.5 63q101 0 148 -74h2v59h185v-662h-185zM294 146q40 0 65 22.5t25 62.5t-25 62.5t-65 22.5t-65 -22.5t-25 -62.5t25 -62.5t65 -22.5z" />
<glyph unicode="r" horiz-adv-x="368" d="M363 476v-174h-11q-69 0 -100.5 -29t-31.5 -104v-169h-185v462h179v-86h2q37 100 145 100h2z" />
<glyph unicode="s" horiz-adv-x="454" d="M231 -15q-128 0 -226 49l59 132q90 -49 167 -52q37 -1 37 15q0 12 -31 22l-70 23q-63 21 -95 55.5t-32 92.5q0 73 52.5 114t159.5 41q74 0 175 -23l-40 -137q-86 34 -149 34q-28 0 -28 -13q0 -11 23 -18l83 -27q64 -21 96 -53.5t32 -94.5q0 -160 -213 -160z" />
<glyph unicode="t" horiz-adv-x="386" d="M381 310h-98v-75q0 -37 10 -50t39 -13h16v-172h-75q-175 0 -175 181v129h-93v152h93v185h185v-185h98v-152z" />
<glyph unicode="u" horiz-adv-x="586" d="M216 -15q-78 0 -127 46.5t-49 133.5v297h190v-242q0 -77 62 -77q69 0 69 101v218h185v-462h-179v71h-2q-60 -86 -149 -86z" />
<glyph unicode="v" horiz-adv-x="581" d="M379 462h202l-197 -462h-187l-197 462h202l89 -259z" />
<glyph unicode="w" horiz-adv-x="855" d="M677 462h178l-177 -462h-154l-96 229l-97 -229h-153l-178 462h178l81 -223l86 223h166l86 -223z" />
<glyph unicode="x" horiz-adv-x="594" d="M386 0l-89 126l-89 -126h-208l188 240l-177 222h209l77 -107l77 107h209l-177 -222l188 -240h-208z" />
<glyph unicode="y" horiz-adv-x="593" d="M412 462h181l-318 -662h-185l121 249l-211 413h206l97 -224z" />
<glyph unicode="z" horiz-adv-x="462" d="M234 149h218v-149h-442v132l200 182h-180v148h409v-125h1z" />
<glyph unicode="{" horiz-adv-x="426" d="M416 775v-148h-30q-44 0 -64.5 -14t-20.5 -49v-126q0 -132 -133 -162v-2q133 -29 133 -162v-116q0 -34 20 -48.5t63 -14.5h32v-148h-40q-92 0 -152.5 51t-60.5 154v106q0 99 -128 106v147q128 7 128 105v116q0 103 60.5 154t152.5 51h40z" />
<glyph unicode="|" horiz-adv-x="340" d="M230 727v-942h-120v942h120z" />
<glyph unicode="}" horiz-adv-x="426" d="M10 -215v148h32q43 0 63 14.5t20 48.5v116q0 133 133 162v2q-133 30 -133 162v126q0 35 -20.5 49t-64.5 14h-30v148h40q92 0 152.5 -51t60.5 -154v-116q0 -98 128 -105v-147q-128 -7 -128 -106v-106q0 -103 -60.5 -154t-152.5 -51h-40z" />
<glyph unicode="~" horiz-adv-x="600" d="M197 418q54 0 119.5 -30.5t92.5 -30.5q11 0 22 2t18 4.5t18 8.5t16 9.5t18.5 13t19.5 13.5l75 -117q-101 -82 -191 -82q-52 0 -117 30t-95 30q-10 0 -19 -1t-18 -4.5t-14.5 -5.5t-15.5 -8t-14 -9t-16 -11.5t-16 -11.5l-76 116q101 84 193 84z" />
<glyph unicode="&#xa1;" horiz-adv-x="350" d="M82 312v188h186v-188h-186zM70 -200l38 459h134l38 -459h-210z" />
<glyph unicode="&#xa2;" horiz-adv-x="433" d="M403 286q-69 25 -114 25v-160h2q41 0 109 22v-164q-57 -20 -111 -23v-50h-28v49q-103 0 -169.5 66.5t-66.5 179.5q0 112 66 178.5t170 67.5v56h28v-57q57 -3 114 -26v-164zM261 154v154q-63 -12 -63 -77q0 -63 63 -77z" />
<glyph unicode="&#xa3;" horiz-adv-x="578" d="M244 161l2 -6h277v-155h-461v134q110 53 110 120q0 35 -43 91h-89v30h68q-36 59 -36 121q0 92 64.5 143t178.5 51q233 0 233 -231h-170q0 78 -65 78q-27 0 -45.5 -14t-18.5 -40q0 -8 1.5 -15.5t5 -16t6.5 -14.5t10 -16t10 -14.5t11.5 -16t11.5 -15.5h147v-30h-128 q23 -41 23 -74q0 -37 -24.5 -61.5t-78.5 -48.5z" />
<glyph unicode="&#xa5;" horiz-adv-x="712" d="M692 675l-202 -372h115v-30h-131l-31 -56h162v-30h-169v-187h-161v187h-168v30h162l-31 56h-131v30h115l-202 372h207l129 -282l129 282h207z" />
<glyph unicode="&#xa7;" horiz-adv-x="606" d="M556 273q0 -99 -87 -166q32 -42 32 -96q0 -74 -56.5 -122t-154.5 -48q-106 0 -192 56l77 130q60 -39 119 -39q21 0 34 7t13 17q0 15 -30 33t-72.5 39t-85.5 47.5t-73 70t-30 95.5q0 91 84 151q-29 39 -29 89q0 77 57.5 127.5t155.5 50.5q104 0 187 -62l-80 -129 q-54 44 -111 44q-23 0 -36 -7t-13 -17q0 -14 30 -29.5t72.5 -34t85.5 -43t73 -67.5t30 -97zM212 293q0 -8 3.5 -15t11 -14t15 -12.5t21 -13t23 -12t27 -13t27.5 -13.5q54 32 54 64q0 8 -3.5 15t-11 14t-15 12.5t-21.5 12.5t-23.5 11.5t-27.5 12.5t-28 13q-52 -32 -52 -62z " />
<glyph unicode="&#xa8;" horiz-adv-x="427" d="M189 690v-145h-139v145h139zM377 690v-145h-139v145h139z" />
<glyph unicode="&#xa9;" horiz-adv-x="828" d="M414 715q158 0 261 -101t103 -264q0 -162 -103 -263.5t-261 -101.5t-261 101.5t-103 263.5t103 263.5t261 101.5zM414 633q-120 0 -199 -78.5t-79 -204.5t79 -204t199 -78t198.5 78t78.5 204t-78.5 204.5t-198.5 78.5zM424 581q80 0 152 -48l-50 -97q-65 35 -104 35 q-50 0 -82 -32.5t-32 -84.5t32 -84.5t82 -32.5q39 0 104 35l50 -98q-76 -47 -152 -47q-103 0 -169.5 64.5t-66.5 162.5t66.5 162.5t169.5 64.5z" />
<glyph unicode="&#xaa;" horiz-adv-x="447" d="M184 338q-61 0 -102.5 43.5t-41.5 119.5t41.5 119.5t102.5 43.5q70 0 101 -58h2v48h120v-306h-120v48h-2q-31 -58 -101 -58zM226 445q24 0 40 16t16 40t-16 40t-40 16t-40 -16t-16 -40t16 -40t40 -16z" />
<glyph unicode="&#xab;" horiz-adv-x="658" d="M384 426l-174 -186l174 -186h-195l-174 186l174 186h195zM648 426l-174 -186l174 -186h-195l-174 186l174 186h195z" />
<glyph unicode="&#xac;" horiz-adv-x="600" d="M71 432h457v-75v-190h-78v190h-379v75z" />
<glyph unicode="&#xae;" horiz-adv-x="558" d="M279 715q108 0 178.5 -70.5t70.5 -180.5t-70.5 -180.5t-178.5 -70.5t-178.5 70.5t-70.5 180.5t70.5 180.5t178.5 70.5zM279 285q80 0 127 50t47 129t-47 129t-127 50t-127 -50t-47 -129t47 -129t127 -50zM390 518q0 -63 -55 -81l60 -95h-74l-51 89h-13v-89h-65v260h105 q43 0 68 -22t25 -62zM257 541v-49h33q29 0 29 25q0 24 -29 24h-33z" />
<glyph unicode="&#xaf;" horiz-adv-x="432" d="M382 680v-116h-332v116h332z" />
<glyph unicode="&#xb0;" horiz-adv-x="402" d="M201 690q66 0 108.5 -42t42.5 -109t-42.5 -109t-108.5 -42t-108.5 42t-42.5 109t42.5 109t108.5 42zM201 612q-31 0 -51.5 -20.5t-20.5 -52.5t20.5 -52.5t51.5 -20.5t51.5 20.5t20.5 52.5t-20.5 52.5t-51.5 20.5z" />
<glyph unicode="&#xb1;" horiz-adv-x="600" d="M339 521v-123h200v-75h-200v-123h-78v123h-200v75h200v123h78zM539 154v-75h-478v75h478z" />
<glyph unicode="&#xb4;" horiz-adv-x="433" d="M179 707h204l-188 -154h-145z" />
<glyph unicode="&#xb6;" horiz-adv-x="693" d="M643 700v-135h-69v-671h-125v671h-80v-671h-125v416q-83 0 -138.5 55.5t-55.5 143.5q0 85 58 138t146 53h389z" />
<glyph unicode="&#xb7;" horiz-adv-x="256" d="M221 462v-188h-186v188h186z" />
<glyph unicode="&#xb8;" horiz-adv-x="306" d="M197 43l-34 -80q93 -12 93 -68q0 -25 -23 -43.5t-55 -30t-87 -27.5q-14 -4 -22 -6l-19 43q46 19 62 29t16 19q0 12 -9.5 16.5t-36.5 9.5l56 138h59z" />
<glyph unicode="&#xba;" horiz-adv-x="434" d="M217 664q78 0 127.5 -43.5t49.5 -119.5t-49.5 -119.5t-127.5 -43.5t-127.5 43.5t-49.5 119.5t49.5 119.5t127.5 43.5zM217 557q-24 0 -40 -16t-16 -40t16 -40t40 -16t40 16t16 40t-16 40t-40 16z" />
<glyph unicode="&#xbb;" horiz-adv-x="658" d="M10 426h195l174 -186l-174 -186h-195l174 186zM274 426h195l174 -186l-174 -186h-195l174 186z" />
<glyph unicode="&#xbf;" horiz-adv-x="462" d="M166 312v188h186v-188h-186zM236 -215q-112 0 -164 52t-52 128q0 83 72 154q5 5 18 17.5t18.5 18t14.5 17.5t13 21.5t7.5 24.5t3.5 31v10h183v-29q0 -101 -78 -162q-2 -1 -10 -7.5t-10 -8t-9 -7t-9.5 -8.5t-7.5 -8t-7 -9t-4.5 -9.5t-3.5 -10.5t-1 -11q0 -37 39 -37 q48 0 48 60h175q0 -103 -59 -165t-177 -62z" />
<glyph unicode="&#xc0;" horiz-adv-x="745" d="M442 743h-131l-187 120h190zM535 0l-43 131h-239l-43 -131h-210l271 700h203l271 -700h-210zM301 281h143l-71 219z" />
<glyph unicode="&#xc1;" horiz-adv-x="745" d="M622 863l-187 -120h-131l128 120h190zM535 0l-43 131h-239l-43 -131h-210l271 700h203l271 -700h-210zM301 281h143l-71 219z" />
<glyph unicode="&#xc2;" horiz-adv-x="745" d="M372 806l-57 -63h-150l120 120h175l120 -120h-150zM535 0l-43 131h-239l-43 -131h-210l271 700h203l271 -700h-210zM301 281h143l-71 219z" />
<glyph unicode="&#xc3;" horiz-adv-x="745" d="M274 766q-26 0 -53 -35l-54 19q20 65 47.5 96t76.5 31q32 0 101.5 -15t83.5 -15q25 0 53 34l54 -18q-19 -65 -46.5 -96t-77.5 -31q-32 0 -101.5 15t-83.5 15zM535 0l-43 131h-239l-43 -131h-210l271 700h203l271 -700h-210zM301 281h143l-71 219z" />
<glyph unicode="&#xc4;" horiz-adv-x="745" d="M338 863v-120h-151v120h151zM559 863v-120h-151v120h151zM535 0l-43 131h-239l-43 -131h-210l271 700h203l271 -700h-210zM301 281h143l-71 219z" />
<glyph unicode="&#xc5;" horiz-adv-x="745" d="M535 0l-43 131h-239l-43 -131h-210l267 689q-14 26 -14 58q0 51 33.5 84t86.5 33t86.5 -33t33.5 -84q0 -33 -14 -59l266 -688h-210zM373 793q-22 0 -35 -13.5t-13 -32.5q0 -20 13 -33.5t35 -13.5q21 0 34 14t13 33t-13 32.5t-34 13.5zM301 281h143l-71 219z" />
<glyph unicode="&#xc6;" horiz-adv-x="1055" d="M774 174h251v-174h-298h-138v131h-271l-80 -131h-238l466 700h308h236v-174h-236v-83h205v-165h-205v-104zM410 281h179v292z" />
<glyph unicode="&#xc7;" horiz-adv-x="664" d="M659 62q-101 -71 -233 -76l-10 -23q93 -12 93 -68q0 -25 -23 -43.5t-55 -30t-87 -27.5l-7.5 -1.5t-7 -2l-7.5 -2.5l-19 43q46 19 62 29t16 19q0 12 -9.5 16.5t-36.5 9.5l33 81q-156 10 -254.5 106.5t-98.5 257.5q0 169 108.5 267t276.5 98q148 0 259 -77l-100 -163 q-77 53 -153 53q-81 0 -136 -47t-55 -131t55 -131t136 -47q76 0 153 53z" />
<glyph unicode="&#xc8;" horiz-adv-x="546" d="M354 743h-131l-187 120h190zM245 174h271v-174h-461v700h446v-174h-256v-83h225v-165h-225v-104z" />
<glyph unicode="&#xc9;" horiz-adv-x="546" d="M534 863l-187 -120h-131l128 120h190zM245 278v-104h271v-174h-461v700h446v-174h-256v-83h225v-165h-225z" />
<glyph unicode="&#xca;" horiz-adv-x="546" d="M284 806l-57 -63h-150l120 120h175l120 -120h-150zM245 174h271v-174h-461v700h446v-174h-256v-83h225v-165h-225v-104z" />
<glyph unicode="&#xcb;" horiz-adv-x="546" d="M250 863v-120h-151v120h151zM471 863v-120h-151v120h151zM245 174h271v-174h-461v700h446v-174h-256v-83h225v-165h-225v-104z" />
<glyph unicode="&#xcc;" horiz-adv-x="300" d="M91 863l128 -120h-131l-187 120h190zM245 700v-700h-190v700h190z" />
<glyph unicode="&#xcd;" horiz-adv-x="300" d="M399 863l-187 -120h-131l128 120h190zM245 700v-700h-190v700h190z" />
<glyph unicode="&#xce;" horiz-adv-x="300" d="M237 863l120 -120h-150l-58 63l-57 -63h-150l120 120h175zM245 700v-700h-190v700h190z" />
<glyph unicode="&#xcf;" horiz-adv-x="300" d="M115 863v-120h-151v120h151zM336 863v-120h-151v120h151zM245 700v-700h-190v700h190z" />
<glyph unicode="&#xd0;" horiz-adv-x="690" d="M294 700q178 0 279.5 -93.5t101.5 -256.5t-102 -256.5t-279 -93.5h-239v278h-70v155h70v267h239zM295 170q83 0 131.5 46t48.5 134t-48.5 134t-131.5 46h-50v-97h117v-155h-117v-108h50z" />
<glyph unicode="&#xd1;" horiz-adv-x="780" d="M236 731l-54 19q20 65 47.5 96t76.5 31q32 0 101.5 -15t83.5 -15q25 0 53 34l54 -18q-19 -65 -46.5 -96t-77.5 -31q-32 0 -101.5 15t-83.5 15q-26 0 -53 -35zM725 700v-700h-148l-330 376h-2v-376h-190v700h148l330 -376h2v376h190z" />
<glyph unicode="&#xd2;" horiz-adv-x="776" d="M329 863l128 -120h-131l-187 120h190zM388 715q159 0 266 -101.5t107 -263.5t-107 -263.5t-266 -101.5t-266 101.5t-107 263.5t107 263.5t266 101.5zM388 525q-76 0 -124.5 -47.5t-48.5 -127.5t48.5 -127.5t124.5 -47.5t124.5 47.5t48.5 127.5t-48.5 127.5t-124.5 47.5z " />
<glyph unicode="&#xd3;" horiz-adv-x="776" d="M637 863l-187 -120h-131l128 120h190zM388 715q159 0 266 -101.5t107 -263.5t-107 -263.5t-266 -101.5t-266 101.5t-107 263.5t107 263.5t266 101.5zM388 525q-76 0 -124.5 -47.5t-48.5 -127.5t48.5 -127.5t124.5 -47.5t124.5 47.5t48.5 127.5t-48.5 127.5t-124.5 47.5z " />
<glyph unicode="&#xd4;" horiz-adv-x="776" d="M475 863l120 -120h-150l-58 63l-57 -63h-150l120 120h175zM388 715q159 0 266 -101.5t107 -263.5t-107 -263.5t-266 -101.5t-266 101.5t-107 263.5t107 263.5t266 101.5zM388 525q-76 0 -124.5 -47.5t-48.5 -127.5t48.5 -127.5t124.5 -47.5t124.5 47.5t48.5 127.5 t-48.5 127.5t-124.5 47.5z" />
<glyph unicode="&#xd5;" horiz-adv-x="776" d="M236 731l-54 19q20 65 47.5 96t76.5 31q32 0 101.5 -15t83.5 -15q25 0 53 34l54 -18q-19 -65 -46.5 -96t-77.5 -31q-32 0 -101.5 15t-83.5 15q-26 0 -53 -35zM388 715q159 0 266 -101.5t107 -263.5t-107 -263.5t-266 -101.5t-266 101.5t-107 263.5t107 263.5t266 101.5z M388 525q-76 0 -124.5 -47.5t-48.5 -127.5t48.5 -127.5t124.5 -47.5t124.5 47.5t48.5 127.5t-48.5 127.5t-124.5 47.5z" />
<glyph unicode="&#xd6;" horiz-adv-x="776" d="M353 863v-120h-151v120h151zM574 863v-120h-151v120h151zM388 715q159 0 266 -101.5t107 -263.5t-107 -263.5t-266 -101.5t-266 101.5t-107 263.5t107 263.5t266 101.5zM388 525q-76 0 -124.5 -47.5t-48.5 -127.5t48.5 -127.5t124.5 -47.5t124.5 47.5t48.5 127.5 t-48.5 127.5t-124.5 47.5z" />
<glyph unicode="&#xd8;" horiz-adv-x="776" d="M639 627q122 -104 122 -277q0 -162 -107 -263.5t-266 -101.5q-112 0 -201 53l-40 -52l-49 36l39 51q-122 104 -122 277q0 162 107 263.5t266 101.5q112 0 201 -53l40 52l49 -36zM215 350q0 -73 42 -121l213 278q-36 18 -82 18q-76 0 -124.5 -47.5t-48.5 -127.5zM388 175 q76 0 124.5 47.5t48.5 127.5q0 73 -42 121l-213 -278q36 -18 82 -18z" />
<glyph unicode="&#xd9;" horiz-adv-x="716" d="M299 863l128 -120h-131l-187 120h190zM666 291q0 -143 -76 -223t-232 -80t-232 80t-76 223v409h203v-404q0 -118 105 -118t105 118v404h203v-409z" />
<glyph unicode="&#xda;" horiz-adv-x="716" d="M607 863l-187 -120h-131l128 120h190zM666 291q0 -143 -76 -223t-232 -80t-232 80t-76 223v409h203v-404q0 -118 105 -118t105 118v404h203v-409z" />
<glyph unicode="&#xdb;" horiz-adv-x="716" d="M445 863l120 -120h-150l-58 63l-57 -63h-150l120 120h175zM666 291q0 -143 -76 -223t-232 -80t-232 80t-76 223v409h203v-404q0 -118 105 -118t105 118v404h203v-409z" />
<glyph unicode="&#xdc;" horiz-adv-x="716" d="M323 863v-120h-151v120h151zM544 863v-120h-151v120h151zM666 291q0 -143 -76 -223t-232 -80t-232 80t-76 223v409h203v-404q0 -118 105 -118t105 118v404h203v-409z" />
<glyph unicode="&#xdd;" horiz-adv-x="733" d="M616 863l-187 -120h-131l128 120h190zM733 700l-271 -464v-236h-191v234l-271 466h227l138 -281h3l138 281h227z" />
<glyph unicode="&#xde;" horiz-adv-x="634" d="M245 700v-93h86q145 0 216.5 -68.5t71.5 -180.5q0 -115 -71.5 -184.5t-216.5 -69.5h-86v-104h-190v700h190zM331 443h-86v-175h86q47 0 74 22.5t27 67.5q0 42 -27 63.5t-74 21.5z" />
<glyph unicode="&#xdf;" horiz-adv-x="626" d="M440 381q171 -13 171 -171q0 -105 -78 -160t-217 -55h-39v165h30q123 0 123 68q0 39 -34.5 55t-110.5 16v132q96 0 96 72q0 32 -20 49t-54 17q-39 0 -60 -21.5t-21 -63.5v-614h-186v616q0 106 66.5 167.5t200.5 61.5q121 0 182.5 -49.5t61.5 -129.5q0 -54 -28.5 -94 t-82.5 -59v-2z" />
<glyph unicode="&#xe0;" d="M252 707l129 -154h-145l-188 154h204zM234 -15q-94 0 -156.5 63t-62.5 183t62.5 183t156.5 63q101 0 148 -74h2v59h185v-462h-185v59h-2q-47 -74 -148 -74zM290 146q37 0 61 23t24 62t-24 62t-61 23t-61 -23t-24 -62t24 -62t61 -23z" />
<glyph unicode="&#xe1;" d="M341 707h204l-188 -154h-145zM234 -15q-94 0 -156.5 63t-62.5 183t62.5 183t156.5 63q101 0 148 -74h2v59h185v-462h-185v59h-2q-47 -74 -148 -74zM290 146q37 0 61 23t24 62t-24 62t-61 23t-61 -23t-24 -62t24 -62t61 -23z" />
<glyph unicode="&#xe2;" d="M383 707l121 -154h-147l-62 75l-60 -75h-147l121 154h174zM234 -15q-94 0 -156.5 63t-62.5 183t62.5 183t156.5 63q101 0 148 -74h2v59h185v-462h-185v59h-2q-47 -74 -148 -74zM290 146q37 0 61 23t24 62t-24 62t-61 23t-61 -23t-24 -62t24 -62t61 -23z" />
<glyph unicode="&#xe3;" d="M208 709q34 0 97 -21t78 -21q32 0 55 46l66 -24q-20 -73 -47.5 -110t-77.5 -37q-33 0 -96.5 21t-78.5 21q-31 0 -54 -46l-67 24q20 73 48 110t77 37zM234 -15q-94 0 -156.5 63t-62.5 183t62.5 183t156.5 63q101 0 148 -74h2v59h185v-462h-185v59h-2q-47 -74 -148 -74z M290 146q37 0 61 23t24 62t-24 62t-61 23t-61 -23t-24 -62t24 -62t61 -23z" />
<glyph unicode="&#xe4;" d="M272 690v-145h-139v145h139zM460 690v-145h-139v145h139zM234 -15q-94 0 -156.5 63t-62.5 183t62.5 183t156.5 63q101 0 148 -74h2v59h185v-462h-185v59h-2q-47 -74 -148 -74zM290 146q37 0 61 23t24 62t-24 62t-61 23t-61 -23t-24 -62t24 -62t61 -23z" />
<glyph unicode="&#xe5;" d="M295 747q51 0 84 -33t33 -84t-33 -84t-84 -33t-84 33t-33 84t33 84t84 33zM295 677q-20 0 -32.5 -14t-12.5 -33t12.5 -32.5t32.5 -13.5q19 0 31.5 13.5t12.5 32.5t-12.5 33t-31.5 14zM234 -15q-94 0 -156.5 63t-62.5 183t62.5 183t156.5 63q101 0 148 -74h2v59h185v-462 h-185v59h-2q-47 -74 -148 -74zM290 146q37 0 61 23t24 62t-24 62t-61 23t-61 -23t-24 -62t24 -62t61 -23z" />
<glyph unicode="&#xe6;" horiz-adv-x="832" d="M590 476q104 0 165.5 -66t61.5 -197v-25h-319q22 -61 116 -61q53 0 117 26l49 -134q-81 -34 -175 -34q-152 0 -205 87h-2q-64 -87 -199 -87q-92 0 -143 44t-51 121t47 120t128 43q101 0 147 -58h2v14q0 80 -103 80q-47 0 -128 -12l-20 125q90 15 164 15q135 0 171 -77h2 q52 76 175 76zM570 357q-30 0 -51.5 -19t-23.5 -55h147q0 37 -20.5 55.5t-51.5 18.5zM271 207q-27 0 -43 -13t-16 -36q0 -47 59 -47q27 0 43.5 13.5t16.5 33.5q0 22 -16 35.5t-44 13.5z" />
<glyph unicode="&#xe7;" horiz-adv-x="455" d="M450 29q-68 -39 -152 -44l-10 -22q93 -12 93 -68q0 -25 -23 -43.5t-55 -30t-87 -27.5q-14 -4 -22 -6l-19 43q46 19 62 29t16 19q0 12 -9.5 16.5t-36.5 9.5l33 82q-101 11 -163 75.5t-62 168.5q0 113 73.5 179.5t190.5 66.5q94 0 171 -44l-71 -145q-38 24 -83 24 q-40 0 -65.5 -22.5t-25.5 -58.5t25.5 -58.5t65.5 -22.5q45 0 83 24z" />
<glyph unicode="&#xe8;" horiz-adv-x="514" d="M223 707l129 -154h-145l-188 154h204zM266 476q111 0 174.5 -64.5t63.5 -191.5v-32h-318q20 -61 115 -61q53 0 117 26l49 -135q-82 -33 -172 -33q-133 0 -206.5 63.5t-73.5 181.5q0 119 69 182.5t182 63.5zM257 357q-30 0 -51.5 -19t-23.5 -55h147q0 36 -20.5 55 t-51.5 19z" />
<glyph unicode="&#xe9;" horiz-adv-x="514" d="M312 707h204l-188 -154h-145zM266 476q111 0 174.5 -64.5t63.5 -191.5v-32h-318q20 -61 115 -61q53 0 117 26l49 -135q-82 -33 -172 -33q-133 0 -206.5 63.5t-73.5 181.5q0 119 69 182.5t182 63.5zM257 357q-30 0 -51.5 -19t-23.5 -55h147q0 36 -20.5 55t-51.5 19z" />
<glyph unicode="&#xea;" horiz-adv-x="514" d="M354 707l121 -154h-147l-62 75l-60 -75h-147l121 154h174zM266 476q111 0 174.5 -64.5t63.5 -191.5v-32h-318q20 -61 115 -61q53 0 117 26l49 -135q-82 -33 -172 -33q-133 0 -206.5 63.5t-73.5 181.5q0 119 69 182.5t182 63.5zM257 357q-30 0 -51.5 -19t-23.5 -55h147 q0 36 -20.5 55t-51.5 19z" />
<glyph unicode="&#xeb;" horiz-adv-x="514" d="M243 690v-145h-139v145h139zM431 690v-145h-139v145h139zM266 476q111 0 174.5 -64.5t63.5 -191.5v-32h-318q20 -61 115 -61q53 0 117 26l49 -135q-82 -33 -172 -33q-133 0 -206.5 63.5t-73.5 181.5q0 119 69 182.5t182 63.5zM257 357q-30 0 -51.5 -19t-23.5 -55h147 q0 36 -20.5 55t-51.5 19z" />
<glyph unicode="&#xec;" horiz-adv-x="265" d="M126 707l79 -154h-145l-98 154h164zM225 462v-462h-185v462h185z" />
<glyph unicode="&#xed;" horiz-adv-x="265" d="M60 553l79 154h164l-98 -154h-145zM225 462v-462h-185v462h185z" />
<glyph unicode="&#xee;" horiz-adv-x="265" d="M219 707l91 -154h-137l-42 90l-40 -90h-137l91 154h174zM225 462v-462h-185v462h185z" />
<glyph unicode="&#xef;" horiz-adv-x="265" d="M113 690v-145h-119v145h119zM271 690v-145h-119v145h119zM225 462v-462h-185v462h185z" />
<glyph unicode="&#xf0;" horiz-adv-x="563" d="M392 664q146 -114 146 -344q0 -90 -22.5 -157t-61.5 -104.5t-86 -55.5t-102 -18q-116 0 -183.5 70t-67.5 181q0 109 64.5 175t162.5 66q97 0 138 -66h2q-22 106 -99 156l-78 -69l-64 68l46 41q-39 9 -84 15l28 138q97 -9 178 -45l77 68l62 -69zM270 147q38 0 63 23.5 t25 62.5t-25 62.5t-64 23.5t-63 -24t-24 -62q0 -39 25 -62.5t63 -23.5z" />
<glyph unicode="&#xf1;" horiz-adv-x="579" d="M216 709q34 0 97 -21t78 -21q32 0 55 46l66 -24q-20 -73 -47.5 -110t-77.5 -37q-33 0 -96.5 21t-78.5 21q-31 0 -54 -46l-67 24q20 73 48 110t77 37zM375 477q78 0 123.5 -47.5t45.5 -139.5v-290h-185v239q0 81 -65 81q-74 0 -74 -96v-224h-185v462h179v-69h2 q61 84 159 84z" />
<glyph unicode="&#xf2;" horiz-adv-x="560" d="M235 707l129 -154h-145l-188 154h204zM280 -15q-118 0 -191.5 67t-73.5 179t73.5 179t191.5 67t191.5 -67t73.5 -179t-73.5 -179t-191.5 -67zM280 146q39 0 64.5 23t25.5 62t-25.5 62t-64.5 23t-64.5 -23t-25.5 -62t25.5 -62t64.5 -23z" />
<glyph unicode="&#xf3;" horiz-adv-x="560" d="M324 707h204l-188 -154h-145zM280 -15q-118 0 -191.5 67t-73.5 179t73.5 179t191.5 67t191.5 -67t73.5 -179t-73.5 -179t-191.5 -67zM280 146q39 0 64.5 23t25.5 62t-25.5 62t-64.5 23t-64.5 -23t-25.5 -62t25.5 -62t64.5 -23z" />
<glyph unicode="&#xf4;" horiz-adv-x="560" d="M366 707l121 -154h-147l-62 75l-60 -75h-147l121 154h174zM280 -15q-118 0 -191.5 67t-73.5 179t73.5 179t191.5 67t191.5 -67t73.5 -179t-73.5 -179t-191.5 -67zM280 146q39 0 64.5 23t25.5 62t-25.5 62t-64.5 23t-64.5 -23t-25.5 -62t25.5 -62t64.5 -23z" />
<glyph unicode="&#xf5;" horiz-adv-x="560" d="M191 709q34 0 97 -21t78 -21q32 0 55 46l66 -24q-20 -73 -47.5 -110t-77.5 -37q-33 0 -96.5 21t-78.5 21q-31 0 -54 -46l-67 24q20 73 48 110t77 37zM280 -15q-118 0 -191.5 67t-73.5 179t73.5 179t191.5 67t191.5 -67t73.5 -179t-73.5 -179t-191.5 -67zM280 146 q39 0 64.5 23t25.5 62t-25.5 62t-64.5 23t-64.5 -23t-25.5 -62t25.5 -62t64.5 -23z" />
<glyph unicode="&#xf6;" horiz-adv-x="560" d="M255 690v-145h-139v145h139zM443 690v-145h-139v145h139zM280 -15q-118 0 -191.5 67t-73.5 179t73.5 179t191.5 67t191.5 -67t73.5 -179t-73.5 -179t-191.5 -67zM280 146q39 0 64.5 23t25.5 62t-25.5 62t-64.5 23t-64.5 -23t-25.5 -62t25.5 -62t64.5 -23z" />
<glyph unicode="&#xf7;" horiz-adv-x="600" d="M354 525v-108h-108v108h108zM559 337v-75h-518v75h518zM354 181v-108h-108v108h108z" />
<glyph unicode="&#xf8;" horiz-adv-x="560" d="M466 415q79 -68 79 -184q0 -112 -73.5 -179t-191.5 -67q-92 0 -157 41l-35 -40l-27 23l33 38q-79 68 -79 184q0 112 73.5 179t191.5 67q92 0 157 -41l36 41l27 -24zM190 231q0 -32 18 -55l115 131q-18 9 -43 9q-39 0 -64.5 -23t-25.5 -62zM280 146q39 0 64.5 23t25.5 62 q0 31 -18 54l-115 -130q19 -9 43 -9z" />
<glyph unicode="&#xf9;" horiz-adv-x="586" d="M248 707l129 -154h-145l-188 154h204zM216 -15q-78 0 -127 46.5t-49 133.5v297h190v-242q0 -77 62 -77q69 0 69 101v218h185v-462h-179v71h-2q-60 -86 -149 -86z" />
<glyph unicode="&#xfa;" horiz-adv-x="586" d="M337 707h204l-188 -154h-145zM216 -15q-78 0 -127 46.5t-49 133.5v297h190v-242q0 -77 62 -77q69 0 69 101v218h185v-462h-179v71h-2q-60 -86 -149 -86z" />
<glyph unicode="&#xfb;" horiz-adv-x="586" d="M379 707l121 -154h-147l-62 75l-60 -75h-147l121 154h174zM216 -15q-78 0 -127 46.5t-49 133.5v297h190v-242q0 -77 62 -77q69 0 69 101v218h185v-462h-179v71h-2q-60 -86 -149 -86z" />
<glyph unicode="&#xfc;" horiz-adv-x="586" d="M268 690v-145h-139v145h139zM456 690v-145h-139v145h139zM216 -15q-78 0 -127 46.5t-49 133.5v297h190v-242q0 -77 62 -77q69 0 69 101v218h185v-462h-179v71h-2q-60 -86 -149 -86z" />
<glyph unicode="&#xfd;" horiz-adv-x="593" d="M555 707l-188 -154h-145l129 154h204zM412 462h181l-318 -662h-185l121 249l-211 413h206l97 -224z" />
<glyph unicode="&#xfe;" horiz-adv-x="609" d="M40 -200v900h185v-297h2q47 74 148 74q94 0 156.5 -63t62.5 -183t-62.5 -183t-156.5 -63q-101 0 -148 74h-2v-259h-185zM319 146q37 0 61 23t24 62t-24 62t-61 23t-61 -23t-24 -62t24 -62t61 -23z" />
<glyph unicode="&#xff;" horiz-adv-x="593" d="M282 690v-145h-139v145h139zM470 690v-145h-139v145h139zM412 462h181l-318 -662h-185l121 249l-211 413h206l97 -224z" />
<glyph unicode="&#x131;" horiz-adv-x="265" d="M225 462v-462h-185v462h185z" />
<glyph unicode="&#x152;" horiz-adv-x="1033" d="M731 174h272v-174h-461v25q-65 -41 -160 -41q-160 0 -263.5 101.5t-103.5 264.5t103.5 264.5t263.5 101.5q94 0 160 -40v24h448v-174h-259v-83h226v-165h-226v-104zM382 176q74 0 120.5 46t46.5 128t-46.5 128t-120.5 46q-75 0 -121.5 -45.5t-46.5 -128.5 q0 -82 46.5 -128t121.5 -46z" />
<glyph unicode="&#x153;" horiz-adv-x="858" d="M618 476q105 0 167.5 -65t62.5 -191v-32h-318q20 -61 111 -61q57 0 121 26l49 -135q-82 -33 -171 -33q-126 0 -193 78h-2q-66 -78 -174 -78q-112 0 -184 67.5t-72 178.5q0 110 71.5 178t184.5 68q121 0 174 -76h2q57 75 171 75zM601 357q-31 0 -52 -19t-23 -55h147 q0 36 -20.5 55t-51.5 19zM279 316q-36 0 -60 -23t-24 -62t24 -62t60 -23q35 0 58 23t23 62t-23 62t-58 23z" />
<glyph unicode="&#x178;" horiz-adv-x="733" d="M332 863v-120h-151v120h151zM553 863v-120h-151v120h151zM733 700l-271 -464v-236h-191v234l-271 466h227l138 -281h3l138 281h227z" />
<glyph unicode="&#x192;" horiz-adv-x="415" d="M348 514q-59 0 -59 -49v-3h106v-30h-106v-392q0 -114 -53.5 -177t-146.5 -63h-69v162h42q28 0 45 17t17 51v402h-99v30h99v11q0 99 52.5 150.5t146.5 51.5h72v-161h-47z" />
<glyph unicode="&#x2c6;" horiz-adv-x="516" d="M345 707l121 -154h-147l-62 75l-60 -75h-147l121 154h174z" />
<glyph unicode="&#x2c7;" horiz-adv-x="516" d="M466 700l-121 -154h-174l-121 154h147l60 -74l62 74h147z" />
<glyph unicode="&#x2d8;" horiz-adv-x="465" d="M415 700q0 -76 -52 -126t-130 -50t-130.5 50t-52.5 126h113q5 -69 70 -69t70 69h112z" />
<glyph unicode="&#x2d9;" horiz-adv-x="289" d="M239 700v-173h-189v173h189z" />
<glyph unicode="&#x2da;" horiz-adv-x="334" d="M167 747q51 0 84 -33t33 -84t-33 -84t-84 -33t-84 33t-33 84t33 84t84 33zM167 677q-20 0 -32.5 -14t-12.5 -33t12.5 -32.5t32.5 -13.5q19 0 31.5 13.5t12.5 32.5t-12.5 33t-31.5 14z" />
<glyph unicode="&#x2db;" horiz-adv-x="313" d="M164 24l99 -14q-90 -79 -90 -103q0 -9 7.5 -14.5t17.5 -5.5q14 0 37 5l14 -114q-13 -1 -29 -3t-26 -3t-17 -1q-127 0 -127 93q0 69 114 160z" />
<glyph unicode="&#x2dc;" horiz-adv-x="521" d="M175 709q34 0 97 -21t78 -21q32 0 55 46l66 -24q-20 -73 -47.5 -110t-77.5 -37q-33 0 -96.5 21t-78.5 21q-31 0 -54 -46l-67 24q20 73 48 110t77 37z" />
<glyph unicode="&#x2dd;" horiz-adv-x="582" d="M342 707l-159 -154h-133l142 154h150zM542 707l-159 -154h-133l142 154h150z" />
<glyph unicode="&#x3a9;" horiz-adv-x="730" d="M365 715q155 0 247.5 -85.5t92.5 -219.5q0 -104 -55 -171t-136 -81v-3h185v-155h-294v265q53 9 85.5 45.5t32.5 89.5q0 61 -42.5 99.5t-115.5 38.5q-72 0 -114.5 -38.5t-42.5 -99.5q0 -53 32 -89.5t85 -45.5v-265h-293v155h184v3q-83 16 -137 83t-54 169 q0 134 92.5 219.5t247.5 85.5z" />
<glyph unicode="&#x3c0;" horiz-adv-x="663" d="M633 477v-154h-81v-323h-163v323h-76l-69 -323h-166l68 321q-60 -3 -116 -18v154q58 20 168 20h435z" />
<glyph unicode="&#x401;" horiz-adv-x="546" d="M250 863v-120h-151v120h151zM471 863v-120h-151v120h151zM245 174h271v-174h-461v700h446v-174h-256v-83h225v-165h-225v-104z" />
<glyph unicode="&#x402;" horiz-adv-x="790" d="M573 437q99 0 148 -42t49 -134v-60q0 -99 -62 -150t-172 -51h-60v174h51q29 0 43.5 9.5t14.5 38.5v6q0 25 -14 34.5t-45 9.5q-33 0 -149 -11v-261h-192v524h-180v176h595v-176h-223v-98q115 11 196 11z" />
<glyph unicode="&#x403;" horiz-adv-x="503" d="M509 863l-187 -120h-131l128 120h190zM498 700v-174h-253v-526h-190v700h443z" />
<glyph unicode="&#x404;" horiz-adv-x="664" d="M397 173q86 0 166 55l96 -166q-111 -77 -258 -77q-169 0 -277.5 98t-108.5 267t108.5 267t277.5 98q147 0 258 -77l-96 -166q-80 55 -166 55q-125 0 -166 -94h224v-156h-228q19 -51 63 -77.5t107 -26.5z" />
<glyph unicode="&#x405;" horiz-adv-x="596" d="M322 715q118 0 239 -59l-82 -169q-85 56 -171 56q-43 0 -43 -26q0 -19 37 -38l144 -74q63 -32 96.5 -77t33.5 -121q0 -108 -70.5 -165t-204.5 -57q-154 0 -296 79l87 182q121 -86 219 -86q59 0 59 31q0 20 -34 37l-153 77q-124 63 -124 198q0 97 67.5 154.5t195.5 57.5z " />
<glyph unicode="&#x406;" horiz-adv-x="300" d="M245 700v-700h-190v700h190z" />
<glyph unicode="&#x407;" horiz-adv-x="300" d="M115 863v-120h-151v120h151zM336 863v-120h-151v120h151zM245 700v-700h-190v700h190z" />
<glyph unicode="&#x408;" horiz-adv-x="324" d="M269 700v-520q0 -95 -49 -139t-151 -44h-59v174h38q12 0 21.5 10t9.5 22v497h190z" />
<glyph unicode="&#x409;" horiz-adv-x="1080" d="M811 473q119 0 191.5 -57.5t72.5 -179.5q0 -121 -72.5 -178.5t-191.5 -57.5h-293v526h-234v-346q0 -95 -49 -139t-151 -44h-74v174h53q13 0 22 10t9 22v497h614v-227h103zM797 162q82 0 82 74q0 75 -82 75h-89v-149h89z" />
<glyph unicode="&#x40a;" horiz-adv-x="1046" d="M777 473q119 0 191.5 -57.5t72.5 -179.5q0 -121 -72.5 -178.5t-191.5 -57.5h-293v311h-239v-311h-190v700h190v-227h239v227h190v-227h103zM763 162q82 0 82 74q0 75 -82 75h-89v-149h89z" />
<glyph unicode="&#x40b;" horiz-adv-x="790" d="M532 452q122 0 180 -51.5t58 -161.5v-239h-190v206q0 72 -71 72h-134v-278h-190v524h-180v176h370h225v-176h-225v-72h157z" />
<glyph unicode="&#x40c;" horiz-adv-x="774" d="M597 863l-187 -120h-131l128 120h190zM774 0h-264l-265 324v-324h-190v700h190v-308l236 308h246l-275 -333z" />
<glyph unicode="&#x40e;" horiz-adv-x="763" d="M387 719q-85 0 -132 38.5t-51 106.5h122q0 -25 16 -40t45 -15t45 15t16 40h122q-4 -68 -51 -106.5t-132 -38.5zM548 700h215l-342 -700h-215l73 149l-279 551h229l160 -325z" />
<glyph unicode="&#x40f;" horiz-adv-x="732" d="M677 700v-700h-221v-140h-180v140h-221v700h190v-526h242v526h190z" />
<glyph unicode="&#x410;" horiz-adv-x="745" d="M535 0l-43 131h-239l-43 -131h-210l271 700h203l271 -700h-210zM301 281h143l-71 219z" />
<glyph unicode="&#x411;" horiz-adv-x="632" d="M348 473q119 0 191.5 -57.5t72.5 -179.5q0 -121 -72.5 -178.5t-191.5 -57.5h-293v700h190h328v-162h-328v-65h103zM334 162q82 0 82 74q0 75 -82 75h-89v-149h89z" />
<glyph unicode="&#x412;" horiz-adv-x="641" d="M471 368q145 -25 145 -169q0 -104 -69 -151.5t-183 -47.5h-309v700h308q225 0 225 -175q0 -115 -117 -155v-2zM331 543h-86v-120h86q75 0 75 62q0 58 -75 58zM333 157q90 0 90 68q0 66 -90 66h-88v-134h88z" />
<glyph unicode="&#x413;" horiz-adv-x="503" d="M498 700v-174h-253v-526h-190v700h443z" />
<glyph unicode="&#x414;" horiz-adv-x="759" d="M668 147h86v-287h-192v125h-365v-125h-192v287h88q33 99 33 214v339h542v-553zM318 359q0 -116 -31 -212h189v379h-158v-167z" />
<glyph unicode="&#x415;" horiz-adv-x="546" d="M245 174h271v-174h-461v700h446v-174h-256v-83h225v-165h-225v-104z" />
<glyph unicode="&#x416;" horiz-adv-x="1158" d="M1158 0h-253l-236 341v-341h-180v341l-236 -341h-253l279 367l-242 333h243l209 -324v324h180v-324l209 324h243l-242 -333z" />
<glyph unicode="&#x417;" horiz-adv-x="635" d="M315 715q126 0 196.5 -48.5t70.5 -130.5q0 -66 -36 -109t-107 -57v-2q83 -12 127 -53t44 -123q0 -92 -71 -149.5t-229 -57.5q-194 0 -305 68l81 156q105 -54 214 -54q113 0 113 57q0 69 -165 69h-71v151h73q70 0 105 18t35 45q0 52 -97 52q-84 0 -199 -50l-69 162 q136 56 290 56z" />
<glyph unicode="&#x418;" horiz-adv-x="780" d="M55 700h190v-386h2l330 386h148v-700h-190v386h-2l-330 -386h-148v700z" />
<glyph unicode="&#x419;" horiz-adv-x="780" d="M588 864q-4 -68 -51 -106.5t-132 -38.5t-132 38.5t-51 106.5h122q0 -25 16 -40t45 -15t45 15t16 40h122zM55 700h190v-386h2l330 386h148v-700h-190v386h-2l-330 -386h-148v700z" />
<glyph unicode="&#x41a;" horiz-adv-x="774" d="M774 0h-264l-265 324v-324h-190v700h190v-308l236 308h246l-275 -333z" />
<glyph unicode="&#x41b;" horiz-adv-x="748" d="M693 700v-700h-190v526h-224v-346q0 -95 -49 -139t-151 -44h-69v174h48q12 0 21.5 10t9.5 22v497h604z" />
<glyph unicode="&#x41c;" horiz-adv-x="939" d="M742 700l197 -700h-193l-98 349h-2l-114 -254h-125l-114 254h-2l-98 -349h-193l197 700h141l131 -305h1l131 305h141z" />
<glyph unicode="&#x41d;" horiz-adv-x="729" d="M484 700h190v-700h-190v272h-239v-272h-190v700h190v-254h239v254z" />
<glyph unicode="&#x41e;" horiz-adv-x="776" d="M388 715q159 0 266 -101.5t107 -263.5t-107 -263.5t-266 -101.5t-266 101.5t-107 263.5t107 263.5t266 101.5zM388 525q-76 0 -124.5 -47.5t-48.5 -127.5t48.5 -127.5t124.5 -47.5t124.5 47.5t48.5 127.5t-48.5 127.5t-124.5 47.5z" />
<glyph unicode="&#x41f;" horiz-adv-x="729" d="M674 700v-700h-190v526h-239v-526h-190v700h619z" />
<glyph unicode="&#x420;" horiz-adv-x="617" d="M328 700q143 0 213.5 -67.5t70.5 -179.5t-70.5 -179.5t-213.5 -67.5h-83v-206h-190v700h273zM323 374q43 0 68 20t25 59t-25 59t-68 20h-78v-158h78z" />
<glyph unicode="&#x421;" horiz-adv-x="664" d="M400 -15q-168 0 -276.5 98t-108.5 267t108.5 267t276.5 98q148 0 259 -77l-100 -163q-77 53 -153 53q-81 0 -136 -47t-55 -131t55 -131t136 -47q76 0 153 53l100 -163q-111 -77 -259 -77z" />
<glyph unicode="&#x422;" horiz-adv-x="550" d="M545 700v-174h-175v-526h-190v526h-175v174h540z" />
<glyph unicode="&#x423;" horiz-adv-x="763" d="M548 700h215l-342 -700h-215l73 149l-279 551h229l160 -325z" />
<glyph unicode="&#x424;" horiz-adv-x="901" d="M886 350q0 -141 -89 -228.5t-256 -91.5v-65h-181v65q-167 4 -256 91.5t-89 228.5t89 228.5t256 91.5v65h181v-65q167 -4 256 -91.5t89 -228.5zM219 350q0 -150 151 -154v308q-151 -4 -151 -154zM531 196q151 4 151 154t-151 154v-308z" />
<glyph unicode="&#x425;" horiz-adv-x="800" d="M800 0h-240l-160 222l-160 -222h-240l275 372l-249 328h240l134 -180l134 180h240l-249 -328z" />
<glyph unicode="&#x426;" horiz-adv-x="767" d="M671 162h91v-304h-180v142h-527v700h190v-538h236v538h190v-538z" />
<glyph unicode="&#x427;" horiz-adv-x="660" d="M415 700h190v-700h-190v248h-157q-122 0 -180 51.5t-58 161.5v239h190v-206q0 -72 71 -72h134v278z" />
<glyph unicode="&#x428;" horiz-adv-x="1064" d="M55 0v700h190v-538h192v538h190v-538h192v538h190v-700h-954z" />
<glyph unicode="&#x429;" horiz-adv-x="1105" d="M1009 162h91v-302h-180v140h-865v700h190v-538h192v538h190v-538h192v538h190v-538z" />
<glyph unicode="&#x42a;" horiz-adv-x="748" d="M479 473q119 0 191.5 -57.5t72.5 -179.5q0 -121 -72.5 -178.5t-191.5 -57.5h-293v526h-181v174h329h42v-227h103zM465 162q82 0 82 74q0 75 -82 75h-89v-149h89z" />
<glyph unicode="&#x42b;" horiz-adv-x="911" d="M348 473q119 0 191.5 -57.5t72.5 -179.5q0 -121 -72.5 -178.5t-191.5 -57.5h-293v700h190v-227h103zM666 700h190v-700h-190v700zM334 162q82 0 82 74q0 75 -82 75h-89v-149h89z" />
<glyph unicode="&#x42c;" horiz-adv-x="617" d="M348 473q119 0 191.5 -57.5t72.5 -179.5q0 -121 -72.5 -178.5t-191.5 -57.5h-293v700h190v-227h103zM334 162q82 0 82 74q0 75 -82 75h-89v-149h89z" />
<glyph unicode="&#x42d;" horiz-adv-x="664" d="M263 715q169 0 277.5 -98t108.5 -267t-108.5 -267t-277.5 -98q-147 0 -258 77l96 166q80 -55 166 -55q63 0 107 26.5t63 77.5h-228v156h224q-41 94 -166 94q-86 0 -166 -55l-96 166q111 77 258 77z" />
<glyph unicode="&#x42e;" horiz-adv-x="1088" d="M700 715q159 0 266 -101.5t107 -263.5t-107 -263.5t-266 -101.5q-137 0 -238 77.5t-127 206.5h-90v-269h-190v700h190v-269h90q26 129 127 206.5t238 77.5zM700 175q76 0 124.5 47.5t48.5 127.5t-48.5 127.5t-124.5 47.5t-124.5 -47.5t-48.5 -127.5t48.5 -127.5 t124.5 -47.5z" />
<glyph unicode="&#x42f;" horiz-adv-x="683" d="M323 700h305v-700h-190v269l-186 -269h-237l194 260q-74 25 -112 81t-38 129q0 98 66.5 164t197.5 66zM349 532q-93 0 -93 -74q0 -76 93 -76h89v150h-89z" />
<glyph unicode="&#x430;" d="M234 -15q-94 0 -156.5 63t-62.5 183t62.5 183t156.5 63q101 0 148 -74h2v59h185v-462h-185v59h-2q-47 -74 -148 -74zM290 146q37 0 61 23t24 62t-24 62t-61 23t-61 -23t-24 -62t24 -62t61 -23z" />
<glyph unicode="&#x431;" horiz-adv-x="577" d="M301 -15q-125 0 -205.5 80t-80.5 249q0 110 37 187t108 113q19 9 48 19t50 16t49 12.5t30 7.5q18 5 25.5 13t8.5 24h174q0 -132 -95 -164q-10 -3 -97 -23.5t-120 -38.5q-36 -21 -51.5 -55.5t-15.5 -97.5h3q15 70 64.5 102.5t112.5 32.5q93 0 154.5 -63.5t61.5 -168.5 q0 -110 -70.5 -177.5t-190.5 -67.5zM298 146q37 0 61 23t24 62t-24 62t-61 23t-61 -23t-24 -62t24 -62t61 -23z" />
<glyph unicode="&#x432;" horiz-adv-x="553" d="M440 247q47 -5 72.5 -34t25.5 -78q0 -73 -50 -104t-124 -31h-329v462h341q74 0 111 -29.5t37 -79.5q0 -44 -20 -68.5t-64 -34.5v-3zM280 365h-60v-85h60q51 0 51 42q0 43 -51 43zM282 96q58 0 58 47q0 48 -58 48h-62v-95h62z" />
<glyph unicode="&#x433;" horiz-adv-x="374" d="M374 462v-167h-154v-295h-185v462h339z" />
<glyph unicode="&#x434;" horiz-adv-x="627" d="M556 117h61v-247h-160v107h-292v-107h-160v247h58q33 58 33 138v207h171h236h53v-345zM267 263q0 -82 -29 -146h146v208h-117v-62z" />
<glyph unicode="&#x435;" horiz-adv-x="514" d="M266 476q111 0 174.5 -64.5t63.5 -191.5v-32h-318q20 -61 115 -61q53 0 117 26l49 -135q-82 -33 -172 -33q-133 0 -206.5 63.5t-73.5 181.5q0 119 69 182.5t182 63.5zM257 357q-30 0 -51.5 -19t-23.5 -55h147q0 36 -20.5 55t-51.5 19z" />
<glyph unicode="&#x436;" horiz-adv-x="931" d="M931 0h-227l-151 230v-230h-175v230l-151 -230h-227l193 243l-156 219h213l128 -199v199h175v-199l128 199h213l-156 -219z" />
<glyph unicode="&#x437;" horiz-adv-x="468" d="M213 -15q-120 0 -208 31l45 124q93 -31 165 -31q60 0 60 30q0 32 -67 32h-87v121h87q46 0 46 33q0 17 -11.5 24t-38.5 7q-69 0 -145 -26l-35 123q105 24 205 24q208 0 208 -122q0 -93 -118 -107v-2q66 -6 100 -31t34 -86q0 -144 -240 -144z" />
<glyph unicode="&#x438;" d="M35 0v462h175v-234h2l187 234h170v-462h-175v234h-2l-187 -234h-170z" />
<glyph unicode="&#x439;" d="M484 670q0 -76 -52 -126t-130 -50t-130.5 50t-52.5 126h113q5 -69 70 -69t70 69h112zM35 0v462h175v-234h2l187 234h170v-462h-175v234h-2l-187 -234h-170z" />
<glyph unicode="&#x43a;" horiz-adv-x="598" d="M598 0h-237l-141 202v-202h-185v462h185v-179l148 179h223l-202 -210z" />
<glyph unicode="&#x43b;" horiz-adv-x="601" d="M561 462v-462h-185v295h-115v-87q0 -115 -50.5 -164.5t-150.5 -49.5h-55v169h26q24 0 34.5 11.5t10.5 41.5v246h485z" />
<glyph unicode="&#x43c;" horiz-adv-x="730" d="M482 206h-3l-63 -151h-102l-63 151h-3l-58 -206h-180l148 462h131l74 -183h4l74 183h131l148 -462h-180z" />
<glyph unicode="&#x43d;" horiz-adv-x="575" d="M355 462h185v-462h-185v155h-135v-155h-185v462h185v-140h135v140z" />
<glyph unicode="&#x43e;" horiz-adv-x="560" d="M280 -15q-118 0 -191.5 67t-73.5 179t73.5 179t191.5 67t191.5 -67t73.5 -179t-73.5 -179t-191.5 -67zM280 146q39 0 64.5 23t25.5 62t-25.5 62t-64.5 23t-64.5 -23t-25.5 -62t25.5 -62t64.5 -23z" />
<glyph unicode="&#x43f;" horiz-adv-x="575" d="M540 462v-462h-185v295h-135v-295h-185v462h185h320z" />
<glyph unicode="&#x440;" d="M35 -200v662h185v-59h2q47 74 148 74q94 0 156.5 -63t62.5 -183t-62.5 -183t-156.5 -63q-101 0 -148 74h-2v-259h-185zM310 146q40 0 65 22.5t25 62.5t-25 62.5t-65 22.5t-65 -22.5t-25 -62.5t25 -62.5t65 -22.5z" />
<glyph unicode="&#x441;" horiz-adv-x="455" d="M279 -15q-117 0 -190.5 66.5t-73.5 179.5t73.5 179.5t190.5 66.5q94 0 171 -44l-71 -145q-38 24 -83 24q-40 0 -65.5 -22.5t-25.5 -58.5t25.5 -58.5t65.5 -22.5q45 0 83 24l71 -145q-77 -44 -171 -44z" />
<glyph unicode="&#x442;" horiz-adv-x="475" d="M475 462v-165h-145v-297h-185v297h-145v165h330h145z" />
<glyph unicode="&#x443;" horiz-adv-x="593" d="M412 462h181l-318 -662h-185l121 249l-211 413h206l97 -224z" />
<glyph unicode="&#x444;" horiz-adv-x="892" d="M359 -200v259h-2q-44 -74 -138 -74q-91 0 -145 62t-54 184t54 184t145 62q94 0 138 -74h2v272h174v-272h2q44 74 138 74q91 0 145 -62t54 -184t-54 -184t-145 -62q-94 0 -138 74h-2v-259h-174zM284 326q-41 0 -62.5 -25t-21.5 -70t21.5 -70t62.5 -25t63.5 25t22.5 70 t-22.5 70t-63.5 25zM609 326q-42 0 -64.5 -25t-22.5 -70t22.5 -70t64.5 -25q41 0 62 25t21 70t-21 70t-62 25z" />
<glyph unicode="&#x445;" horiz-adv-x="594" d="M386 0l-89 126l-89 -126h-208l188 240l-177 222h209l77 -107l77 107h209l-177 -222l188 -240h-208z" />
<glyph unicode="&#x446;" horiz-adv-x="611" d="M540 167h61v-297h-160v130h-221h-185v462h185v-295h135v295h185v-295z" />
<glyph unicode="&#x447;" horiz-adv-x="541" d="M316 462h185v-462h-185v136h-117q-106 0 -150 41.5t-44 144.5v140h180v-127q0 -53 56 -53h75v180z" />
<glyph unicode="&#x448;" horiz-adv-x="895" d="M675 462h185v-462h-185h-320h-290h-30v462h185v-295h135v295h185v-295h135v295z" />
<glyph unicode="&#x449;" horiz-adv-x="931" d="M860 167h61v-297h-160v130h-221h-320h-185v462h185v-295h135v295h185v-295h135v295h185v-295z" />
<glyph unicode="&#x44a;" horiz-adv-x="631" d="M441 340q83 0 131.5 -45.5t48.5 -124.5t-48.5 -124.5t-131.5 -45.5h-291v295h-150v167h319h16v-122h106zM383 119q63 0 63 51t-63 51h-48v-102h48z" />
<glyph unicode="&#x44b;" horiz-adv-x="764" d="M326 340q83 0 131.5 -45.5t48.5 -124.5t-48.5 -124.5t-131.5 -45.5h-291v462h185v-122h106zM544 462h185v-462h-185v462zM268 119q63 0 63 51t-63 51h-48v-102h48z" />
<glyph unicode="&#x44c;" horiz-adv-x="516" d="M326 340q83 0 131.5 -45.5t48.5 -124.5t-48.5 -124.5t-131.5 -45.5h-291v462h185v-122h106zM268 119q63 0 63 51t-63 51h-48v-102h48z" />
<glyph unicode="&#x44d;" horiz-adv-x="460" d="M189 477q111 0 181 -63.5t70 -182.5t-70 -182.5t-181 -63.5q-102 0 -184 44l66 135q47 -24 104 -24q78 0 99 55h-137v72h137q-21 55 -99 55q-57 0 -104 -24l-66 135q82 44 184 44z" />
<glyph unicode="&#x44e;" horiz-adv-x="817" d="M537 477q118 0 191.5 -67t73.5 -179t-73.5 -179t-191.5 -67q-96 0 -164 45.5t-91 124.5h-62v-155h-185v462h185v-155h62q23 80 91 125t164 45zM537 146q39 0 64.5 23t25.5 62t-25.5 62t-64.5 23t-64.5 -23t-25.5 -62t25.5 -62t64.5 -23z" />
<glyph unicode="&#x44f;" horiz-adv-x="573" d="M210 462h328v-462h-185v166l-131 -166h-212l131 156q-52 17 -80 57.5t-28 91.5q0 74 50 115.5t127 41.5zM295 344q-60 0 -60 -48q0 -47 60 -47h58v95h-58z" />
<glyph unicode="&#x451;" horiz-adv-x="514" d="M243 654v-145h-129v145h129zM421 654v-145h-129v145h129zM266 476q111 0 174.5 -64.5t63.5 -191.5v-32h-318q20 -61 115 -61q53 0 117 26l49 -135q-82 -33 -172 -33q-133 0 -206.5 63.5t-73.5 181.5q0 119 69 182.5t182 63.5zM257 357q-30 0 -51.5 -19t-23.5 -55h147 q0 36 -20.5 55t-51.5 19z" />
<glyph unicode="&#x452;" horiz-adv-x="584" d="M379 477q78 0 124 -47.5t46 -139.5v-290q0 -97 -55 -148.5t-156 -51.5h-60v167h31q24 0 39.5 13t15.5 52v207q0 81 -65 81q-34 0 -54 -23.5t-20 -72.5v-224h-185v539h-70v100h70v61h185v-61h118v-100h-118v-139h2q57 77 152 77z" />
<glyph unicode="&#x453;" horiz-adv-x="374" d="M259 657h204l-188 -154h-145zM374 462v-167h-154v-295h-185v462h339z" />
<glyph unicode="&#x454;" horiz-adv-x="460" d="M285 140q57 0 104 24l66 -135q-82 -44 -184 -44q-111 0 -181 63.5t-70 182.5t70 182.5t181 63.5q102 0 184 -44l-66 -135q-47 24 -104 24q-78 0 -99 -55h137v-72h-137q21 -55 99 -55z" />
<glyph unicode="&#x455;" horiz-adv-x="454" d="M231 -15q-128 0 -226 49l59 132q90 -49 167 -52q37 -1 37 15q0 12 -31 22l-70 23q-63 21 -95 55.5t-32 92.5q0 73 52.5 114t159.5 41q74 0 175 -23l-40 -137q-86 34 -149 34q-28 0 -28 -13q0 -11 23 -18l83 -27q64 -21 96 -53.5t32 -94.5q0 -160 -213 -160z" />
<glyph unicode="&#x456;" horiz-adv-x="265" d="M227 700v-173h-189v173h189zM225 462v-462h-185v462h185z" />
<glyph unicode="&#x457;" horiz-adv-x="265" d="M118 654v-145h-129v145h129zM276 654v-145h-129v145h129zM225 462v-462h-185v462h185z" />
<glyph unicode="&#x458;" horiz-adv-x="265" d="M227 700v-173h-189v173h189zM-40 -31h21q59 0 59 73v420h185v-411q0 -130 -52.5 -192t-162.5 -62h-50v172z" />
<glyph unicode="&#x459;" horiz-adv-x="847" d="M5 -6v169h16q24 0 34.5 11.5t10.5 41.5v246h485v-122h106q83 0 131.5 -45.5t48.5 -124.5t-48.5 -124.5t-131.5 -45.5h-291v295h-115v-87q0 -115 -50.5 -164.5t-150.5 -49.5h-45zM551 119h48q63 0 63 51t-63 51h-48v-102z" />
<glyph unicode="&#x45a;" horiz-adv-x="836" d="M646 340q83 0 131.5 -45.5t48.5 -124.5t-48.5 -124.5t-131.5 -45.5h-291v212h-135v-212h-185v462h185v-122h135v122h185v-122h106zM588 119q63 0 63 46q0 47 -63 47h-48v-93h48z" />
<glyph unicode="&#x45b;" horiz-adv-x="584" d="M379 477q78 0 124 -47.5t46 -139.5v-290h-185v239q0 81 -65 81q-34 0 -54 -23.5t-20 -72.5v-224h-185v539h-70v100h70v61h185v-61h118v-100h-118v-139h2q57 77 152 77z" />
<glyph unicode="&#x45c;" horiz-adv-x="598" d="M528 657l-188 -154h-145l129 154h204zM598 0h-237l-141 202v-202h-185v462h185v-179l148 179h223l-202 -210z" />
<glyph unicode="&#x45e;" horiz-adv-x="593" d="M307 494q-78 0 -130.5 50t-52.5 126h113q5 -69 70 -69t70 69h112q0 -76 -52 -126t-130 -50zM412 462h181l-318 -662h-185l121 249l-211 413h206l97 -224z" />
<glyph unicode="&#x45f;" horiz-adv-x="575" d="M355 462h185v-462h-162v-130h-181v130h-162v462h185v-297h135v297z" />
<glyph unicode="&#x462;" horiz-adv-x="665" d="M396 473q119 0 191.5 -57.5t72.5 -179.5q0 -121 -72.5 -178.5t-191.5 -57.5h-293v520h-98v130h98v50h190v-50h197v-130h-197v-47h103zM382 162q82 0 82 74q0 75 -82 75h-89v-149h89z" />
<glyph unicode="&#x463;" horiz-adv-x="541" d="M351 340q83 0 131.5 -45.5t48.5 -124.5t-48.5 -124.5t-131.5 -45.5h-291v386h-90v76h90v238h185v-238h128v-76h-128v-46h106zM293 123q58 0 58 47t-58 47h-48v-94h48z" />
<glyph unicode="&#x472;" horiz-adv-x="776" d="M388 715q159 0 266 -101.5t107 -263.5t-107 -263.5t-266 -101.5t-266 101.5t-107 263.5t107 263.5t266 101.5zM388 535q-67 0 -115 -36t-63 -99h356q-15 63 -63 99t-115 36zM388 165q67 0 115 36t63 99h-356q15 -63 63 -99t115 -36z" />
<glyph unicode="&#x473;" horiz-adv-x="560" d="M280 477q118 0 191.5 -67t73.5 -179t-73.5 -179t-191.5 -67t-191.5 67t-73.5 179t73.5 179t191.5 67zM280 331q-37 0 -64.5 -18.5t-36.5 -51.5h202q-9 33 -36.5 51.5t-64.5 18.5zM280 131q37 0 64.5 18.5t36.5 51.5h-202q9 -33 36.5 -51.5t64.5 -18.5z" />
<glyph unicode="&#x474;" horiz-adv-x="760" d="M663 494l-182 -494h-209l-272 700h226l150 -472h2l93 274q20 58 36 92t41.5 63t60.5 41t85 12q24 0 66 -5v-164q-21 3 -32 3q-46 0 -65 -50z" />
<glyph unicode="&#x475;" horiz-adv-x="570" d="M530 471h40v-158h-10q-20 0 -33 -8.5t-24 -34.5l-119 -270h-187l-197 462h202l90 -261l56 154q25 67 66 91.5t116 24.5z" />
<glyph unicode="&#x48e;" horiz-adv-x="617" d="M612 453q0 -146 -109 -208l31 -44l-62 -45l-43 61q-47 -11 -101 -11h-83v-206h-190v700h273q143 0 213.5 -67.5t70.5 -179.5zM346 468l49 -70q21 21 21 55q0 39 -25 59t-68 20h-78v-158h74l-35 49z" />
<glyph unicode="&#x48f;" d="M589 231q0 -129 -76 -195l33 -40l-58 -47l-40 49q-35 -13 -78 -13q-101 0 -148 74h-2v-259h-185v662h185v-59h2q47 74 148 74q94 0 156.5 -63t62.5 -183zM310 146q11 0 16 1l-43 52l58 47l48 -59q11 19 11 44q0 40 -25 62.5t-65 22.5t-65 -22.5t-25 -62.5t25 -62.5 t65 -22.5z" />
<glyph unicode="&#x490;" horiz-adv-x="518" d="M323 840h190v-314h-268v-526h-190v700h268v140z" />
<glyph unicode="&#x491;" horiz-adv-x="424" d="M244 562h180v-267h-204v-295h-185v462h209v100z" />
<glyph unicode="&#x492;" horiz-adv-x="529" d="M524 526h-253v-137h189v-150h-189v-239h-190v239h-76v150h76v311h443v-174z" />
<glyph unicode="&#x493;" horiz-adv-x="419" d="M419 295h-154v-64h108v-120h-108v-111h-185v111h-75v120h75v231h339v-167z" />
<glyph unicode="&#x494;" horiz-adv-x="679" d="M457 437q102 0 152 -41.5t50 -132.5v-199q0 -138 -70.5 -201t-193.5 -63h-60v174h42q43 0 67.5 17t24.5 64v173q0 25 -14 34.5t-45 9.5q-42 0 -165 -11v-261h-190v700h443v-174h-253v-100q119 11 212 11z" />
<glyph unicode="&#x495;" horiz-adv-x="568" d="M355 243q87 0 142.5 -43t55.5 -137v-58q0 -101 -60.5 -153t-154.5 -52h-57v167h34q24 0 41 12.5t17 34.5v34q0 24 -12 32.5t-44 8.5q-38 0 -97 -11v-78h-185v462h417v-167h-232v-62q73 10 135 10z" />
<glyph unicode="&#x496;" horiz-adv-x="1159" d="M1071 115h98v-255h-190v140h-74l-236 341v-341h-180v341l-236 -341h-253l279 367l-242 333h243l209 -324v324h180v-324l209 324h243l-242 -333z" />
<glyph unicode="&#x497;" horiz-adv-x="983" d="M871 75h102v-205h-160v130h-109l-151 230v-230h-175v230l-151 -230h-227l193 243l-156 219h213l128 -199v199h175v-199l128 199h213l-156 -219z" />
<glyph unicode="&#x498;" horiz-adv-x="635" d="M610 192q0 -89 -65.5 -145.5t-212.5 -61.5l-9 -22q93 -12 93 -68q0 -25 -23 -43.5t-55 -30t-87 -27.5q-14 -4 -22 -6l-19 43q46 19 62 29t16 19q0 12 -9.5 16.5t-36.5 9.5l33 81q-169 5 -270 67l81 156q105 -54 214 -54q113 0 113 57q0 69 -165 69h-71v151h73 q70 0 105 18t35 45q0 52 -97 52q-84 0 -199 -50l-69 162q136 56 290 56q126 0 196.5 -48.5t70.5 -130.5q0 -66 -36 -109t-107 -57v-2q83 -12 127 -53t44 -123z" />
<glyph unicode="&#x499;" horiz-adv-x="468" d="M453 129q0 -127 -189 -142l-10 -24q93 -12 93 -68q0 -25 -23 -43.5t-55 -30t-87 -27.5q-14 -4 -22 -6l-19 43q46 19 62 29t16 19q0 12 -9.5 16.5t-36.5 9.5l32 80q-115 2 -200 31l45 124q93 -31 165 -31q60 0 60 30q0 32 -67 32h-87v121h87q46 0 46 33q0 17 -11.5 24 t-38.5 7q-69 0 -145 -26l-35 123q105 24 205 24q208 0 208 -122q0 -93 -118 -107v-2q66 -6 100 -31t34 -86z" />
<glyph unicode="&#x49a;" horiz-adv-x="776" d="M673 115h113v-255h-190v140h-86l-265 324v-324h-190v700h190v-308l236 308h246l-275 -333z" />
<glyph unicode="&#x49b;" horiz-adv-x="643" d="M536 75h97v-205h-160v130h-112l-141 202v-202h-185v462h185v-179l148 179h223l-202 -210z" />
<glyph unicode="&#x49c;" horiz-adv-x="864" d="M605 0l-211 282h-33v-111h-60v111h-56v-282h-190v700h190v-244h56v110h60v-110h44l166 244h246l-264 -333l311 -367h-259z" />
<glyph unicode="&#x49d;" horiz-adv-x="629" d="M410 0l-113 177h-20v-79h-28v79h-29v-177h-185v462h185v-145h29v80h28v-80h16l103 145h205l-170 -214l198 -248h-219z" />
<glyph unicode="&#x49e;" horiz-adv-x="812" d="M812 0h-264l-265 324v-324h-190v543h-88v110h88v47h190v-47h80v-110h-80v-151l236 308h246l-275 -333z" />
<glyph unicode="&#x49f;" horiz-adv-x="603" d="M603 0h-237l-141 202v-202h-185v539h-70v100h70v61h185v-61h118v-100h-118v-248l118 171h223l-172 -210z" />
<glyph unicode="&#x4a0;" horiz-adv-x="913" d="M913 0h-264l-265 324v-324h-190v526h-189v174h375h4v-308l236 308h246l-275 -333z" />
<glyph unicode="&#x4a1;" horiz-adv-x="713" d="M713 0h-237l-141 202v-202h-185v296h-150v166h294h41v-179l148 179h223l-202 -210z" />
<glyph unicode="&#x4a2;" horiz-adv-x="729" d="M674 115h95v-255h-190v140h-95v272h-239v-272h-190v700h190v-254h239v254h190v-585z" />
<glyph unicode="&#x4a3;" horiz-adv-x="630" d="M540 75h80v-205h-160v130h-105v155h-135v-155h-185v462h185v-140h135v140h185v-387z" />
<glyph unicode="&#x4a4;" horiz-adv-x="909" d="M904 700v-174h-240v-526h-190v272h-229v-272h-190v700h190v-254h229v254h430z" />
<glyph unicode="&#x4a5;" horiz-adv-x="690" d="M690 462v-155h-150v-307h-185v155h-135v-155h-185v462h185v-140h135v140h335z" />
<glyph unicode="&#x4a6;" horiz-adv-x="1097" d="M880 457q99 0 148 -42t49 -134v-80q0 -99 -62 -150t-172 -51h-50v174h41q29 0 43.5 9.5t14.5 38.5v26q0 25 -14 34.5t-45 9.5q-41 0 -159 -11v-281h-190v526h-239v-526h-190v700h619v-254q116 11 206 11z" />
<glyph unicode="&#x4a7;" horiz-adv-x="887" d="M674 313q87 0 142.5 -43t55.5 -137v-128q0 -101 -60.5 -153t-154.5 -52h-53v167h36q52 0 52 47v104q0 41 -56 41q-37 0 -96 -11v-148h-185v295h-135v-295h-185v462h185h300h20v-158q79 9 134 9z" />
<glyph unicode="&#x4a8;" horiz-adv-x="851" d="M846 16q-71 -31 -159 -31q-87 0 -153 29q-66 -28 -146 -28q-166 0 -264.5 101t-98.5 267q0 172 107.5 266.5t297.5 94.5q60 0 111 -8l-29 -167q-21 4 -52 4q-111 0 -172 -49t-61 -149q0 -78 36.5 -130t98.5 -71q-39 67 -39 147q0 103 62 157t165 54q102 0 160.5 -52.5 t58.5 -149.5q0 -103 -65 -178q48 0 107 18zM550 358q-60 0 -60 -76q0 -69 51 -112q66 43 66 119q0 69 -57 69z" />
<glyph unicode="&#x4a9;" horiz-adv-x="620" d="M588 93l27 -89q-51 -19 -95 -19q-62 0 -106 35q-49 -35 -140 -35q-119 0 -189 66.5t-70 181.5q0 124 82 184t215 60q58 0 123 -10l-26 -117q-31 6 -64 6q-74 0 -117.5 -31t-43.5 -97q0 -89 84 -116q-15 33 -15 72q0 71 47.5 109t123.5 38q72 0 117 -35t45 -102 q0 -70 -51 -116q26 5 53 15zM422 210q-42 0 -42 -48q0 -31 19 -52q62 16 62 59q0 18 -10 29.5t-29 11.5z" />
<glyph unicode="&#x4aa;" horiz-adv-x="664" d="M659 62q-101 -71 -233 -76l-10 -23q93 -12 93 -68q0 -25 -23 -43.5t-55 -30t-87 -27.5l-7.5 -1.5t-7 -2l-7.5 -2.5l-19 43q46 19 62 29t16 19q0 12 -9.5 16.5t-36.5 9.5l33 81q-156 10 -254.5 106.5t-98.5 257.5q0 169 108.5 267t276.5 98q148 0 259 -77l-100 -163 q-77 53 -153 53q-81 0 -136 -47t-55 -131t55 -131t136 -47q76 0 153 53z" />
<glyph unicode="&#x4ab;" horiz-adv-x="455" d="M450 29q-68 -39 -152 -44l-10 -22q93 -12 93 -68q0 -25 -23 -43.5t-55 -30t-87 -27.5q-14 -4 -22 -6l-19 43q46 19 62 29t16 19q0 12 -9.5 16.5t-36.5 9.5l33 82q-101 11 -163 75.5t-62 168.5q0 113 73.5 179.5t190.5 66.5q94 0 171 -44l-71 -145q-38 24 -83 24 q-40 0 -65.5 -22.5t-25.5 -58.5t25.5 -58.5t65.5 -22.5q45 0 83 24z" />
<glyph unicode="&#x4ac;" horiz-adv-x="550" d="M545 526h-175v-411h91v-255h-190v140h-91v526h-175v174h540v-174z" />
<glyph unicode="&#x4ad;" horiz-adv-x="475" d="M475 297h-145v-222h80v-205h-160v130h-105v297h-145v165h330h145v-165z" />
<glyph unicode="&#x4ae;" horiz-adv-x="733" d="M733 700l-271 -464v-236h-191v234l-271 466h227l138 -281h3l138 281h227z" />
<glyph unicode="&#x4af;" horiz-adv-x="581" d="M581 462l-198 -460v-202h-185v202l-198 460h202l89 -258l88 258h202z" />
<glyph unicode="&#x4b0;" horiz-adv-x="733" d="M733 700l-256 -439h102v-130h-117v-131h-191v131h-116v130h100l-255 439h227l138 -281h3l138 281h227z" />
<glyph unicode="&#x4b1;" horiz-adv-x="581" d="M383 2h108v-116h-108v-86h-185v86h-108v116h108l-198 460h202l89 -258l88 258h202z" />
<glyph unicode="&#x4b2;" horiz-adv-x="857" d="M715 115h152v-255h-190v140h-117l-160 222l-160 -222h-240l275 372l-249 328h240l134 -180l134 180h240l-249 -328z" />
<glyph unicode="&#x4b3;" horiz-adv-x="594" d="M535 75h74v-205h-160v130h-63l-89 126l-89 -126h-208l188 240l-177 222h209l77 -107l77 107h209l-177 -222z" />
<glyph unicode="&#x4b4;" horiz-adv-x="902" d="M806 162h91v-304h-180v142h-527v524h-185v176h375h135v-176h-135v-362h236v538h190v-538z" />
<glyph unicode="&#x4b5;" horiz-adv-x="718" d="M647 167h61v-297h-160v130h-221h-185v297h-142v165h327h78v-165h-78v-130h135v295h185v-295z" />
<glyph unicode="&#x4b6;" horiz-adv-x="710" d="M605 115h115v-255h-190v140h-115v248h-157q-122 0 -180 51.5t-58 161.5v239h190v-206q0 -72 71 -72h134v278h190v-585z" />
<glyph unicode="&#x4b7;" horiz-adv-x="591" d="M501 75h80v-205h-160v130h-105v136h-117q-106 0 -150 41.5t-44 144.5v140h180v-127q0 -53 56 -53h75v180h185v-387z" />
<glyph unicode="&#x4b8;" horiz-adv-x="660" d="M415 700h190v-700h-190v248h-62v-113h-60v113h-35q-122 0 -180 51.5t-58 161.5v239h190v-206q0 -72 71 -72h12v108h60v-108h62v278z" />
<glyph unicode="&#x4b9;" horiz-adv-x="541" d="M316 462h185v-462h-185v136h-44v-67h-30v67h-43q-106 0 -150 41.5t-44 144.5v140h180v-127q0 -53 56 -53h1v86h30v-86h44v180z" />
<glyph unicode="&#x4ba;" horiz-adv-x="660" d="M402 452q122 0 180 -51.5t58 -161.5v-239h-190v206q0 72 -71 72h-134v-278h-190v700h190v-248h157z" />
<glyph unicode="&#x4bb;" horiz-adv-x="584" d="M225 700v-300h2q57 77 152 77q78 0 124 -47.5t46 -139.5v-290h-185v239q0 81 -65 81q-34 0 -54 -23.5t-20 -72.5v-224h-185v700h185z" />
<glyph unicode="&#x4bc;" horiz-adv-x="983" d="M968 342v-69h-529q42 -108 197 -108q95 0 209 38l55 -172q-128 -46 -261 -46q-161 0 -268.5 76t-131.5 212h-10q-101 0 -162.5 50.5t-61.5 156.5q0 48 12 81h161q-12 -33 -12 -72q0 -66 61 -66h11q23 133 122.5 212.5t254.5 79.5q170 0 261.5 -98t91.5 -275zM605 550 q-145 0 -174 -127h339q-10 64 -53.5 95.5t-111.5 31.5z" />
<glyph unicode="&#x4bd;" horiz-adv-x="651" d="M641 220v-32h-318q20 -61 115 -61q53 0 117 26l49 -135q-82 -33 -172 -33q-120 0 -192 52.5t-85 150.5h-17q-64 0 -98.5 33.5t-34.5 94.5q0 25 7 55h109q-7 -30 -7 -49q0 -39 38 -39h4q15 94 81.5 143.5t165.5 49.5q111 0 174.5 -64.5t63.5 -191.5zM319 283h147 q0 36 -20.5 55t-51.5 19q-30 0 -51.5 -19t-23.5 -55z" />
<glyph unicode="&#x4be;" horiz-adv-x="983" d="M968 342v-69h-529q42 -108 197 -108q95 0 209 38l55 -172q-33 -12 -69 -21q-90 -79 -90 -103q0 -9 7.5 -14.5t17.5 -5.5q14 0 37 5l14 -114q-13 -1 -29 -3t-26 -3t-17 -1q-127 0 -127 93q0 54 71 123q-34 -2 -50 -2q-161 0 -268.5 76t-131.5 212h-10q-101 0 -162.5 50.5 t-61.5 156.5q0 48 12 81h161q-12 -33 -12 -72q0 -66 61 -66h11q23 133 122.5 212.5t254.5 79.5q170 0 261.5 -98t91.5 -275zM605 550q-145 0 -174 -127h339q-10 64 -53.5 95.5t-111.5 31.5z" />
<glyph unicode="&#x4bf;" horiz-adv-x="651" d="M641 220v-32h-318q20 -61 115 -61q53 0 117 26l49 -135l-24 -9q-89 -77 -89 -102q0 -9 7.5 -14.5t17.5 -5.5q14 0 37 5l14 -114q-13 -1 -29 -3t-26 -3t-17 -1q-127 0 -127 93q0 54 69 121h-5q-120 0 -192 52.5t-85 150.5h-17q-64 0 -98.5 33.5t-34.5 94.5q0 25 7 55h109 q-7 -30 -7 -49q0 -39 38 -39h4q15 94 81.5 143.5t165.5 49.5q111 0 174.5 -64.5t63.5 -191.5zM319 283h147q0 36 -20.5 55t-51.5 19q-30 0 -51.5 -19t-23.5 -55z" />
<glyph unicode="&#x4c0;" horiz-adv-x="300" d="M245 700v-700h-190v700h190z" />
<glyph unicode="&#x4c1;" horiz-adv-x="1158" d="M579 719q-85 0 -132 38.5t-51 106.5h122q0 -25 16 -40t45 -15t45 15t16 40h122q-4 -68 -51 -106.5t-132 -38.5zM1158 0h-253l-236 341v-341h-180v341l-236 -341h-253l279 367l-242 333h243l209 -324v324h180v-324l209 324h243l-242 -333z" />
<glyph unicode="&#x4c2;" horiz-adv-x="931" d="M466 494q-78 0 -130.5 50t-52.5 126h113q5 -69 70 -69t70 69h112q0 -76 -52 -126t-130 -50zM931 0h-227l-151 230v-230h-175v230l-151 -230h-227l193 243l-156 219h213l128 -199v199h175v-199l128 199h213l-156 -219z" />
<glyph unicode="&#x4c3;" horiz-adv-x="750" d="M506 387q92 0 137 -39t45 -125v-159q0 -138 -70.5 -201t-193.5 -63h-60v174h42q43 0 67.5 17t24.5 64v133q0 25 -14 34.5t-45 9.5q-51 0 -194 -11v-221h-190v700h190v-292l236 292h249l-296 -314q25 1 72 1z" />
<glyph unicode="&#x4c4;" horiz-adv-x="581" d="M354 247q87 0 143 -41.5t56 -132.5v-78q0 -96 -60.5 -145.5t-154.5 -49.5h-57v167h34q24 0 41 12.5t17 34.5v34q0 47 -11.5 63t-44.5 16q-52 0 -97 -5v-122h-185v462h185v-176l128 176h223z" />
<glyph unicode="&#x4c5;" horiz-adv-x="794" d="M693 107h111l-98 -237h-147l49 130h-105v526h-224v-346q0 -95 -49 -139t-151 -44h-69v174h48q12 0 21.5 10t9.5 22v497h604v-593z" />
<glyph unicode="&#x4c6;" horiz-adv-x="662" d="M561 107h111l-98 -237h-147l49 130h-100v295h-115v-87q0 -115 -50.5 -164.5t-150.5 -49.5h-55v169h26q24 0 34.5 11.5t10.5 41.5v246h185h300v-355z" />
<glyph unicode="&#x4c7;" horiz-adv-x="729" d="M484 700h190v-700v-2q0 -198 -215 -198h-73v174h40q58 0 58 49v249h-239v-272h-190v700h190v-254h239v254z" />
<glyph unicode="&#x4c8;" horiz-adv-x="575" d="M355 462h185v-462q0 -97 -55 -148.5t-156 -51.5h-60v167h31q24 0 39.5 13t15.5 52v123h-135v-155h-185v462h185v-140h135v140z" />
<glyph unicode="&#x4c9;" horiz-adv-x="775" d="M674 107h111l-98 -237h-147l49 130h-105v272h-239v-272h-190v700h190v-254h239v254h190v-593z" />
<glyph unicode="&#x4ca;" horiz-adv-x="641" d="M540 107h111l-98 -237h-147l49 130h-100v155h-135v-155h-185v462h185v-140h135v140h185v-355z" />
<glyph unicode="&#x4cb;" horiz-adv-x="660" d="M605 700v-700h-119v-140h-190v255h119v133h-157q-122 0 -180 51.5t-58 161.5v239h190v-206q0 -72 71 -72h134v278h190z" />
<glyph unicode="&#x4cc;" horiz-adv-x="541" d="M501 462v-462h-134v-130h-160v205h109v61h-117q-106 0 -150 41.5t-44 144.5v140h180v-127q0 -53 56 -53h75v180h185z" />
<glyph unicode="&#x4cd;" horiz-adv-x="1040" d="M909 107h141l-98 -237h-147l49 130h-108l-98 349h-2l-114 -254h-125l-114 254h-2l-98 -349h-193l197 700h141l131 -305h1l131 305h141z" />
<glyph unicode="&#x4ce;" horiz-adv-x="821" d="M686 107h145l-98 -237h-147l49 130h-95l-58 206h-3l-63 -151h-102l-63 151h-3l-58 -206h-180l148 462h131l74 -183h4l74 183h131z" />
<glyph unicode="&#x4cf;" horiz-adv-x="265" d="M225 462v-462h-185v462h185z" />
<glyph unicode="&#x4d0;" horiz-adv-x="745" d="M373 719q-85 0 -132 38.5t-51 106.5h122q0 -25 16 -40t45 -15t45 15t16 40h122q-4 -68 -51 -106.5t-132 -38.5zM535 0l-43 131h-239l-43 -131h-210l271 700h203l271 -700h-210zM301 281h143l-71 219z" />
<glyph unicode="&#x4d1;" d="M479 670q0 -76 -52 -126t-130 -50t-130.5 50t-52.5 126h113q5 -69 70 -69t70 69h112zM234 -15q-94 0 -156.5 63t-62.5 183t62.5 183t156.5 63q101 0 148 -74h2v59h185v-462h-185v59h-2q-47 -74 -148 -74zM290 146q37 0 61 23t24 62t-24 62t-61 23t-61 -23t-24 -62t24 -62 t61 -23z" />
<glyph unicode="&#x4d2;" horiz-adv-x="745" d="M338 863v-120h-151v120h151zM559 863v-120h-151v120h151zM535 0l-43 131h-239l-43 -131h-210l271 700h203l271 -700h-210zM301 281h143l-71 219z" />
<glyph unicode="&#x4d3;" d="M272 654v-145h-129v145h129zM450 654v-145h-129v145h129zM234 -15q-94 0 -156.5 63t-62.5 183t62.5 183t156.5 63q101 0 148 -74h2v59h185v-462h-185v59h-2q-47 -74 -148 -74zM290 146q37 0 61 23t24 62t-24 62t-61 23t-61 -23t-24 -62t24 -62t61 -23z" />
<glyph unicode="&#x4d4;" horiz-adv-x="1055" d="M774 174h251v-174h-298h-138v131h-271l-80 -131h-238l466 700h308h236v-174h-236v-83h205v-165h-205v-104zM410 281h179v292z" />
<glyph unicode="&#x4d5;" horiz-adv-x="832" d="M590 476q104 0 165.5 -66t61.5 -197v-25h-319q22 -61 116 -61q53 0 117 26l49 -134q-81 -34 -175 -34q-152 0 -205 87h-2q-64 -87 -199 -87q-92 0 -143 44t-51 121t47 120t128 43q101 0 147 -58h2v14q0 80 -103 80q-47 0 -128 -12l-20 125q90 15 164 15q135 0 171 -77h2 q52 76 175 76zM570 357q-30 0 -51.5 -19t-23.5 -55h147q0 37 -20.5 55.5t-51.5 18.5zM271 207q-27 0 -43 -13t-16 -36q0 -47 59 -47q27 0 43.5 13.5t16.5 33.5q0 22 -16 35.5t-44 13.5z" />
<glyph unicode="&#x4d6;" horiz-adv-x="546" d="M285 719q-85 0 -132 38.5t-51 106.5h122q0 -25 16 -40t45 -15t45 15t16 40h122q-4 -68 -51 -106.5t-132 -38.5zM245 174h271v-174h-461v700h446v-174h-256v-83h225v-165h-225v-104z" />
<glyph unicode="&#x4d7;" horiz-adv-x="514" d="M450 670q0 -76 -52 -126t-130 -50t-130.5 50t-52.5 126h113q5 -69 70 -69t70 69h112zM266 476q111 0 174.5 -64.5t63.5 -191.5v-32h-318q20 -61 115 -61q53 0 117 26l49 -135q-82 -33 -172 -33q-133 0 -206.5 63.5t-73.5 181.5q0 119 69 182.5t182 63.5zM257 357 q-30 0 -51.5 -19t-23.5 -55h147q0 36 -20.5 55t-51.5 19z" />
<glyph unicode="&#x4d8;" horiz-adv-x="766" d="M357 715q180 0 287 -93.5t107 -271.5q0 -168 -97 -266.5t-269 -98.5q-171 0 -270.5 103t-99.5 270v69h533q-20 60 -69.5 84t-129.5 24q-107 0 -214 -38l-52 178q130 40 274 40zM385 150q146 0 170 127h-343q18 -127 173 -127z" />
<glyph unicode="&#x4d9;" horiz-adv-x="514" d="M248 -14q-111 0 -174.5 64.5t-63.5 191.5v32h318q-20 61 -115 61q-53 0 -117 -26l-49 135q82 33 172 33q133 0 206.5 -63.5t73.5 -181.5q0 -119 -69 -182.5t-182 -63.5zM257 105q30 0 51.5 19t23.5 55h-147q0 -36 20.5 -55t51.5 -19z" />
<glyph unicode="&#x4da;" horiz-adv-x="766" d="M338 863v-120h-151v120h151zM559 863v-120h-151v120h151zM357 715q180 0 287 -93.5t107 -271.5q0 -168 -97 -266.5t-269 -98.5q-171 0 -270.5 103t-99.5 270v69h533q-20 60 -69.5 84t-129.5 24q-107 0 -214 -38l-52 178q130 40 274 40zM385 150q146 0 170 127h-343 q18 -127 173 -127z" />
<glyph unicode="&#x4db;" horiz-adv-x="514" d="M236 654v-145h-129v145h129zM414 654v-145h-129v145h129zM248 -14q-111 0 -174.5 64.5t-63.5 191.5v32h318q-20 61 -115 61q-53 0 -117 -26l-49 135q82 33 172 33q133 0 206.5 -63.5t73.5 -181.5q0 -119 -69 -182.5t-182 -63.5zM257 105q30 0 51.5 19t23.5 55h-147 q0 -36 20.5 -55t51.5 -19z" />
<glyph unicode="&#x4dc;" horiz-adv-x="1158" d="M544 863v-120h-151v120h151zM765 863v-120h-151v120h151zM1158 0h-253l-236 341v-341h-180v341l-236 -341h-253l279 367l-242 333h243l209 -324v324h180v-324l209 324h243l-242 -333z" />
<glyph unicode="&#x4dd;" horiz-adv-x="931" d="M441 654v-145h-129v145h129zM619 654v-145h-129v145h129zM931 0h-227l-151 230v-230h-175v230l-151 -230h-227l193 243l-156 219h213l128 -199v199h175v-199l128 199h213l-156 -219z" />
<glyph unicode="&#x4de;" horiz-adv-x="635" d="M283 863v-120h-151v120h151zM504 863v-120h-151v120h151zM315 715q126 0 196.5 -48.5t70.5 -130.5q0 -66 -36 -109t-107 -57v-2q83 -12 127 -53t44 -123q0 -92 -71 -149.5t-229 -57.5q-194 0 -305 68l81 156q105 -54 214 -54q113 0 113 57q0 69 -165 69h-71v151h73 q70 0 105 18t35 45q0 52 -97 52q-84 0 -199 -50l-69 162q136 56 290 56z" />
<glyph unicode="&#x4df;" horiz-adv-x="468" d="M201 654v-145h-129v145h129zM379 654v-145h-129v145h129zM213 -15q-120 0 -208 31l45 124q93 -31 165 -31q60 0 60 30q0 32 -67 32h-87v121h87q46 0 46 33q0 17 -11.5 24t-38.5 7q-69 0 -145 -26l-35 123q105 24 205 24q208 0 208 -122q0 -93 -118 -107v-2q66 -6 100 -31 t34 -86q0 -144 -240 -144z" />
<glyph unicode="&#x4e0;" horiz-adv-x="576" d="M272 -15q-151 0 -267 57l80 174q100 -48 184 -48q95 0 95 53q0 71 -139 71h-88v129l130 107h-202v172h453v-129l-211 -158q26 10 60 10q86 0 142.5 -55t56.5 -148q0 -116 -71 -175.5t-223 -59.5z" />
<glyph unicode="&#x4e1;" horiz-adv-x="500" d="M208 -215q-124 0 -228 51l69 153q91 -43 159 -43q41 0 66 16.5t25 48.5q0 68 -110 68h-103v112l138 113h-199v158h415v-129l-184 -144q24 5 49 5q77 0 126 -50t49 -139q0 -98 -65 -159t-207 -61z" />
<glyph unicode="&#x4e2;" horiz-adv-x="780" d="M577 851v-109h-345v109h345zM55 700h190v-386h2l330 386h148v-700h-190v386h-2l-330 -386h-148v700z" />
<glyph unicode="&#x4e3;" d="M468 640v-116h-332v116h332zM35 0v462h175v-234h2l187 234h170v-462h-175v234h-2l-187 -234h-170z" />
<glyph unicode="&#x4e4;" horiz-adv-x="780" d="M370 863v-120h-151v120h151zM591 863v-120h-151v120h151zM55 700h190v-386h2l330 386h148v-700h-190v386h-2l-330 -386h-148v700z" />
<glyph unicode="&#x4e5;" d="M277 654v-145h-129v145h129zM455 654v-145h-129v145h129zM35 0v462h175v-234h2l187 234h170v-462h-175v234h-2l-187 -234h-170z" />
<glyph unicode="&#x4e6;" horiz-adv-x="776" d="M353 863v-120h-151v120h151zM574 863v-120h-151v120h151zM388 715q159 0 266 -101.5t107 -263.5t-107 -263.5t-266 -101.5t-266 101.5t-107 263.5t107 263.5t266 101.5zM388 525q-76 0 -124.5 -47.5t-48.5 -127.5t48.5 -127.5t124.5 -47.5t124.5 47.5t48.5 127.5 t-48.5 127.5t-124.5 47.5z" />
<glyph unicode="&#x4e7;" horiz-adv-x="560" d="M255 654v-145h-129v145h129zM433 654v-145h-129v145h129zM280 -15q-118 0 -191.5 67t-73.5 179t73.5 179t191.5 67t191.5 -67t73.5 -179t-73.5 -179t-191.5 -67zM280 146q39 0 64.5 23t25.5 62t-25.5 62t-64.5 23t-64.5 -23t-25.5 -62t25.5 -62t64.5 -23z" />
<glyph unicode="&#x4e8;" horiz-adv-x="776" d="M388 715q159 0 266 -101.5t107 -263.5t-107 -263.5t-266 -101.5t-266 101.5t-107 263.5t107 263.5t266 101.5zM388 535q-67 0 -115 -36t-63 -99h356q-15 63 -63 99t-115 36zM388 165q67 0 115 36t63 99h-356q15 -63 63 -99t115 -36z" />
<glyph unicode="&#x4e9;" horiz-adv-x="560" d="M280 477q118 0 191.5 -67t73.5 -179t-73.5 -179t-191.5 -67t-191.5 67t-73.5 179t73.5 179t191.5 67zM280 331q-37 0 -64.5 -18.5t-36.5 -51.5h202q-9 33 -36.5 51.5t-64.5 18.5zM280 131q37 0 64.5 18.5t36.5 51.5h-202q9 -33 36.5 -51.5t64.5 -18.5z" />
<glyph unicode="&#x4ea;" horiz-adv-x="776" d="M353 863v-120h-151v120h151zM574 863v-120h-151v120h151zM388 715q159 0 266 -101.5t107 -263.5t-107 -263.5t-266 -101.5t-266 101.5t-107 263.5t107 263.5t266 101.5zM388 535q-67 0 -115 -36t-63 -99h356q-15 63 -63 99t-115 36zM388 165q67 0 115 36t63 99h-356 q15 -63 63 -99t115 -36z" />
<glyph unicode="&#x4eb;" horiz-adv-x="560" d="M255 654v-145h-129v145h129zM433 654v-145h-129v145h129zM280 477q118 0 191.5 -67t73.5 -179t-73.5 -179t-191.5 -67t-191.5 67t-73.5 179t73.5 179t191.5 67zM280 331q-37 0 -64.5 -18.5t-36.5 -51.5h202q-9 33 -36.5 51.5t-64.5 18.5zM280 131q37 0 64.5 18.5 t36.5 51.5h-202q9 -33 36.5 -51.5t64.5 -18.5z" />
<glyph unicode="&#x4ec;" horiz-adv-x="664" d="M260 863v-120h-151v120h151zM481 863v-120h-151v120h151zM263 715q169 0 277.5 -98t108.5 -267t-108.5 -267t-277.5 -98q-147 0 -258 77l96 166q80 -55 166 -55q63 0 107 26.5t63 77.5h-228v156h224q-41 94 -166 94q-86 0 -166 -55l-96 166q111 77 258 77z" />
<glyph unicode="&#x4ed;" horiz-adv-x="460" d="M174 654v-145h-129v145h129zM352 654v-145h-129v145h129zM189 477q111 0 181 -63.5t70 -182.5t-70 -182.5t-181 -63.5q-102 0 -184 44l66 135q47 -24 104 -24q78 0 99 55h-137v72h137q-21 55 -99 55q-57 0 -104 -24l-66 135q82 44 184 44z" />
<glyph unicode="&#x4ee;" horiz-adv-x="763" d="M559 851v-109h-345v109h345zM548 700h215l-342 -700h-215l73 149l-279 551h229l160 -325z" />
<glyph unicode="&#x4ef;" horiz-adv-x="593" d="M473 640v-116h-332v116h332zM412 462h181l-318 -662h-185l121 249l-211 413h206l97 -224z" />
<glyph unicode="&#x4f0;" horiz-adv-x="763" d="M352 863v-120h-151v120h151zM573 863v-120h-151v120h151zM548 700h215l-342 -700h-215l73 149l-279 551h229l160 -325z" />
<glyph unicode="&#x4f1;" horiz-adv-x="593" d="M282 654v-145h-129v145h129zM460 654v-145h-129v145h129zM412 462h181l-318 -662h-185l121 249l-211 413h206l97 -224z" />
<glyph unicode="&#x4f2;" horiz-adv-x="763" d="M510 863l-120 -120h-125l112 120h133zM575 743h-125l112 120h133zM548 700h215l-342 -700h-215l73 149l-279 551h229l160 -325z" />
<glyph unicode="&#x4f3;" horiz-adv-x="593" d="M429 657l-159 -154h-133l142 154h150zM470 503h-133l142 154h150zM303 238l109 224h181l-318 -662h-185l121 249l-211 413h206z" />
<glyph unicode="&#x4f4;" horiz-adv-x="660" d="M278 863v-120h-151v120h151zM499 863v-120h-151v120h151zM415 700h190v-700h-190v248h-157q-122 0 -180 51.5t-58 161.5v239h190v-206q0 -72 71 -72h134v278z" />
<glyph unicode="&#x4f5;" horiz-adv-x="541" d="M226 654v-145h-129v145h129zM404 654v-145h-129v145h129zM316 462h185v-462h-185v136h-117q-106 0 -150 41.5t-44 144.5v140h180v-127q0 -53 56 -53h75v180z" />
<glyph unicode="&#x4f8;" horiz-adv-x="911" d="M451 863v-120h-151v120h151zM672 863v-120h-151v120h151zM348 473q119 0 191.5 -57.5t72.5 -179.5q0 -121 -72.5 -178.5t-191.5 -57.5h-293v700h190v-227h103zM666 700h190v-700h-190v700zM334 162q82 0 82 74q0 75 -82 75h-89v-149h89z" />
<glyph unicode="&#x4f9;" horiz-adv-x="764" d="M369 654v-145h-129v145h129zM547 654v-145h-129v145h129zM326 340q83 0 131.5 -45.5t48.5 -124.5t-48.5 -124.5t-131.5 -45.5h-291v462h185v-122h106zM544 462h185v-462h-185v462zM268 119q63 0 63 51t-63 51h-48v-102h48z" />
<glyph unicode="&#x4fc;" horiz-adv-x="774" d="M525 372l148 -205q47 -64 67 -106t20 -90q0 -81 -57 -126t-198 -45h-42l1 174h32q42 0 42 34q0 23 -36 72l-102 142l-160 -222h-240l275 372l-249 328h240l134 -180l134 180h240z" />
<glyph unicode="&#x4fd;" horiz-adv-x="573" d="M406 240l100 -127q55 -71 55 -148q0 -165 -211 -165h-60v167h41q45 0 45 32q0 16 -26 52l-53 75l-89 -126h-208l188 240l-177 222h209l77 -107l77 107h209z" />
<glyph unicode="&#x2013;" horiz-adv-x="732" d="M692 342v-140h-652v140h652z" />
<glyph unicode="&#x2014;" horiz-adv-x="1154" d="M1104 342v-134h-1054v134h1054z" />
<glyph unicode="&#x2018;" horiz-adv-x="207" d="M126 623h61v-161h-162v161l85 162h67z" />
<glyph unicode="&#x2019;" horiz-adv-x="207" d="M20 715h162v-161l-85 -162h-67l51 162h-61v161z" />
<glyph unicode="&#x201a;" horiz-adv-x="207" d="M20 161h162v-161l-85 -162h-67l51 162h-61v161z" />
<glyph unicode="&#x201c;" horiz-adv-x="411" d="M177 785l-51 -162h61v-161h-162v161l85 162h67zM330 623h61v-161h-162v161l85 162h67z" />
<glyph unicode="&#x201d;" horiz-adv-x="411" d="M20 554v161h162v-161l-85 -162h-67l51 162h-61zM224 715h162v-161l-85 -162h-67l51 162h-61v161z" />
<glyph unicode="&#x201e;" horiz-adv-x="411" d="M20 0v161h162v-161l-85 -162h-67l51 162h-61zM224 161h162v-161l-85 -162h-67l51 162h-61v161z" />
<glyph unicode="&#x2020;" horiz-adv-x="570" d="M520 489v-140h-160v-442h-150v442h-160v140h160v211h150v-211h160z" />
<glyph unicode="&#x2021;" horiz-adv-x="570" d="M520 398h-160v-168h160v-140h-160v-183h-150v183h-160v140h160v168h-160v140h160v162h150v-162h160v-140z" />
<glyph unicode="&#x2022;" horiz-adv-x="414" d="M207 507q61 0 101.5 -40.5t40.5 -101.5t-40.5 -101.5t-101.5 -40.5t-101.5 40.5t-40.5 101.5t40.5 101.5t101.5 40.5z" />
<glyph unicode="&#x2026;" horiz-adv-x="810" d="M221 188v-188h-186v188h186zM498 188v-188h-186v188h186zM775 188v-188h-186v188h186z" />
<glyph unicode="&#x2030;" horiz-adv-x="1183" d="M219 690q75 0 122 -45.5t47 -119.5t-47 -119.5t-122 -45.5t-122 45.5t-47 119.5t47 119.5t122 45.5zM158 0l398 675h90l-398 -675h-90zM219 603q-34 0 -56 -21.5t-22 -56.5t22 -56.5t56 -21.5t56 21.5t22 56.5t-22 56.5t-56 21.5zM595 325q75 0 122 -45.5t47 -119.5 t-47 -119.5t-122 -45.5t-122 45.5t-47 119.5t47 119.5t122 45.5zM964 325q75 0 122 -45.5t47 -119.5t-47 -119.5t-122 -45.5t-122 45.5t-47 119.5t47 119.5t122 45.5zM595 238q-34 0 -56 -21.5t-22 -56.5t22 -56.5t56 -21.5t56 21.5t22 56.5t-22 56.5t-56 21.5zM964 238 q-34 0 -56 -21.5t-22 -56.5t22 -56.5t56 -21.5t56 21.5t22 56.5t-22 56.5t-56 21.5z" />
<glyph unicode="&#x2039;" horiz-adv-x="394" d="M384 426l-174 -186l174 -186h-195l-174 186l174 186h195z" />
<glyph unicode="&#x203a;" horiz-adv-x="394" d="M10 426h195l174 -186l-174 -186h-195l174 186z" />
<glyph unicode="&#x2044;" horiz-adv-x="148" d="M-170 0l398 675h90l-398 -675h-90z" />
<glyph unicode="&#x20ac;" horiz-adv-x="689" d="M279 283q13 -62 55.5 -96.5t109.5 -34.5q84 0 169 48v-177q-71 -39 -170 -39q-152 0 -241.5 85.5t-106.5 213.5h-90l15 30h72q-1 9 -1 27q0 21 1 32h-82l15 30h71q19 124 108.5 206t246.5 82q114 0 208 -47l-74 -151q-78 30 -135 30q-140 0 -170 -120h260l-15 -30h-250 q-2 -20 -2 -32q0 -18 1 -27h222l-15 -30h-202z" />
<glyph unicode="&#x2122;" horiz-adv-x="979" d="M388 565h-108v-286h-142v286h-108v135h358v-135zM830 700l119 -421h-144l-50 188l-55 -139h-108l-55 139l-50 -188h-144l119 421h115l69 -209l69 209h115z" />
<glyph unicode="&#x2202;" horiz-adv-x="600" d="M227 715q149 0 239.5 -90t90.5 -271q0 -104 -29.5 -185t-96 -132.5t-163.5 -51.5q-112 0 -181 64.5t-69 172.5q0 105 63.5 167t161.5 62q85 0 150 -52q-12 71 -58.5 109.5t-117.5 38.5q-69 0 -126 -26l-47 160q77 34 183 34zM275 156q74 0 104 83q-52 48 -111 48 q-37 0 -56 -17t-19 -45q0 -33 23.5 -51t58.5 -18z" />
<glyph unicode="&#x220f;" horiz-adv-x="740" d="M720 700v-155h-105v-623h-163v623h-164v-623h-163v623h-105v155h700z" />
<glyph unicode="&#x2211;" horiz-adv-x="549" d="M529 700v-170h-292l205 -235l-205 -235h292v-170h-509v170l212 235l-212 235v170h509z" />
<glyph unicode="&#x221a;" horiz-adv-x="711" d="M519 715h172l-255 -715h-166l-132 304l-2 -3h-116v161h233l95 -239z" />
<glyph unicode="&#x221e;" horiz-adv-x="760" d="M577 450q74 0 118.5 -42.5t44.5 -110.5t-44.5 -110.5t-118.5 -42.5q-59 0 -104.5 27.5t-92.5 77.5q-47 -50 -92.5 -77.5t-104.5 -27.5q-74 0 -118.5 42.5t-44.5 110.5t44.5 110.5t118.5 42.5q59 0 104.5 -27.5t92.5 -77.5q47 50 92.5 77.5t104.5 27.5zM182 385 q-44 0 -69.5 -25t-25.5 -63q0 -37 25.5 -62t69.5 -25q43 0 78.5 22.5t74.5 64.5q-40 43 -75.5 65.5t-77.5 22.5zM577 385q-42 0 -77.5 -22.5t-75.5 -65.5q39 -42 74.5 -64.5t78.5 -22.5q44 0 69.5 25t25.5 62q0 38 -25.5 63t-69.5 25z" />
<glyph unicode="&#x222b;" horiz-adv-x="475" d="M435 715v-150q-66 0 -92 -24t-26 -83v-458q0 -215 -277 -215v150q64 1 89.5 24.5t25.5 82.5v458q0 106 67 160.5t213 54.5z" />
<glyph unicode="&#x2248;" horiz-adv-x="600" d="M178 499q32 0 67.5 -15t61.5 -33.5t58 -33.5t58 -15q58 0 84 78h73q-21 -84 -64 -121t-93 -37q-32 0 -68 15t-62 33.5t-58 33.5t-58 15q-58 0 -84 -78h-73q22 84 64.5 121t93.5 37zM178 296q40 0 85 -24t86.5 -48.5t73.5 -24.5q58 0 84 78h73q-21 -84 -64 -121t-93 -37 q-40 0 -85.5 24.5t-87 48.5t-73.5 24q-58 0 -84 -78h-73q22 84 64.5 121t93.5 37z" />
<glyph unicode="&#x2260;" horiz-adv-x="600" d="M553 375h-166l-95 -151h261v-76h-308l-50 -80h-78l50 80h-120v76h167l95 151h-262v76h309l49 78h78l-49 -78h119v-76z" />
<glyph unicode="&#x2264;" horiz-adv-x="600" d="M541 489v-82l-373 -73l373 -72v-83l-480 113v84zM544 152v-75h-488v75h488z" />
<glyph unicode="&#x2265;" horiz-adv-x="600" d="M59 489l480 -113v-84l-480 -113v83l373 72l-373 73v82zM56 152h488v-75h-488v75z" />
<glyph unicode="&#x25ca;" horiz-adv-x="644" d="M377 715l247 -365l-247 -365h-110l-247 365l247 365h110zM322 509l-107 -159l107 -158l107 158z" />
<glyph unicode="&#x25fc;" horiz-adv-x="460" d="M0 460h460v-460h-460v460z" />
<glyph unicode="&#xf8ff;" horiz-adv-x="865" d="M50 676q0 16 10.5 26t26.5 10q15 0 26 -10.5t11 -25.5q0 -24 -18 -34v-24q103 42 173 42q45 0 76 -21.5t31 -61.5v-25q55 12 104 12q57 0 96.5 -19t39.5 -64v-48q48 12 81 12q55 0 81.5 -21.5t26.5 -57.5v-240q-52 32 -107 32q-25 0 -63.5 -10t-56.5 -10q-51 0 -51 46v86 q-23 5 -47 5t-73 -9t-67 -9q-54 0 -54 46v68h-14q-62 0 -176 -44v-327h-39v643q-17 11 -17 33zM357 577q0 28 -22.5 41.5t-54.5 13.5q-63 0 -174 -45v-230q110 42 175 42q45 0 76 -14v192zM312 580l-65 -95v-68h-30v68l-65 95h38l42 -64l42 64h38zM598 474q0 11 -2.5 18.5 t-11 19t-32.5 18t-60 6.5q-45 0 -106 -12v-171q0 -18 -32 -29t-32 -25t27 -14q17 0 65 8.5t76 8.5q63 0 108 -25v197zM400 414q0 35 22.5 58t57.5 23t57.5 -23t22.5 -58t-22.5 -58t-57.5 -23t-57.5 23t-22.5 58zM530 414q0 23 -14 37.5t-36 14.5t-36 -14.5t-14 -37.5 t14 -37.5t36 -14.5t36 14.5t14 37.5zM788 365q0 51 -80 51q-34 0 -82 -12v-167q0 -12 -9.5 -20t-21.5 -11.5t-21.5 -9.5t-9.5 -15q0 -16 25 -16q14 0 53.5 10.5t64.5 10.5q39 0 81 -15v194zM709 373l-10 -100h-16l-10 100h36zM356 352q0 11 -32 16v-32q5 3 13.5 5.5 t13.5 4.5t5 6zM598 240q0 13 -34 24v-47q5 3 12 6.5t11.5 5t7.5 4.5t3 7zM671 231q0 19 20 19t20 -19q0 -20 -20 -20t-20 20z" />
</font>
</defs>
</svg>
