<svg width="18" height="18" fill="none" xmlns="http://www.w3.org/2000/svg"><path d="M17.22 16.425c.431 0 .78.353.78.787a.784.784 0 01-.78.788h-6.624a.783.783 0 01-.779-.788c0-.434.348-.787.78-.787h6.624zM9.106 1.038c.979-1.264 2.693-1.388 4.073-.295l1.444 1.145c.63.5 1.062 1.157 1.213 1.852.168.776-.018 1.563-.523 2.214L6.702 17.06c-.436.562-1.09.89-1.798.899L1.582 18a.783.783 0 01-.769-.61l-.752-3.269a2.354 2.354 0 01.434-1.979l1.13-1.458a.772.772 0 011.094-.134.793.793 0 01.132 1.106l-1.13 1.458a.771.771 0 00-.142.65l.61 2.652 2.695-.033a.756.756 0 00.59-.295l8.611-11.105c.22-.283.296-.588.228-.907-.074-.337-.305-.674-.652-.948l-1.444-1.146c-.559-.44-1.347-.667-1.885.029L9.194 3.477 11 4.94c.335.271.39.768.12 1.106a.772.772 0 01-1.095.123L8.233 4.717l-2.946 3.8a.772.772 0 01-1.095.133.795.795 0 01-.131-1.106l5.044-6.506z" fill="silver"/></svg>