<svg width="30" height="30" fill="none" xmlns="http://www.w3.org/2000/svg"><path d="M21.321.75C26.107.75 30 4.732 30 9.628v10.744c0 4.896-3.893 8.878-8.679 8.878-.552 0-1-.458-1-1.023s.448-1.023 1-1.023c3.683 0 6.679-3.064 6.679-6.832v-8.575h-4.925c-1.618.002-2.936 1.35-2.938 3.006.002 1.656 1.32 3.004 2.938 3.005h2.046c.552 0 1 .459 1 1.023 0 .565-.448 1.024-1 1.024h-2.046c-2.722-.002-4.936-2.268-4.938-5.052.002-2.785 2.216-5.05 4.938-5.052H28v-.123c0-3.768-2.996-6.832-6.679-6.832H8.677C5.71 2.796 3.22 4.8 2.351 7.542h13.181c.552 0 1 .459 1 1.024 0 .566-.448 1.023-1 1.023H2.004L2 9.629v10.743c0 3.768 2.995 6.832 6.677 6.832h6.362c.552 0 1 .458 1 1.023s-.448 1.023-1 1.023H8.677C3.892 29.25 0 25.268 0 20.372V9.628C0 4.732 3.892.75 8.677.75h12.644zm2.425 12.938c.552 0 1 .458 1 1.023 0 .564-.448 1.023-1 1.023h-.454c-.553 0-1-.459-1-1.023 0-.565.447-1.024 1-1.024h.454z" fill="#446DF6"/></svg>